<?xml version="1.0" encoding="UTF-8" standalone="no"?>
<!DOCTYPE svg PUBLIC "-//W3C//DTD SVG 1.1//EN" "http://www.w3.org/Graphics/SVG/1.1/DTD/svg11.dtd">
<svg width="100%" height="100%" viewBox="0 0 20 20" version="1.1" xmlns="http://www.w3.org/2000/svg" style="fill-rule:evenodd;clip-rule:evenodd;stroke-linejoin:round;stroke-miterlimit:1.41421;">
    <path d="M9.063,16.083L3.563,10.583C3.479,10.5 3.42,10.41 3.385,10.313C3.351,10.215 3.334,10.111 3.334,10C3.334,9.889 3.351,9.785 3.385,9.687C3.42,9.59 3.479,9.5 3.563,9.417L9.063,3.917C9.215,3.764 9.406,3.684 9.635,3.677C9.865,3.67 10.063,3.75 10.229,3.917C10.396,4.069 10.483,4.26 10.49,4.489C10.497,4.719 10.417,4.917 10.25,5.083L6.167,9.167L15.479,9.167C15.715,9.167 15.914,9.246 16.073,9.406C16.233,9.566 16.313,9.764 16.313,10C16.313,10.236 16.233,10.434 16.073,10.593C15.914,10.753 15.715,10.833 15.479,10.833L6.167,10.833L10.25,14.917C10.403,15.069 10.483,15.264 10.49,15.5C10.497,15.736 10.417,15.931 10.25,16.083C10.097,16.25 9.903,16.333 9.667,16.333C9.431,16.333 9.229,16.25 9.063,16.083Z" style="fill:rgb(9,72,73);fill-rule:nonzero;"/>
</svg>
