<?xml version="1.0" encoding="UTF-8" standalone="no"?>
<!DOCTYPE svg PUBLIC "-//W3C//DTD SVG 1.1//EN" "http://www.w3.org/Graphics/SVG/1.1/DTD/svg11.dtd">
<svg width="100%" height="100%" viewBox="0 0 24 24" version="1.1" xmlns="http://www.w3.org/2000/svg" style="fill-rule:evenodd;clip-rule:evenodd;stroke-linejoin:round;stroke-miterlimit:1.41421;">
    <path d="M12,13C11.695,12.996 11.397,13.086 11.145,13.257C10.894,13.428 10.7,13.673 10.591,13.957C10.482,14.241 10.463,14.552 10.536,14.848C10.609,15.143 10.771,15.409 11,15.61L11,17C11,17.265 11.105,17.52 11.293,17.707C11.48,17.895 11.735,18 12,18C12.265,18 12.52,17.895 12.707,17.707C12.895,17.52 13,17.265 13,17L13,15.61C13.229,15.409 13.391,15.143 13.464,14.848C13.537,14.552 13.518,14.241 13.409,13.957C13.3,13.673 13.106,13.428 12.855,13.257C12.603,13.086 12.305,12.996 12,13ZM17,9L9,9L9,7C8.999,6.406 9.173,5.825 9.502,5.331C9.831,4.837 10.299,4.451 10.848,4.223C11.396,3.995 12,3.934 12.582,4.05C13.165,4.165 13.7,4.45 14.12,4.87C14.496,5.254 14.765,5.73 14.9,6.25C14.933,6.377 14.99,6.497 15.07,6.602C15.149,6.707 15.248,6.796 15.361,6.863C15.474,6.93 15.6,6.973 15.73,6.992C15.86,7.01 15.993,7.003 16.12,6.97C16.247,6.937 16.367,6.88 16.472,6.8C16.577,6.721 16.666,6.622 16.733,6.509C16.799,6.396 16.843,6.27 16.862,6.14C16.88,6.01 16.873,5.877 16.84,5.75C16.612,4.885 16.16,4.095 15.53,3.46C14.83,2.762 13.939,2.288 12.97,2.096C12.001,1.904 10.996,2.004 10.084,2.383C9.171,2.762 8.391,3.402 7.842,4.224C7.293,5.046 7,6.012 7,7L7,9C6.204,9 5.441,9.316 4.879,9.879C4.316,10.441 4,11.204 4,12L4,19C4,19.796 4.316,20.559 4.879,21.121C5.441,21.684 6.204,22 7,22L17,22C17.796,22 18.559,21.684 19.121,21.121C19.684,20.559 20,19.796 20,19L20,12C20,11.204 19.684,10.441 19.121,9.879C18.559,9.316 17.796,9 17,9ZM18,19C18,19.265 17.895,19.52 17.707,19.707C17.52,19.895 17.265,20 17,20L7,20C6.735,20 6.48,19.895 6.293,19.707C6.105,19.52 6,19.265 6,19L6,12C6,11.735 6.105,11.48 6.293,11.293C6.48,11.105 6.735,11 7,11L17,11C17.265,11 17.52,11.105 17.707,11.293C17.895,11.48 18,11.735 18,12L18,19Z" style="fill:rgb(78,78,78);fill-rule:nonzero;"/>
</svg>
