<svg width="24" height="24" viewBox="0 0 24 24" fill="none" xmlns="http://www.w3.org/2000/svg">
<path d="M11.9865 8.38625C12.1197 8.38625 12.2445 8.40665 12.3621 8.44865C12.4785 8.49065 12.5865 8.56025 12.6873 8.66105L17.3121 13.2859C17.4945 13.4695 17.5821 13.6987 17.5737 13.9735C17.5653 14.2483 17.4705 14.4775 17.2869 14.6611C17.1033 14.8447 16.8705 14.9359 16.5873 14.9359C16.3029 14.9359 16.0701 14.8447 15.8865 14.6611L11.9865 10.7611L8.06127 14.6863C7.87887 14.8687 7.64847 14.9575 7.37367 14.9491C7.09887 14.9407 6.86967 14.8447 6.68727 14.6611C6.50367 14.4775 6.41127 14.2447 6.41127 13.9615C6.41127 13.6771 6.50367 13.4443 6.68727 13.2607L11.2869 8.66105C11.3865 8.56025 11.4945 8.49065 11.6121 8.44865C11.7285 8.40665 11.8533 8.38625 11.9865 8.38625Z" fill="#747474"/>
</svg>
