<svg width="100%" height="100%" viewBox="0 0 20 20" version="1.1" xmlns="http://www.w3.org/2000/svg" style="fill-rule:evenodd;clip-rule:evenodd;stroke-linejoin:round;stroke-miterlimit:1.41421;">
    <path d="M10,12.458C9.889,12.458 9.785,12.441 9.687,12.406C9.59,12.371 9.5,12.313 9.416,12.229L5.562,8.375C5.41,8.222 5.337,8.031 5.344,7.802C5.351,7.573 5.43,7.382 5.583,7.229C5.736,7.076 5.93,7 6.166,7C6.403,7 6.597,7.076 6.75,7.229L10,10.479L13.271,7.208C13.423,7.056 13.615,6.982 13.844,6.989C14.073,6.996 14.264,7.076 14.416,7.229C14.569,7.382 14.646,7.576 14.646,7.812C14.646,8.049 14.569,8.243 14.416,8.396L10.583,12.229C10.5,12.313 10.41,12.371 10.312,12.406C10.215,12.441 10.111,12.458 10,12.458Z" style="fill:rgb(116,116,116);fill-rule:nonzero;"/>
</svg>
