<?xml version="1.0" encoding="UTF-8"?>
<svg version="1.1" xmlns="http://www.w3.org/2000/svg" width="1500" height="1687">
<path d="M0 0 C5.5629961 3.65783799 10.63133722 8.01480268 15.7265625 12.28515625 C23.42131563 18.65774592 29.79066556 22.82333342 40 22 C42.33463112 21.67588107 44.6682004 21.3438985 47 21 C47.07484195 25.80139866 47.12892454 30.60244862 47.16479492 35.40429688 C47.17976766 37.03358891 47.20015321 38.66284145 47.22631836 40.29199219 C47.58181225 63.01571915 47.58181225 63.01571915 40.375 70.875 C31.31527648 80.13060943 19.25410096 80.76240211 6.85610962 81.08071899 C-0.48140763 81.14587304 -7.81793521 81.06109821 -15.1550293 80.9781189 C-37.25049406 80.75204836 -59.10468456 80.65782601 -81 84 C-82.1554834 84.17160645 -83.3109668 84.34321289 -84.50146484 84.52001953 C-123.98561601 90.55839115 -161.7411199 102.40433485 -198 119 C-199.52657227 119.69609375 -199.52657227 119.69609375 -201.08398438 120.40625 C-214.44253634 126.54090139 -227.41939289 133.28127719 -240.24511719 140.45849609 C-242.99500479 141.99720492 -245.75115794 143.52423625 -248.5078125 145.05078125 C-259.80242428 151.33971427 -270.90046582 157.91925924 -281.92633057 164.66448975 C-290.39160518 169.84278828 -298.92264019 174.87744536 -307.56225586 179.76074219 C-314.15259522 183.49235184 -320.64882297 187.36323519 -327.12426758 191.2902832 C-332.96217962 194.81651202 -338.86625038 198.21036711 -344.79931641 201.57373047 C-361.07546832 210.82714152 -375.96688063 220.45215718 -389.43505859 233.49560547 C-392.10402041 236.06130636 -394.83629749 238.55795313 -397.5625 241.0625 C-398.64728477 242.06364028 -399.73192143 243.06494106 -400.81640625 244.06640625 C-404.36450267 247.33833585 -407.92338266 250.59842844 -411.48291016 253.85791016 C-416.24385681 258.21938046 -420.98854462 262.59833495 -425.73046875 266.98046875 C-427.85554916 268.94416661 -429.98312256 270.90509374 -432.11328125 272.86328125 C-434.83939352 275.36995282 -437.55779847 277.88482084 -440.2734375 280.40283203 C-441.41172894 281.455816 -442.55230689 282.50633434 -443.6953125 283.55419922 C-454.79823572 293.73913972 -465.46422679 304.35676382 -476.125 315 C-476.85545532 315.72786713 -477.58591064 316.45573425 -478.33850098 317.20565796 C-480.46041876 319.32164877 -482.57849121 321.44141188 -484.6953125 323.5625 C-485.32710419 324.19231277 -485.95889587 324.82212555 -486.60983276 325.47102356 C-490.39442058 329.27501839 -493.99270895 333.19578311 -497.49743652 337.25932312 C-499.41570401 339.48158122 -501.3943018 341.6458742 -503.375 343.8125 C-508.10576093 349.06180977 -512.56997052 354.49623945 -517 360 C-517.92538408 361.13313697 -518.85118393 362.26593449 -519.77734375 363.3984375 C-532.35329127 378.84900686 -543.6132164 395.00610863 -554 412 C-554.42345703 412.68320312 -554.84691406 413.36640625 -555.28320312 414.0703125 C-589.71462515 469.7280787 -604.63357538 531.47323769 -611.44675684 595.79022932 C-611.97570904 600.75691281 -612.51846253 605.72208731 -613.06002808 610.68740845 C-614.31176913 622.18352748 -615.54794037 633.68129213 -616.78192139 645.17932892 C-618.35854158 659.865058 -619.94111886 674.55012494 -621.54042709 689.23340189 C-622.18050934 695.11506632 -622.81220946 700.99754977 -623.43714547 706.88084197 C-623.82758071 710.5410257 -624.22496081 714.20043231 -624.62411499 717.85967445 C-624.80643079 719.54429779 -624.98589784 721.22923249 -625.1621666 722.91449928 C-627.57592293 745.95425838 -627.57592293 745.95425838 -632.5234375 755.74609375 C-632.98508301 756.67953613 -633.44672852 757.61297852 -633.92236328 758.57470703 C-634.4017334 759.51942871 -634.88110352 760.46415039 -635.375 761.4375 C-644.01803936 778.97603376 -648.55059878 792.09916209 -645.62304688 811.71044922 C-645.47674332 812.72960922 -645.33043976 813.74876923 -645.17970276 814.79881287 C-644.69921497 818.13508064 -644.20894622 821.46983368 -643.71875 824.8046875 C-643.38175105 827.13483811 -643.04545827 829.46509096 -642.70983887 831.79544067 C-641.8280961 837.9070117 -640.93842789 844.01740031 -640.04656982 850.12750244 C-638.61725803 859.92742592 -637.19897093 869.72894592 -635.7827301 879.53076553 C-635.28701403 882.9524018 -634.78725854 886.37343022 -634.2869873 889.79440308 C-633.98353258 891.88489208 -633.68018215 893.97539622 -633.37695312 896.06591797 C-633.23669205 897.01765396 -633.09643097 897.96938995 -632.95191956 898.94996643 C-632.82570724 899.82449966 -632.69949493 900.6990329 -632.56945801 901.60006714 C-632.45884285 902.35769789 -632.34822769 903.11532864 -632.23426056 903.89591789 C-632 906 -632 906 -632 910 C-632.515625 909.731875 -633.03125 909.46375 -633.5625 909.1875 C-634.366875 908.795625 -635.17125 908.40375 -636 908 C-637.134375 907.4225 -638.26875 906.845 -639.4375 906.25 C-642.82496298 904.71901235 -642.82496298 904.71901235 -645.75 905.5625 C-648.94453669 907.603454 -650.42686831 909.17604711 -651.578125 912.83984375 C-652.97575594 919.99623181 -650.39778586 925.7586126 -647 932 C-644.93612564 934.98185528 -642.9171706 936.63313176 -639.5 938 C-636.15106223 938 -634.64337705 937.01731406 -632 935 C-630.98199424 933.68036291 -629.97751635 932.34990354 -629 931 C-628.34 931 -627.68 931 -627 931 C-619.62768757 946.15972135 -613.26276448 961.64622483 -607.0625 977.3125 C-588.24437835 1025.16563724 -588.24437835 1025.16563724 -558.296875 1066.5234375 C-556.34314595 1068.6300093 -554.44080758 1070.7640298 -552.5625 1072.9375 C-548.81305124 1077.247614 -544.95187769 1081.45315503 -541.08001709 1085.65292358 C-539.14239782 1087.75607595 -537.21047857 1089.86415753 -535.284729 1091.97817993 C-527.86750157 1100.09885393 -520.20543137 1107.94233747 -512.421875 1115.7109375 C-511.15767147 1116.97581731 -509.89361618 1118.24084531 -508.62969971 1119.50601196 C-506.00605163 1122.13111909 -503.3806427 1124.75444813 -500.75390625 1127.37646484 C-497.40650154 1130.71814365 -494.06364827 1134.06433401 -490.72208786 1137.4118557 C-488.12266368 1140.01490912 -485.52084327 1142.61555699 -482.91831207 1145.21550369 C-481.68493778 1146.44821679 -480.45228951 1147.68165679 -479.22042084 1148.91587448 C-470.61948141 1157.53828745 -470.61948141 1157.53828745 -461.55377197 1165.66641235 C-459.24000921 1167.65229284 -457.12597398 1169.81656726 -455 1172 C-451.41510388 1175.62881522 -447.737064 1179.0406286 -443.86328125 1182.35546875 C-441.41762987 1184.51399963 -439.15702888 1186.83034733 -436.87353516 1189.15771484 C-435.06950675 1190.9316526 -433.21143374 1192.58955809 -431.29296875 1194.23828125 C-427.02751351 1197.94715974 -422.91229268 1201.79731791 -418.8125 1205.6875 C-413.69148161 1210.52742568 -408.56094116 1215.35464843 -403.375 1220.125 C-396.85261501 1226.12665193 -390.37371543 1232.17415987 -383.8984375 1238.2265625 C-382.03765229 1239.96482687 -380.17536673 1241.70146675 -378.3125 1243.4375 C-375.20029195 1246.33799041 -372.09062871 1249.24118427 -368.98291016 1252.14648438 C-367.61586218 1253.42432582 -366.24831929 1254.70163793 -364.88037109 1255.97851562 C-357.1239495 1263.22270432 -349.42456866 1270.49682432 -341.96850586 1278.05078125 C-338.76331689 1281.28331729 -335.48602668 1284.33747265 -331.9296875 1287.1796875 C-330 1289 -330 1289 -328.1328125 1291.8203125 C-325.57417422 1295.33492553 -323.95553645 1297.11493966 -320 1299 C-308.75437491 1299.13973607 -295.37642596 1295.23811967 -286 1289 C-284.1544334 1286.70938615 -283.17785986 1284.73049331 -282 1282 C-279.91281463 1283.69514791 -279.07399745 1284.57850475 -278.6015625 1287.26953125 C-278.65087854 1292.62032106 -278.99871962 1296.39089084 -282 1301 C-282.53625 1301.825 -283.0725 1302.65 -283.625 1303.5 C-286.97132504 1307.02244741 -290.89034201 1309.44463574 -295 1312 C-276.00574646 1323.9524815 -256.11905384 1334.3592038 -235 1342 C-234.25766113 1342.27392578 -233.51532227 1342.54785156 -232.75048828 1342.83007812 C-206.8476247 1352.30743178 -180.25602423 1355.34181437 -152.94223022 1357.62365723 C-109.56188035 1361.25238148 -66.80179499 1367.72745312 -24.1875 1376.625 C-23.31364655 1376.80695923 -22.43979309 1376.98891846 -21.53945923 1377.1763916 C-18.997739 1377.70837326 -16.457444 1378.24646908 -13.91796875 1378.7890625 C-13.10368912 1378.96300537 -12.28940948 1379.13694824 -11.45045471 1379.31616211 C-7.13124138 1380.25764964 -2.84892182 1381.28436331 1.42333984 1382.42089844 C2.76412849 1382.77418716 2.76412849 1382.77418716 4.13200378 1383.13461304 C5.82938973 1383.58729262 7.52352657 1384.0524237 9.21333313 1384.53262329 C16.04020312 1386.35620236 21.51066144 1385.79074911 28.35546875 1383.984375 C29.12608643 1383.7877124 29.8967041 1383.5910498 30.69067383 1383.38842773 C31.92660278 1383.07240601 31.92660278 1383.07240601 33.1875 1382.75 C50.0954018 1378.6310803 67.13882534 1375.55744397 84.46875 1373.97265625 C85.36611374 1373.88962753 86.26347748 1373.80659882 87.18803406 1373.72105408 C91.63872937 1373.31513844 96.0893666 1372.93968981 100.54614258 1372.60717773 C112.21468443 1371.86142938 112.21468443 1371.86142938 122 1366 C122.56404541 1365.48018555 123.12809082 1364.96037109 123.70922852 1364.42480469 C125.40159472 1362.78551427 127.0191848 1361.09888985 128.625 1359.375 C134.34658467 1353.23880775 134.34658467 1353.23880775 138.28125 1351.80078125 C141.16446663 1350.29491318 141.16446663 1350.29491318 141.75146484 1347.71484375 C142.2677434 1344.74765475 142.60319101 1341.8118367 142.875 1338.8125 C142.99101563 1337.77673828 143.10703125 1336.74097656 143.2265625 1335.67382812 C143.50929201 1333.11748218 143.76598278 1330.56118851 144 1328 C144.7425 1328.78375 145.485 1329.5675 146.25 1330.375 C148.54433318 1332.56504531 150.12158858 1333.82731386 153 1335 C152.06299759 1325.54606522 150.11529824 1317.57615587 146 1309 C149.75064395 1310.76130869 152.20468301 1312.99184162 155 1316 C155.67289063 1316.6909375 156.34578125 1317.381875 157.0390625 1318.09375 C163.13359943 1324.54432517 167.59416614 1331.34081199 172 1339 C172.38671875 1338.39671875 172.7734375 1337.7934375 173.171875 1337.171875 C179.08759954 1328.09328783 179.08759954 1328.09328783 182 1326 C185.0625 1325.5625 185.0625 1325.5625 188 1326 C188.99 1326.99 189.98 1327.98 191 1329 C191.99 1323.06 192.98 1317.12 194 1311 C195.32 1310.67 196.64 1310.34 198 1310 C198.32613281 1310.54269531 198.65226563 1311.08539062 198.98828125 1311.64453125 C199.42527344 1312.35996094 199.86226562 1313.07539062 200.3125 1313.8125 C200.74175781 1314.52019531 201.17101562 1315.22789063 201.61328125 1315.95703125 C202.92506467 1317.88960231 204.29403845 1319.41410612 206 1321 C206.68835938 1319.64455078 206.68835938 1319.64455078 207.390625 1318.26171875 C208.00991623 1317.0700523 208.62973585 1315.87866034 209.25 1314.6875 C209.85328125 1313.51574219 210.4565625 1312.34398437 211.078125 1311.13671875 C212.94337806 1308.09241345 214.01135518 1306.80938333 217 1305 C219.30249023 1304.67529297 219.30249023 1304.67529297 221.80859375 1304.7421875 C223.17661133 1304.76345703 223.17661133 1304.76345703 224.57226562 1304.78515625 C225.51779297 1304.81480469 226.46332031 1304.84445312 227.4375 1304.875 C229.31109778 1304.91860186 231.18480409 1304.95780604 233.05859375 1304.9921875 C233.88673584 1305.01651855 234.71487793 1305.04084961 235.56811523 1305.06591797 C238.14671272 1304.99602325 240.48918435 1304.57350107 243 1304 C242.90460937 1304.80824219 242.80921875 1305.61648438 242.7109375 1306.44921875 C242.54464844 1308.05216797 242.54464844 1308.05216797 242.375 1309.6875 C242.25898437 1310.74324219 242.14296875 1311.79898437 242.0234375 1312.88671875 C241.9986881 1316.17426358 242.45237569 1318.11767955 244 1321 C246.25846122 1322.1861468 246.25846122 1322.1861468 249 1322 C254.20120856 1319.85086361 258.02487955 1316.67838819 262.1875 1313 C262.80302734 1312.46632813 263.41855469 1311.93265625 264.05273438 1311.3828125 C267.41590532 1308.46253109 267.41590532 1308.46253109 270.5715332 1305.32421875 C272 1304 272 1304 274 1304 C275.296875 1306.01171875 275.296875 1306.01171875 276.75 1308.6875 C279.89797863 1314.1214191 282.85243149 1317.9508105 289 1320 C309.05422243 1322.18773336 331.29115102 1300.88196598 347.14196777 1290.25424194 C351.2501371 1287.50014822 355.36695766 1284.75938212 359.48754883 1282.02392578 C368.39063275 1276.10961435 377.21423073 1270.08692179 386 1264 C386.87317871 1263.39639648 387.74635742 1262.79279297 388.64599609 1262.17089844 C400.86649452 1253.72075534 413.00163185 1245.16956949 425.02001953 1236.43457031 C428.00212291 1234.27392426 431.00034792 1232.13618142 434 1230 C453.25964469 1216.26543449 472.3731633 1202.34632205 491.15673828 1187.96606445 C496.95317246 1183.53604731 502.79939442 1179.1822311 508.6875 1174.875 C516.43758466 1169.20022829 524.03852252 1163.35451085 531.6015625 1157.43359375 C535.87569506 1154.08882556 540.18319885 1150.78941946 544.5 1147.5 C552.59815873 1141.32345415 560.64022489 1135.07650447 568.67236328 1128.81445312 C572.73824296 1125.64499458 576.80651921 1122.47861844 580.875 1119.3125 C581.63031006 1118.72412354 582.38562012 1118.13574707 583.16381836 1117.52954102 C583.87030518 1116.97967529 584.57679199 1116.42980957 585.3046875 1115.86328125 C585.92327637 1115.38157471 586.54186523 1114.89986816 587.17919922 1114.40356445 C587.78006348 1113.94038818 588.38092773 1113.47721191 589 1113 C589.69496582 1112.44594482 590.38993164 1111.89188965 591.10595703 1111.32104492 C593 1110 593 1110 595 1110 C594.67 1116.27 594.34 1122.54 594 1129 C596.64 1120.42 599.28 1111.84 602 1103 C606 1105 606 1105 609 1107 C615.26233622 1107.6159675 617.916192 1107.02768789 623 1103 C624.69143901 1100.76347931 626.16768594 1098.62473354 627.625 1096.25 C628.48972731 1094.90252609 629.35836763 1093.55755701 630.23046875 1092.21484375 C630.90601807 1091.17432861 630.90601807 1091.17432861 631.59521484 1090.11279297 C638.80008558 1079.27668742 646.97032893 1069.35072604 656 1060 C656.79792969 1059.15050781 657.59585937 1058.30101562 658.41796875 1057.42578125 C665.05163477 1050.53239584 672.3910508 1044.75941873 680 1039 C680.75539063 1038.40058594 681.51078125 1037.80117187 682.2890625 1037.18359375 C684 1036 684 1036 686 1036 C684.8798232 1042.57317016 682.22042789 1048.62530974 679.8125 1054.8125 C679.54878601 1055.4920575 679.28507202 1056.17161499 679.0133667 1056.87176514 C668.92064033 1082.80778616 657.42597734 1108.10324113 645 1133 C644.55204071 1133.89945343 644.55204071 1133.89945343 644.09503174 1134.81707764 C621.83519711 1179.46053693 595.04790767 1222.15288022 562.51171875 1260.05859375 C560.13466957 1262.84229209 557.80898433 1265.65974493 555.5 1268.5 C551.63558268 1273.25030361 547.69410098 1277.93011966 543.71679688 1282.5859375 C542.4696703 1284.05035261 541.23437512 1285.52482056 540 1287 C539.14341797 1287.91072266 539.14341797 1287.91072266 538.26953125 1288.83984375 C536.28536661 1292.2159762 536.06450702 1295.7838976 535.5625 1299.625 C534.12124477 1309.25004497 532.27050037 1318.05997692 525 1325 C518.58365673 1329.13143428 512.65484756 1330.14619189 505.03662109 1329.93432617 C494.10986122 1329.63443882 483.37138937 1330.18670326 475 1338 C473.90082853 1341.09625766 473.79811482 1342.49681648 475.03125 1345.5703125 C475.5159375 1346.41335938 476.000625 1347.25640625 476.5 1348.125 C477.96875 1350.6953125 477.96875 1350.6953125 479 1353 C478.67 1353.99 478.34 1354.98 478 1356 C477.28714844 1355.51789063 476.57429688 1355.03578125 475.83984375 1354.5390625 C466.45485725 1348.34977127 460.12356411 1346.22550253 449 1348 C444.21129561 1349.23592743 439.55302248 1350.77515681 434.875 1352.375 C433.03035156 1352.97441406 433.03035156 1352.97441406 431.1484375 1353.5859375 C429.983125 1353.9778125 428.8178125 1354.3696875 427.6171875 1354.7734375 C426.56128418 1355.12841309 425.50538086 1355.48338867 424.41748047 1355.84912109 C423.61971191 1356.22891113 422.82194336 1356.60870117 422 1357 C421.67 1357.99 421.34 1358.98 421 1360 C423.21846161 1364.33128219 426.17889276 1367.10102649 429.75 1370.375 C437.46636235 1377.92014129 444.4719715 1389.97476498 445 1401 C444.85360253 1404.06962446 444.48320028 1406.95583824 444 1410 C439.20349211 1406.184596 435.01777286 1401.99949037 430.875 1397.5 C430.37258789 1396.95448486 429.87017578 1396.40896973 429.35253906 1395.84692383 C426.12928099 1392.3137371 423.03751926 1388.69397947 420 1385 C400.28000921 1393.50666269 384.70398457 1412.04650174 371 1428 C369.30049338 1429.90375 367.59271731 1431.80016483 365.875 1433.6875 C365.42125 1434.18660889 364.9675 1434.68571777 364.5 1435.19995117 C361.90967049 1438.0199974 359.25919803 1440.75050326 356.5078125 1443.4140625 C355.92402832 1443.98165283 355.34024414 1444.54924316 354.73876953 1445.1340332 C353.61085247 1446.22283266 352.47424023 1447.30272302 351.32763672 1448.37182617 C345.62172406 1453.87906499 343.86753709 1458.49094001 343.70703125 1466.37109375 C343.72682661 1468.72674167 343.7623894 1471.08230194 343.8125 1473.4375 C343.82603516 1474.64599609 343.83957031 1475.85449219 343.85351562 1477.09960938 C343.88870054 1480.06687082 343.93793304 1483.03319937 344 1486 C343.13834229 1485.98428955 342.27668457 1485.9685791 341.38891602 1485.95239258 C338.15163448 1485.90086221 334.91456399 1485.86345606 331.67700195 1485.83520508 C330.28337672 1485.82024062 328.88979756 1485.79986149 327.49633789 1485.77368164 C314.29955811 1485.45162329 314.29955811 1485.45162329 302.5625 1490.8125 C295.86911852 1500.18323407 297.85297638 1515.10391584 298 1526 C296.80375 1525.7525 295.6075 1525.505 294.375 1525.25 C293.36566406 1525.04117187 293.36566406 1525.04117187 292.3359375 1524.828125 C286.75395849 1522.84922943 282.87326763 1519.09501176 279 1514.75 C278.13632813 1513.78449219 277.27265625 1512.81898437 276.3828125 1511.82421875 C274.39401294 1509.46700223 272.61788161 1507.10063088 270.875 1504.5625 C267.87253532 1500.51751286 264.9529676 1498.16877373 260 1497 C257.37442817 1497.16342032 257.37442817 1497.16342032 254.58984375 1497.73828125 C253.53055664 1497.93421875 252.47126953 1498.13015625 251.37988281 1498.33203125 C249.70684082 1498.66267578 249.70684082 1498.66267578 248 1499 C246.33855957 1499.32291016 246.33855957 1499.32291016 244.64355469 1499.65234375 C220.02038786 1504.39010838 220.02038786 1504.39010838 197 1514 C197.165 1514.66 197.33 1515.32 197.5 1516 C199.03938619 1525.23631714 199.03938619 1525.23631714 197.0078125 1528.68359375 C192.00176282 1531.96577029 184.48879658 1531.19462956 178.73632812 1530.58154297 C170.90453802 1528.91707794 164.15469399 1523.7841204 157.50292969 1519.5390625 C137.12860332 1507.01079939 113.61651903 1500.81758272 90 1506 C88.9275 1506.391875 87.855 1506.78375 86.75 1507.1875 C79.74653848 1509.25670454 71.41895046 1505.9342432 64.5625 1504.1875 C55.8579218 1502.04305234 47.16364953 1500.17923437 38.3125 1498.75 C37.40250244 1498.59942139 36.49250488 1498.44884277 35.55493164 1498.29370117 C14.7865757 1495.09123041 -5.96410888 1494.62976809 -26.9375 1494.6875 C-28.36624138 1494.68972363 -29.79498284 1494.69190008 -31.22372437 1494.69403076 C-53.93394454 1494.74088108 -76.41954771 1495.47112316 -99 1498 C-100.03775574 1498.1159552 -101.07551147 1498.2319104 -102.14471436 1498.35137939 C-115.73228024 1499.87807495 -129.31175442 1501.4696525 -142.87974548 1503.16188049 C-143.77633377 1503.27241257 -144.67292206 1503.38294464 -145.59667969 1503.49682617 C-146.37839539 1503.59436691 -147.16011108 1503.69190765 -147.96551514 1503.79240417 C-150 1504 -150 1504 -153 1504 C-153 1496.41 -153 1488.82 -153 1481 C-154.98 1482.65 -156.96 1484.3 -159 1486 C-162.54531947 1487.77265974 -166.13480303 1487.59951224 -170 1487 C-173.36804053 1485.47381139 -176.25474985 1483.40402709 -179.25 1481.25 C-181.02021568 1480.0408426 -182.79375769 1478.83654297 -184.5703125 1477.63671875 C-185.47168945 1477.02489746 -186.37306641 1476.41307617 -187.30175781 1475.78271484 C-207.82161144 1462.22535227 -230.42724946 1451.16524961 -252.43261719 1440.26660156 C-258.68370092 1437.16914277 -264.89064169 1434.00234577 -271.0625 1430.75 C-271.84141602 1430.34628174 -272.62033203 1429.94256348 -273.42285156 1429.52661133 C-276.93764791 1427.69158161 -280.35015269 1425.81606338 -283.6640625 1423.63671875 C-293.29143687 1417.49858506 -301.84821459 1417.22310674 -313.12109375 1417.12109375 C-320.96525956 1417.03905501 -328.38511066 1415.80767785 -336 1414 C-336.68046387 1413.84047852 -337.36092773 1413.68095703 -338.06201172 1413.51660156 C-356.31202095 1409.07452971 -372.23306843 1401.07013266 -386.4921875 1388.8671875 C-401.20492229 1376.50472983 -418.55224171 1372.90935178 -437.31640625 1372.82421875 C-439.31836973 1372.80100713 -441.32032288 1372.77688926 -443.32226562 1372.75195312 C-446.43309348 1372.71703841 -449.54354211 1372.68758233 -452.65454102 1372.67407227 C-483.82807639 1372.51273141 -506.74563597 1362.25436403 -528.65234375 1340.34765625 C-550.55648808 1317.36349248 -561.61818859 1284.84969243 -566.9375 1254.125 C-568.84088385 1243.28974941 -572.13489016 1232.1977046 -581.33203125 1225.234375 C-582.15058594 1224.74453125 -582.96914063 1224.2546875 -583.8125 1223.75 C-584.62332031 1223.24984375 -585.43414063 1222.7496875 -586.26953125 1222.234375 C-589.50450623 1220.77192565 -592.49322049 1220.44538697 -596 1220 C-596.38631592 1218.8754541 -596.77263184 1217.7509082 -597.1706543 1216.59228516 C-617.18768581 1158.40774933 -640.80217404 1102.25432186 -666.00830078 1046.14233398 C-676.67866959 1022.3695032 -687.31879531 998.57640813 -697.4375 974.5625 C-698.20707031 972.74516357 -698.20707031 972.74516357 -698.9921875 970.89111328 C-707.44291667 950.66604499 -710.19526341 932.37534069 -710.125 910.5 C-710.13080078 908.64761719 -710.13080078 908.64761719 -710.13671875 906.7578125 C-710.13542969 905.56929687 -710.13414062 904.38078125 -710.1328125 903.15625 C-710.13168457 902.09212891 -710.13055664 901.02800781 -710.12939453 899.93164062 C-710.00787875 897.17850566 -709.62289264 894.67961363 -709 892 C-708.35933594 892.10699219 -707.71867188 892.21398437 -707.05859375 892.32421875 C-701.00687494 893.16298157 -697.33745847 893.06619955 -692 890 C-687.65298453 881.30596907 -692.02180642 867.79250093 -693.9375 858.625 C-694.09205658 857.86943817 -694.24661316 857.11387634 -694.40585327 856.3354187 C-704.58033047 806.831541 -723.96507698 759.78248266 -747.67578125 715.296875 C-748.04912598 714.58466797 -748.4224707 713.87246094 -748.80712891 713.13867188 C-749.97923196 710.9645352 -749.97923196 710.9645352 -751.43896484 708.87695312 C-755.67673305 702.37349085 -755.27441232 697.49158553 -754 690 C-753.83387207 688.95295898 -753.66774414 687.90591797 -753.49658203 686.82714844 C-753.00103078 683.85035422 -752.47438013 680.88086225 -751.93264771 677.91217041 C-748.95955933 661.54927641 -746.48334343 645.1146948 -744.03693104 628.66689205 C-722.84784849 486.24260811 -722.84784849 486.24260811 -675 432 C-674.38640625 431.28714844 -673.7728125 430.57429688 -673.140625 429.83984375 C-671.44628227 427.87521302 -669.72873367 425.93444937 -668 424 C-667.14535156 423.0409375 -666.29070312 422.081875 -665.41015625 421.09375 C-660.85173689 416.02259748 -656.26170431 411.16216517 -651.02734375 406.7734375 C-648.56810525 404.62219611 -646.29446992 402.32590102 -644 400 C-640.57044666 396.53412764 -637.07513586 393.26032306 -633.375 390.08984375 C-629.45241463 386.63822669 -625.66127371 383.04582597 -621.84985352 379.47241211 C-618.20872051 376.05949826 -614.5525305 372.66521616 -610.87036133 369.29663086 C-601.79173085 360.98127834 -592.85411341 352.50331394 -585 343 C-584.58218262 342.50661133 -584.16436523 342.01322266 -583.73388672 341.50488281 C-582.28543118 339.78702976 -580.8601068 338.05179935 -579.4375 336.3125 C-578.99019531 335.78487061 -578.54289063 335.25724121 -578.08203125 334.71362305 C-569.69606535 324.27560884 -565.97654705 310.69893322 -561.7890625 298.19726562 C-561.38429688 297.02486328 -560.97953125 295.85246094 -560.5625 294.64453125 C-560.21316406 293.60659424 -559.86382813 292.56865723 -559.50390625 291.49926758 C-556.02649523 283.40807729 -551.35237179 276.74589545 -545.21875 270.4765625 C-544.54227417 269.77157623 -543.86579834 269.06658997 -543.16882324 268.34024048 C-540.79372419 265.87889828 -538.39980873 263.43725595 -536 261 C-535.31094574 260.3000013 -535.31094574 260.3000013 -534.60797119 259.58586121 C-527.17406022 252.03917034 -519.68766755 244.54546444 -512.1895752 237.06262207 C-509.91911164 234.79478314 -507.65239769 232.52321404 -505.38562775 230.25168419 C-503.17395426 228.03637953 -500.95988327 225.82348332 -498.74510193 223.61128616 C-497.70152265 222.56836585 -496.65866297 221.52472489 -495.61659241 220.48029709 C-490.46392798 215.31850921 -485.29335666 210.22710809 -479.72705078 205.50686646 C-476.48432499 202.6775607 -473.51156081 199.57090384 -470.5 196.5 C-466.17191357 192.13004766 -461.85394216 187.83834064 -457.15234375 183.8671875 C-454.02812454 181.15688481 -451.02209693 178.32317609 -448 175.5 C-443.07367249 170.90857775 -438.11024363 166.38675036 -433 162 C-431.91891495 161.05379187 -430.83822362 160.10713382 -429.7578125 159.16015625 C-415.01946919 146.2987713 -403.36564281 137.99917412 -383 139 C-380.84925908 139.21734805 -378.70355549 139.46783004 -376.55639648 139.71801758 C-362.37572109 141.36262849 -348.25693674 141.19298228 -334 141 C-333.7208374 140.01942627 -333.7208374 140.01942627 -333.43603516 139.01904297 C-329.84856825 126.69549284 -324.06838029 116.9676382 -316 107 C-315.37351562 106.20722656 -314.74703125 105.41445312 -314.1015625 104.59765625 C-300.60369002 88.39451397 -280.52896308 77.99635231 -259.765625 75.27734375 C-252.010737 74.70618499 -244.25445802 75.3592699 -236.625 76.8125 C-226.55283388 77.33347411 -217.02622857 68.93585229 -209.9375 62.5625 C-209.09574219 61.78390625 -208.25398437 61.0053125 -207.38671875 60.203125 C-205.37929249 58.35011614 -203.33659541 56.57431617 -201.25 54.8125 C-197.96338078 51.972541 -194.93980475 48.92661395 -191.90795898 45.8215332 C-177.20609141 30.81236373 -177.20609141 30.81236373 -169.0625 30.4375 C-166.84765625 30.49609375 -166.84765625 30.49609375 -165 31 C-162.59985396 34.60021906 -162.69533929 37.21688164 -162.75 41.375 C-162.75386719 42.07947266 -162.75773438 42.78394531 -162.76171875 43.50976562 C-162.86865585 50.11016078 -163.75704697 56.51888777 -165 63 C-163.55947266 61.92685547 -163.55947266 61.92685547 -162.08984375 60.83203125 C-127.36048033 35.40039469 -87.18453665 20.59417333 -47.20559692 5.63742065 C-44.74218323 4.71508854 -42.27983248 3.7899123 -39.818573 2.86184692 C-36.33064393 1.54882292 -32.8380107 0.24918988 -29.34375 -1.046875 C-28.28869766 -1.44626785 -27.23364532 -1.84566071 -26.1466217 -2.25715637 C-25.16173264 -2.61927719 -24.17684357 -2.98139801 -23.16210938 -3.35449219 C-22.30661499 -3.67359558 -21.45112061 -3.99269897 -20.56970215 -4.32147217 C-12.88250176 -6.35127139 -6.74656716 -3.58586863 0 0 Z M-636 971 C-635.62488281 971.64324219 -635.24976563 972.28648437 -634.86328125 972.94921875 C-628.82582731 983.60981122 -624.71361449 993.92630796 -623.16333008 1006.08837891 C-622.1027133 1013.57915106 -618.48173171 1018.03576226 -612.80859375 1022.671875 C-610.32886886 1024.49283928 -607.85951932 1025.86949236 -605 1027 C-604.01 1026.505 -604.01 1026.505 -603 1026 C-603.43828125 1025.24203125 -603.8765625 1024.4840625 -604.328125 1023.703125 C-609.85145094 1013.77910034 -614.31928246 1003.49264392 -618.61035156 992.98925781 C-623.54769891 980.83756388 -623.54769891 980.83756388 -632 971 C-633.32 971 -634.64 971 -636 971 Z M-656.75 974.1875 C-658.36545463 976.52990921 -658.77798962 978.15994264 -659 981 C-657.65710263 983.21793943 -657.65710263 983.21793943 -655.5625 985.1875 C-651.06304218 989.90121771 -647.02165813 994.87666424 -643 1000 C-641.80544077 996.4163223 -642.29692757 995.26092233 -643.3984375 991.7109375 C-643.71296875 990.68742187 -644.0275 989.66390625 -644.3515625 988.609375 C-644.68929687 987.54203125 -645.02703125 986.4746875 -645.375 985.375 C-645.705 984.29992188 -646.035 983.22484375 -646.375 982.1171875 C-647.5321595 977.20292716 -647.5321595 977.20292716 -650 973 C-652.78481156 972.70686194 -654.3961523 972.59024621 -656.75 974.1875 Z M-642 1000 C-641 1002 -641 1002 -641 1002 Z " fill="#3C3738" transform="translate(755,81)"/>
<path d="M0 0 C2.79668201 -0.00438644 5.59305584 -0.01832356 8.38964844 -0.04101562 C96.17084309 -0.73755422 186.42362585 39.71717126 275.84741211 117.60351562 C281.59802322 123.27500485 287.28218344 128.9748023 292.39038086 135.24023438 C293.08776367 136.07554687 293.78514648 136.91085937 294.50366211 137.77148438 C302.40566937 147.60049504 308.8459676 158.32978126 315.43481445 169.06298828 C318.559212 174.13925666 321.72618762 179.18871488 324.89038086 184.24023438 C326.14060049 186.24009709 327.39060014 188.24009734 328.64038086 190.24023438 C329.25913086 191.23023438 329.87788086 192.22023438 330.51538086 193.24023438 C362.39038086 244.24023437 394.26538086 295.24023438 426.14038086 346.24023438 C427.0700769 347.72668457 427.0700769 347.72668457 428.01855469 349.24316406 C429.26055477 351.23178973 430.50000201 353.22201218 431.73681641 355.21386719 C434.96446672 360.40430656 438.23961471 365.554735 441.59741211 370.66210938 C442.28448242 371.72171875 442.97155273 372.78132813 443.67944336 373.87304688 C444.98466031 375.8837865 446.30523678 377.88467837 447.64428711 379.87304688 C448.23725586 380.7934375 448.83022461 381.71382813 449.44116211 382.66210938 C449.96363525 383.45198242 450.4861084 384.24185547 451.02441406 385.05566406 C453.12937345 389.96309754 453.67501829 394.97048009 454.39038086 400.24023438 C454.48157259 400.90706364 454.57276432 401.5738929 454.66671944 402.26092911 C455.42807863 407.86313567 456.14239787 413.47103304 456.85131836 419.08007812 C457.08447515 420.91474124 457.31765021 422.74940204 457.55084229 424.58406067 C458.29443894 430.44794142 459.03063549 436.31273887 459.76538086 442.17773438 C459.88997429 443.17068008 460.01456772 444.16362579 460.14293671 445.18666077 C466.11943492 492.84689686 466.11943492 492.84689686 468.01538086 514.99023438 C468.08746765 515.8262619 468.15955444 516.66228943 468.23382568 517.52365112 C468.67648665 522.75916864 469.05974029 527.99648718 469.39038086 533.24023438 C469.44012054 534.02410522 469.48986023 534.80797607 469.54110718 535.61560059 C470.3270411 548.41514138 470.51721548 561.16943665 470.45288086 573.99023438 C470.44784354 575.7779935 470.44328468 577.56575405 470.43920898 579.35351562 C470.42840821 583.6491248 470.41127372 587.94466292 470.39038086 592.24023438 C471.67202541 591.65659935 472.94746595 591.05933053 474.22021484 590.45654297 C474.93112778 590.12544525 475.64204071 589.79434753 476.37449646 589.45321655 C479.81816152 587.38112137 481.47287517 584.26965957 483.45288086 580.86523438 C491.17068702 568.49716445 491.17068702 568.49716445 498.32788086 566.36523438 C499.34881836 566.30335938 499.34881836 566.30335938 500.39038086 566.24023438 C499.79967962 570.31167925 498.90108679 574.01086043 497.53491211 577.88867188 C496.97670776 579.50056396 496.97670776 579.50056396 496.40722656 581.14501953 C496.00979248 582.29019043 495.6123584 583.43536133 495.20288086 584.61523438 C479.51096839 630.99224225 474.74989515 679.73187681 470.39038086 728.24023438 C469.73038086 728.24023438 469.07038086 728.24023438 468.39038086 728.24023438 C467.90534829 726.09571932 467.42767681 723.94953902 466.95288086 721.80273438 C466.55262695 720.01029297 466.55262695 720.01029297 466.14428711 718.18164062 C461.0714712 693.01692941 464.76053847 666.15456097 467.68034363 640.94119263 C468.53154941 633.39036108 469.00102505 625.82714763 469.39038086 618.24023438 C468.92494873 618.69100342 468.4595166 619.14177246 467.97998047 619.60620117 C464.96690646 622.4723394 462.79556606 624.11448724 458.76538086 625.36523438 C455.39038086 625.24023438 455.39038086 625.24023438 452.64038086 623.74023438 C447.83318935 618.39891048 446.96412375 612.9621954 446.82788086 606.05273438 C446.85473421 599.80320122 446.85473421 599.80320122 444.39038086 594.24023438 C442.37219087 592.59902081 442.37219087 592.59902081 439.95288086 591.11523438 C414.28147239 573.7907434 397.84650057 545.10746074 383.9621582 518.22607422 C382.95121437 516.30562639 381.89701794 514.40701595 380.79125977 512.53955078 C378.39609993 508.34295859 376.89737216 505.51037075 377.94506836 500.66601562 C378.40443676 499.18362664 378.88623424 497.70799887 379.39038086 496.24023438 C379.76298146 494.80022733 380.11983148 493.35605142 380.46069336 491.90820312 C380.63536133 491.18286377 380.8100293 490.45752441 380.98999023 489.71020508 C385.50276036 470.10523857 385.04137719 450.1409444 375.26928711 432.11523438 C369.41052722 423.15047911 362.34942044 416.76830255 353.30834961 411.09570312 C333.79098306 398.68506175 325.30299448 380.98996983 317.70288086 359.99023438 C317.28224869 358.84186096 317.28224869 358.84186096 316.8531189 357.67028809 C308.39670256 334.55622405 301.42392167 311.11786638 305.39038086 286.24023438 C298.95087603 288.93201663 292.68676487 291.9465245 286.41772461 295.01171875 C279.68500963 298.24839313 273.52343377 300.52257155 265.95288086 300.61523438 C264.90229492 300.64359375 263.85170898 300.67195313 262.76928711 300.70117188 C255.71140417 299.73836241 250.18198056 295.60564052 244.64038086 291.36523438 C238.69838556 286.91348755 232.6738918 282.60356434 226.57788086 278.36523438 C217.10287658 271.76409244 207.73489359 265.02429723 198.39038086 258.24023438 C188.89510672 251.3554931 179.37877954 244.5059895 169.78466797 237.75952148 C164.62447648 234.1256258 159.50111794 230.44329264 154.39038086 226.74023438 C146.49697218 221.02399629 138.55612566 215.37921362 130.57983398 209.77929688 C128.37342195 208.22831321 126.17079831 206.67206054 123.96850586 205.11523438 C86.9810212 179.02710356 49.2549419 153.71132466 10.10766602 130.9699707 C5.09959698 128.05611293 0.15434459 125.13535498 -4.62524414 121.85742188 C-16.67202591 113.78837514 -27.1147177 112.93569744 -41.40991211 112.42236328 C-75.99786674 110.4535998 -108.81380658 95.82289937 -132.77368164 70.99804688 C-138.56976402 64.26472564 -141.01009165 56.29339469 -142.04711914 47.55273438 C-140.69772531 37.33589535 -136.95615787 28.46397884 -128.79711914 21.86523438 C-120.07855017 15.94906257 -110.91466913 15.51381977 -100.60961914 15.24023438 C-99.69647949 15.21300293 -98.78333984 15.18577148 -97.8425293 15.15771484 C-94.82735287 15.0787211 -91.81305763 15.02972016 -88.79711914 14.99023438 C-87.36601807 14.95796753 -87.36601807 14.95796753 -85.90600586 14.92504883 C-78.71141947 14.89198891 -72.09863998 15.99572396 -65.60961914 19.24023438 C-65.24610352 18.46099609 -65.24610352 18.46099609 -64.87524414 17.66601562 C-61.56747293 10.78330706 -58.31073329 6.23238748 -51.60961914 2.24023438 C-47.73276641 0.94795013 -43.95940149 0.87463335 -39.91040039 0.69335938 C-38.53915764 0.63091034 -38.53915764 0.63091034 -37.14021301 0.56719971 C-24.76561271 0.05994454 -12.38315511 0.01653612 0 0 Z " fill="#3C3738" transform="translate(999.609619140625,124.759765625)"/>
<path d="M0 0 C1.96221196 0.50506028 3.91374892 1.05138185 5.86192322 1.60813904 C6.04223083 2.60539001 6.22253845 3.60264099 6.40830994 4.63011169 C8.97323539 18.39244434 13.10658754 30.89536083 24.86192322 39.60813904 C37.01077127 46.85286494 48.94847357 50.83124915 63.23692322 47.92063904 C77.21155892 43.96555346 87.40158161 36.80217224 94.58067322 24.14329529 C97.40906256 18.54687856 98.85156328 12.98030224 99.94004822 6.82298279 C100.11439392 5.84321472 100.28873962 4.86344666 100.46836853 3.85398865 C100.59824158 3.11285828 100.72811462 2.37172791 100.86192322 1.60813904 C147.1507228 -2.19724727 147.1507228 -2.19724727 157.54551697 6.00267029 C162.05205408 9.96106559 165.71391925 14.72017403 168.917099 19.77220154 C174.24749807 27.54497528 181.16671362 34.0406951 187.83306885 40.65444946 C189.49305381 42.30147787 191.14972557 43.95177856 192.8056488 45.60289001 C196.32157973 49.10748542 199.84144275 52.60811459 203.36192322 56.10813904 C207.44684906 60.16932912 211.53007214 64.23220198 215.60906982 68.29934692 C217.22819093 69.91206487 218.85033105 71.52170122 220.47264099 73.13121033 C234.70009043 87.28447346 234.70009043 87.28447346 237.86192322 93.60813904 C213.60692322 117.86313904 213.60692322 117.86313904 188.86192322 142.60813904 C175.0809569 130.79588219 162.69633876 117.44255458 149.86192322 104.60813904 C149.53192322 173.24813904 149.20192322 241.88813904 148.86192322 312.60813904 C85.50192322 312.60813904 22.14192322 312.60813904 -43.13807678 312.60813904 C-43.46807678 243.96813904 -43.79807678 175.32813904 -44.13807678 104.60813904 C-62.94807678 123.41813904 -62.94807678 123.41813904 -82.13807678 142.60813904 C-86.24146096 139.0909526 -90.10091926 135.7700359 -93.88002014 131.97972107 C-95.17056557 130.68906235 -95.17056557 130.68906235 -96.48718262 129.37232971 C-97.39162613 128.46272491 -98.29606964 127.55312012 -99.22792053 126.61595154 C-100.18176633 125.66023655 -101.13583619 124.70474516 -102.09011841 123.74946594 C-104.57960872 121.25618988 -107.06607903 118.75992379 -109.55189514 116.26298523 C-112.09765672 113.70692394 -114.64631455 111.15375399 -117.19471741 108.60032654 C-122.17864747 103.60572885 -127.15938726 98.60796105 -132.13807678 93.60813904 C-130.61101599 90.39779494 -129.02630505 88.27071575 -126.47010803 85.78001404 C-125.74114319 85.06200623 -125.01217834 84.34399841 -124.26112366 83.60423279 C-123.49864319 82.86302185 -122.73616272 82.12181091 -121.95057678 81.35813904 C-120.454573 79.89716743 -118.96106109 78.43363966 -117.47010803 76.96751404 C-116.4758783 76.00023376 -116.4758783 76.00023376 -115.46156311 75.01341248 C-111.76070975 71.18228845 -108.31714562 67.1297945 -104.83494759 63.1001358 C-95.86465828 52.72946516 -86.68572563 42.5702118 -77.26307678 32.60813904 C-76.56648327 31.87099041 -75.86988976 31.13384178 -75.15218735 30.37435532 C-52.40725941 6.46049648 -34.62826441 -7.95203108 0 0 Z " fill="#F67C7C" transform="translate(697.1380767822266,557.3918609619141)"/>
<path d="M0 0 C74.1 0 74.1 0 84 9 C90.73229524 17.86692544 91.29811199 27.58295174 91.2746582 38.31591797 C91.27976913 39.52997314 91.28488007 40.74402832 91.29014587 41.99487305 C91.30161757 45.30496562 91.30412296 48.61480677 91.30158257 51.92490149 C91.30050766 54.69799585 91.3054095 57.47106749 91.310188 60.24415696 C91.32125744 66.79185784 91.32173519 73.33950134 91.31567383 79.88720703 C91.30963685 86.61963386 91.32194381 93.35185154 91.3432439 100.0842427 C91.36091474 105.88495038 91.36685262 111.68559181 91.36360615 117.48632538 C91.36180173 120.94178661 91.3643446 124.39709864 91.37832069 127.85253525 C91.39334183 131.71020319 91.38388112 135.56760901 91.37231445 139.42529297 C91.37995819 140.5549649 91.38760193 141.68463684 91.39547729 142.84854126 C91.31999796 154.28043682 88.68852869 164.27794485 80.44140625 172.56640625 C61.71236298 187.61252015 10.839268 180 0 180 C0 120.6 0 61.2 0 0 Z M20 12 C20 63.48 20 114.96 20 168 C43.75777177 169.95695854 43.75777177 169.95695854 64.875 163.1875 C69.94046371 157.97305206 71.11246026 151.95125452 71.14717102 144.91708374 C71.15432632 143.91640869 71.16148163 142.91573364 71.16885376 141.88473511 C71.17154266 140.79790436 71.17423157 139.71107361 71.17700195 138.59130859 C71.18357315 137.43781921 71.19014435 136.28432983 71.19691467 135.09588623 C71.21661796 131.28006929 71.22830424 127.46429168 71.23828125 123.6484375 C71.24235678 122.34284504 71.2464323 121.03725258 71.25063133 119.69209671 C71.26966763 113.49256444 71.28390029 107.29304394 71.2922433 101.0934881 C71.30200143 93.96208396 71.32828984 86.83099137 71.36874419 79.6996969 C71.3990159 74.17165421 71.41372269 68.64370027 71.41702431 63.11557639 C71.41936279 59.82146288 71.43017377 56.52775662 71.45348549 53.23371506 C71.47792903 49.55057998 71.47690166 45.86825058 71.4699707 42.18505859 C71.48278076 41.11037323 71.49559082 40.03568787 71.50878906 38.92843628 C71.46036846 31.83255364 70.49714573 25.28300061 67 19 C53.63960986 6.88655528 38.86699294 12 20 12 Z " fill="#3C3738" transform="translate(300,913)"/>
<path d="M0 0 C6.71997689 5.11332961 9.55255631 12.52079517 10.94140625 20.6796875 C12.17098866 30.00156471 12.10500401 39.36386357 12.109375 48.74609375 C12.11259862 50.39118985 12.11596347 52.03628568 12.11946106 53.68138123 C12.12541754 57.11807925 12.12730468 60.55475226 12.12670898 63.99145508 C12.12660782 68.34228726 12.14022813 72.69295458 12.15748119 77.0437479 C12.16873792 80.44063517 12.17062402 83.83748437 12.17009926 87.23438835 C12.17126015 88.83555605 12.17557195 90.43672539 12.18343163 92.03787422 C12.22131397 100.55491014 11.95716908 108.94521638 11.03637695 117.41772461 C10.91686944 118.52363496 10.91686944 118.52363496 10.79494762 119.65188694 C9.69176886 128.88141616 7.23757946 137.49820742 -0.05859375 143.6796875 C-10.16692706 150.60738145 -24.01841467 151.08527504 -35.74609375 149.0546875 C-41.12367856 147.68784312 -47.10766727 144.63061398 -51.05859375 140.6796875 C-51.38859375 154.5396875 -51.71859375 168.3996875 -52.05859375 182.6796875 C-58.65859375 182.6796875 -65.25859375 182.6796875 -72.05859375 182.6796875 C-72.05859375 121.2996875 -72.05859375 59.9196875 -72.05859375 -3.3203125 C-65.78859375 -3.3203125 -59.51859375 -3.3203125 -53.05859375 -3.3203125 C-52.72859375 -0.3503125 -52.39859375 2.6196875 -52.05859375 5.6796875 C-51.37796875 4.7721875 -50.69734375 3.8646875 -49.99609375 2.9296875 C-39.15677153 -10.09597529 -13.06102283 -8.37689889 0 0 Z M-48.05859375 14.6796875 C-52.04570008 21.19196117 -52.20992396 27.30517585 -52.21972656 34.7175293 C-52.22469147 35.61903214 -52.22965637 36.52053497 -52.23477173 37.44935608 C-52.24935184 40.42588064 -52.25618911 43.40235187 -52.26171875 46.37890625 C-52.26747444 48.45530701 -52.27323212 50.53170777 -52.2789917 52.60810852 C-52.28949046 56.96164191 -52.29534022 61.31515691 -52.29882812 65.66870117 C-52.30430473 71.22897514 -52.32831982 76.78900323 -52.35680008 82.34920025 C-52.37548762 86.63964024 -52.38063535 90.93002179 -52.382164 95.22049904 C-52.3851782 97.2692785 -52.39316476 99.31805724 -52.40634918 101.36679649 C-52.42353474 104.24300837 -52.42149885 107.11862971 -52.41503906 109.99487305 C-52.42425385 110.83003448 -52.43346863 111.66519592 -52.44296265 112.52566528 C-52.39728826 119.06581599 -51.77035456 126.54387165 -47.34318924 131.66334057 C-41.02233554 137.45840857 -34.19396041 137.11349689 -25.9921875 136.94921875 C-21.14726732 136.61724309 -17.70201709 135.96428885 -14.05859375 132.6796875 C-7.94401301 125.56145083 -7.90830016 117.68083442 -7.91333008 108.69018555 C-7.90997147 107.81765137 -7.90661285 106.94511719 -7.90315247 106.04614258 C-7.89369775 103.17788242 -7.89170211 100.30968099 -7.890625 97.44140625 C-7.88740858 95.43512448 -7.88404422 93.42884294 -7.88053894 91.42256165 C-7.87456135 87.2222133 -7.87269763 83.0218855 -7.87329102 78.8215332 C-7.87339255 73.45866616 -7.85974306 68.09593177 -7.84251881 62.73309612 C-7.83136034 58.59020898 -7.82937299 54.44735352 -7.82990074 50.3044529 C-7.82872632 48.32825069 -7.82433498 46.35204751 -7.81656837 44.37586021 C-7.80669071 41.60293859 -7.80967699 38.83029994 -7.81567383 36.05737305 C-7.81005432 35.25340591 -7.80443481 34.44943878 -7.79864502 33.62110901 C-7.84272961 25.53547667 -8.29417564 17.16300237 -14.15625 11.0859375 C-24.60555473 3.36160546 -39.63028397 5.26770231 -48.05859375 14.6796875 Z " fill="#3C3738" transform="translate(837.05859375,945.3203125)"/>
<path d="M0 0 C1.14388184 -0.0103125 2.28776367 -0.020625 3.46630859 -0.03125 C15.39367701 0.09261709 25.74775931 2.34760315 34.6875 10.5625 C39.58913719 18.91343743 39.80214066 28.18119167 39.71557617 37.61987305 C39.71623329 39.52422874 39.71623329 39.52422874 39.71690369 41.46705627 C39.7177565 44.9127072 39.70024827 48.3580381 39.67918181 51.80361533 C39.66029432 55.41771003 39.65865514 59.03181388 39.65510559 62.64595032 C39.64582029 69.47385243 39.62125472 76.30160864 39.59105712 83.1294468 C39.55740294 90.90946065 39.54099954 98.68948185 39.52597082 106.46955049 C39.49470154 122.4589535 39.44139853 138.44820211 39.375 154.4375 C33.105 154.4375 26.835 154.4375 20.375 154.4375 C19.715 150.1475 19.055 145.8575 18.375 141.4375 C17.6325 142.46875 16.89 143.5 16.125 144.5625 C9.79466733 151.95788864 -0.60509022 155.83704115 -10.13671875 156.65234375 C-19.38613374 156.98220876 -29.39618332 155.60844107 -36.625 149.4375 C-43.49992633 142.72245568 -44.84763523 134.8177116 -45.05859375 125.41015625 C-45.08115889 123.19328247 -45.08380124 120.97793766 -45.07104492 118.76098633 C-45.06252663 116.50704708 -45.0913946 114.2556441 -45.12304688 112.00195312 C-45.17415217 101.74150657 -44.38587253 91.5448112 -37 83.6875 C-28.34301038 74.96359645 -17.79062793 69.75637646 -6.90234375 64.33203125 C8.38116477 56.72389276 8.38116477 56.72389276 18.375 43.4375 C18.78535128 40.13462813 18.69943772 36.825848 18.6875 33.5 C18.70361328 32.60603516 18.71972656 31.71207031 18.73632812 30.79101562 C18.73999517 25.85151034 18.61377352 22.42785493 15.375 18.4375 C9.97976289 13.45728113 5.64447851 13.23993654 -1.5 13.1875 C-2.19480469 13.166875 -2.88960938 13.14625 -3.60546875 13.125 C-8.38326472 13.08900907 -11.58302022 13.90076788 -15.625 16.4375 C-22.08243018 24.1505416 -21.97479218 33.35109422 -22.25 42.9375 C-22.28867187 44.04609375 -22.32734375 45.1546875 -22.3671875 46.296875 C-22.46074921 49.01016449 -22.5439306 51.72380853 -22.625 54.4375 C-28.895 54.4375 -35.165 54.4375 -41.625 54.4375 C-42.1460743 20.56767055 -42.1460743 20.56767055 -33.8203125 10.1875 C-24.12831552 0.53100484 -12.96309223 0.0981654 0 0 Z M14.8671875 65.1328125 C10.62791914 68.35239048 6.20062624 70.83928152 1.5 73.3125 C-14.43132181 81.82386471 -14.43132181 81.82386471 -24.21386719 96.34423828 C-25.63467065 102.06642992 -25.92923878 107.56163238 -25.875 113.4375 C-25.88273437 114.27539062 -25.89046875 115.11328125 -25.8984375 115.9765625 C-25.87332488 124.08793796 -25.18360326 132.14750157 -19.625 138.4375 C-13.80238664 142.85607894 -7.71719018 143.25662723 -0.625 142.4375 C5.41534165 141.3498161 9.01920882 138.48560414 12.8359375 133.75390625 C17.66748214 126.48206368 19.50924264 118.55092282 19.48852539 109.89111328 C19.48844986 108.83046661 19.48837433 107.76981995 19.48829651 106.67703247 C19.48313522 105.54868988 19.47797394 104.42034729 19.47265625 103.2578125 C19.47053383 101.50596146 19.47053383 101.50596146 19.46836853 99.71871948 C19.46278498 95.99995326 19.45023544 92.28124793 19.4375 88.5625 C19.43248288 86.0364592 19.42792034 83.51041746 19.42382812 80.984375 C19.41282093 74.80206267 19.39609913 68.61978569 19.375 62.4375 C17.55794403 62.4375 16.24150902 64.04975596 14.8671875 65.1328125 Z " fill="#3C3738" transform="translate(463.625,938.5625)"/>
<path d="M0 0 C6.01397723 5.54065495 8.7031176 13.47529066 9.37732887 21.51310158 C9.45258877 24.00384072 9.46925139 26.48786653 9.4621582 28.97973633 C9.46726913 29.91908524 9.47238007 30.85843414 9.47764587 31.82624817 C9.49147196 34.9115752 9.49059015 37.99667704 9.48828125 41.08203125 C9.49217241 43.24143048 9.49650794 45.40082895 9.50126648 47.56022644 C9.50871399 52.07997115 9.50844834 56.59963772 9.50317383 61.11938477 C9.49738551 66.88911883 9.51430216 72.65853123 9.5375185 78.42821217 C9.55230738 82.88683417 9.55312046 87.34537965 9.55000877 91.80402184 C9.55051954 93.93011804 9.55571087 96.0562188 9.56582069 98.18229103 C9.68356259 126.40800968 9.68356259 126.40800968 1.1875 137.25 C-10.23230415 147.40340564 -25.2557313 148.05471772 -39.8125 147.25 C-50.76021564 145.71979514 -60.08650721 143.43871265 -67.2734375 134.66015625 C-73.05665502 125.60369633 -73.9589265 114.87159475 -73.97363281 104.39990234 C-73.98108017 103.11295975 -73.98108017 103.11295975 -73.98867798 101.80001831 C-74.00320909 98.97864968 -74.01008731 96.15733731 -74.015625 93.3359375 C-74.01845238 92.36565235 -74.02127975 91.3953672 -74.02419281 90.39567947 C-74.03915072 85.25841248 -74.04840097 80.12117332 -74.05273438 74.98388672 C-74.05820636 69.70869462 -74.08221735 64.43376227 -74.11070633 59.15865135 C-74.12944148 55.074832 -74.13454412 50.99107379 -74.13607025 46.90721512 C-74.13907405 44.96418466 -74.14702452 43.02115469 -74.16025543 41.07816696 C-74.34441691 11.94909041 -74.34441691 11.94909041 -64.8125 1.25 C-49.50702986 -13.72632025 -16.30993277 -12.68933459 0 0 Z M-48.625 9.875 C-53.39514217 16.38184189 -54.2578609 23.91968583 -54.20068359 31.7578125 C-54.20594055 32.66150574 -54.21119751 33.56519897 -54.21661377 34.49627686 C-54.22971782 37.45603191 -54.22110984 40.41524036 -54.2109375 43.375 C-54.21296099 45.44808047 -54.21587472 47.52116024 -54.21963501 49.59423828 C-54.22404538 53.92812919 -54.21766879 58.26183395 -54.20361328 62.59570312 C-54.18652231 68.13358378 -54.19637039 73.67102815 -54.21433067 79.20889282 C-54.22520329 83.48644257 -54.22170622 87.76388994 -54.2139473 92.04144287 C-54.2119549 94.08266248 -54.21437057 96.12389157 -54.22138596 98.1651001 C-54.22905782 101.02437749 -54.21731626 103.88296137 -54.20068359 106.7421875 C-54.20675629 107.57466003 -54.21282898 108.40713257 -54.21908569 109.26483154 C-54.14482541 116.20233327 -52.80001764 122.92995388 -48.625 128.625 C-42.72104555 134.13535749 -36.63082429 134.7708257 -28.71484375 134.53125 C-23.10150114 133.98729217 -18.78885424 132.69073468 -14.9375 128.4375 C-9.77626121 120.69564181 -9.66170584 111.82897066 -9.66723633 102.80541992 C-9.66387772 102.002621 -9.6605191 101.19982208 -9.65705872 100.37269592 C-9.64762846 97.74193741 -9.64560963 95.11124307 -9.64453125 92.48046875 C-9.6413132 90.63495356 -9.63794872 88.78943862 -9.63444519 86.94392395 C-9.62847375 83.08329681 -9.62660325 79.22269198 -9.62719727 75.36206055 C-9.62729878 70.43987005 -9.61364849 65.51782413 -9.59642506 60.59566784 C-9.58525132 56.78558203 -9.5832797 52.97553058 -9.58380699 49.16543007 C-9.58263489 47.351937 -9.57825689 45.5384428 -9.57047462 43.72496605 C-9.02206816 25.56843701 -9.02206816 25.56843701 -15.8125 9.25 C-25.00705553 1.81610404 -39.85547111 1.69010637 -48.625 9.875 Z " fill="#3C3738" transform="translate(945.8125,947.75)"/>
<path d="M0 0 C6.65172217 4.52264211 10.54279691 10.38763434 12.30880737 18.23220825 C14.48475606 31.18407335 13.99932372 44.27729498 13.9453125 57.3671875 C13.94157666 60.03761118 13.93863382 62.70802408 13.93673706 65.37844849 C13.93056211 71.6537257 13.91420626 77.92893183 13.89403808 84.20417798 C13.87155374 91.35792357 13.86065439 98.51167286 13.85064721 105.66544509 C13.82983568 120.36033365 13.79432786 135.05516322 13.75 149.75 C7.15 149.75 0.55 149.75 -6.25 149.75 C-6.25586624 148.24378082 -6.26173248 146.73756165 -6.26777649 145.18569946 C-6.32505421 130.97290497 -6.39766709 116.76028006 -6.48571491 102.54764748 C-6.53058809 95.24125236 -6.57002202 87.93490507 -6.59643555 80.62841797 C-6.6194846 74.25648932 -6.65295901 67.88471308 -6.69870156 61.51290548 C-6.72254126 58.14231543 -6.74133033 54.77187545 -6.74761391 51.40120316 C-6.75727353 47.62873328 -6.78535697 43.85680773 -6.81762695 40.08447266 C-6.81619186 38.97963531 -6.81475677 37.87479797 -6.8132782 36.73648071 C-6.89624491 29.85284223 -7.01863829 21.59774953 -11.66627979 16.06356239 C-18.37643961 10.23324051 -26.90500556 11.1750496 -35.25 11.75 C-40.98519561 13.15006246 -44.1514884 16.21362133 -47.33984375 21.06640625 C-49.13137834 24.38036079 -49.38209763 27.1277935 -49.40821838 30.81828308 C-49.42290161 32.38950172 -49.42290161 32.38950172 -49.43788147 33.99246216 C-49.44363693 35.14116791 -49.4493924 36.28987366 -49.45532227 37.47338867 C-49.47017166 39.28820992 -49.47017166 39.28820992 -49.48532104 41.13969421 C-49.51151452 44.45758731 -49.5333742 47.77545627 -49.55332303 51.09338927 C-49.57518984 54.56076506 -49.60257513 58.02809712 -49.62937927 61.49543762 C-49.67929676 68.06143412 -49.72423909 74.62745491 -49.76740164 81.19349891 C-49.81678208 88.66866669 -49.87169722 96.14379058 -49.92708123 103.61891592 C-50.04088678 118.99590364 -50.1475326 134.37293231 -50.25 149.75 C-56.85 149.75 -63.45 149.75 -70.25 149.75 C-70.25 99.92 -70.25 50.09 -70.25 -1.25 C-64.64 -1.25 -59.03 -1.25 -53.25 -1.25 C-52.40271797 2.98641013 -52.16615922 6.47412002 -52.25 10.75 C-51.59 10.75 -50.93 10.75 -50.25 10.75 C-50.085 10.04875 -49.92 9.3475 -49.75 8.625 C-46.32701976 2.06428787 -39.2435511 -1.29010827 -32.4453125 -3.5625 C-21.92376921 -5.82630394 -9.45551459 -5.445676 0 0 Z " fill="#3C3738" transform="translate(1103.25,943.25)"/>
<path d="M0 0 C1.39456867 0.00574201 2.78910972 0.01875397 4.18359375 0.03515625 C6.63796875 0.05578125 9.09234375 0.07640625 11.62109375 0.09765625 C11.62109375 9.33765625 11.62109375 18.57765625 11.62109375 28.09765625 C22.18109375 28.09765625 32.74109375 28.09765625 43.62109375 28.09765625 C43.62109375 32.05765625 43.62109375 36.01765625 43.62109375 40.09765625 C33.06109375 40.09765625 22.50109375 40.09765625 11.62109375 40.09765625 C11.68404232 54.56261113 11.75947891 69.02735363 11.85680866 83.49211884 C11.90170336 90.2089226 11.9411324 96.92567409 11.9675293 103.64257812 C11.99356712 110.12659582 12.03397369 116.61038031 12.08428001 123.09425354 C12.10094534 125.56609697 12.11246168 128.03798072 12.11870766 130.50987244 C12.128352 133.97623046 12.1564169 137.44199231 12.1887207 140.90820312 C12.18728561 141.92672363 12.18585052 142.94524414 12.18437195 143.99462891 C12.26392638 150.04383278 13.05107179 154.59445945 15.62109375 160.09765625 C19.20954327 163.57396672 22.63154062 164.22486566 27.5078125 164.1953125 C28.91450195 164.19047852 28.91450195 164.19047852 30.34960938 164.18554688 C31.81430664 164.17297852 31.81430664 164.17297852 33.30859375 164.16015625 C34.79069336 164.15338867 34.79069336 164.15338867 36.30273438 164.14648438 C38.74221333 164.13469945 41.18166116 164.11676408 43.62109375 164.09765625 C43.62109375 168.38765625 43.62109375 172.67765625 43.62109375 177.09765625 C29.50991473 179.95561656 13.69250668 181.78198663 0.80859375 174.03515625 C-4.70027068 169.75048392 -7.24957399 162.78793462 -8.37890625 156.09765625 C-8.46341233 154.43095534 -8.50096883 152.76141597 -8.49916077 151.09257507 C-8.50053543 150.10965988 -8.5019101 149.12674469 -8.50332642 148.11404419 C-8.49973114 147.0473349 -8.49613586 145.98062561 -8.49243164 144.8815918 C-8.49257767 143.74944748 -8.49272369 142.61730316 -8.49287415 141.45085144 C-8.49217797 137.71200641 -8.48439931 133.97321132 -8.4765625 130.234375 C-8.47469727 127.64077278 -8.47327386 125.0471702 -8.47227478 122.4535675 C-8.46884789 116.32676223 -8.46096787 110.19997754 -8.45092529 104.07318002 C-8.43973798 97.09617391 -8.43424711 90.11916694 -8.42922986 83.1421541 C-8.41878455 68.79397828 -8.40099938 54.44581854 -8.37890625 40.09765625 C-12.66890625 40.09765625 -16.95890625 40.09765625 -21.37890625 40.09765625 C-21.37890625 36.79765625 -21.37890625 33.49765625 -21.37890625 30.09765625 C-16.53609471 28.94116394 -12.35860398 28.03962627 -7.37890625 28.09765625 C-7.29326416 27.28498291 -7.20762207 26.47230957 -7.11938477 25.63500977 C-6.73125669 21.97622784 -6.33642359 18.31820051 -5.94140625 14.66015625 C-5.80669922 13.38076172 -5.67199219 12.10136719 -5.53320312 10.78320312 C-5.40107422 9.56826172 -5.26894531 8.35332031 -5.1328125 7.1015625 C-5.01236572 5.97564697 -4.89191895 4.84973145 -4.76782227 3.68969727 C-4.18500216 -0.19467252 -4.07840347 0.11787293 0 0 Z " fill="#3C3738" transform="translate(1156.37890625,913.90234375)"/>
<path d="M0 0 C6.6 0 13.2 0 20 0 C20.04638591 19.74146487 20.08203423 39.48291424 20.10362434 59.22442245 C20.11391744 68.39165864 20.12794 77.55886024 20.15087891 86.72607422 C20.17087319 94.72034837 20.18373072 102.71459746 20.18817699 110.70889592 C20.19077418 114.93804989 20.19683732 119.16713221 20.21146011 123.39626312 C20.22513964 127.38529748 20.22920191 131.37423138 20.22621536 135.36328697 C20.22676092 136.81922898 20.23067614 138.27517471 20.23841095 139.73109627 C20.37017 165.83536435 20.37017 165.83536435 12.27734375 174.9375 C5.12826098 181.75968634 -3.73751107 184.12100425 -13.484375 184.1328125 C-14.50144531 184.13410156 -15.51851562 184.13539063 -16.56640625 184.13671875 C-17.61699219 184.13285156 -18.66757812 184.12898438 -19.75 184.125 C-20.81605469 184.12886719 -21.88210938 184.13273437 -22.98046875 184.13671875 C-23.99238281 184.13542969 -25.00429688 184.13414062 -26.046875 184.1328125 C-26.97338867 184.13168457 -27.89990234 184.13055664 -28.85449219 184.12939453 C-31 184 -31 184 -32 183 C-32.07226502 181.14712498 -32.0838122 179.29166122 -32.0625 177.4375 C-32.05347656 176.42558594 -32.04445313 175.41367188 -32.03515625 174.37109375 C-32.01775391 173.19740234 -32.01775391 173.19740234 -32 172 C-30.88882813 171.97421875 -29.77765625 171.9484375 -28.6328125 171.921875 C-16.08970777 171.90288123 -16.08970777 171.90288123 -5 167 C-0.05177365 159.58279124 -0.42234279 152.09727715 -0.45410156 143.49609375 C-0.44535739 141.9284208 -0.43486867 140.36075677 -0.42277527 138.79310608 C-0.39499779 134.55604012 -0.39150875 130.31926658 -0.39249516 126.0821228 C-0.38935893 121.64713041 -0.36372598 117.21226833 -0.34051514 112.77734375 C-0.30000585 104.38756921 -0.27962637 95.99787231 -0.26654124 87.60801506 C-0.250654 78.05292369 -0.21223111 68.4979641 -0.17194796 58.9429493 C-0.08961843 39.29533995 -0.03628226 19.64774369 0 0 Z " fill="#3C3838" transform="translate(608,942)"/>
<path d="M0 0 C0 5.28 0 10.56 0 16 C-2.413125 15.938125 -4.82625 15.87625 -7.3125 15.8125 C-17.29684024 15.73339603 -27.23666717 17.1520715 -35 24 C-39.55648549 29.60186371 -41.10323047 34.77941093 -41.15821838 41.96711731 C-41.17290161 43.42886887 -41.17290161 43.42886887 -41.18788147 44.92015076 C-41.19363693 45.97750931 -41.1993924 47.03486786 -41.20532227 48.12426758 C-41.22017166 49.8078537 -41.22017166 49.8078537 -41.23532104 51.52545166 C-41.26688421 55.23179014 -41.2916731 58.93814142 -41.31640625 62.64453125 C-41.33698024 65.21571687 -41.35797683 67.78689914 -41.37937927 70.358078 C-41.42891583 76.43172791 -41.47419306 82.50539586 -41.51740164 88.57909364 C-41.5668446 95.49567449 -41.62173647 102.41220877 -41.67708123 109.32874453 C-41.79077471 123.55245282 -41.89744781 137.77620731 -42 152 C-48.27 152 -54.54 152 -61 152 C-61 102.17 -61 52.34 -61 1 C-55.72 1 -50.44 1 -45 1 C-43.26394487 2.73605513 -43.34388018 5.20549496 -42.9375 7.5625 C-42.67259766 9.08037109 -42.67259766 9.08037109 -42.40234375 10.62890625 C-42.20318359 11.80259766 -42.20318359 11.80259766 -42 13 C-41.2575 11.948125 -40.515 10.89625 -39.75 9.8125 C-32.36600332 1.20944727 -10.73196018 -5.36598009 0 0 Z " fill="#3C3738" transform="translate(593,941)"/>
<path d="M0 0 C6.6 0 13.2 0 20 0 C20 49.83 20 99.66 20 151 C13.4 151 6.8 151 0 151 C0 101.17 0 51.34 0 0 Z " fill="#3D3839" transform="translate(658,942)"/>
<path d="M0 0 C6.27 0 12.54 0 19 0 C19 49.83 19 99.66 19 151 C12.73 151 6.46 151 0 151 C0 101.17 0 51.34 0 0 Z " fill="#3C3738" transform="translate(983,942)"/>
<path d="M0 0 C3.57527636 2.96671868 5.78247769 5.08580364 6.3125 9.75 C5.91993628 13.83266269 4.53100884 15.81816032 2 19 C-2.02702057 21.68468038 -5.2684363 21.68187737 -10 21 C-13.60158026 18.85437772 -15.44119944 16.84785002 -17 13 C-17.21448131 9.87627223 -16.86811611 7.00799469 -16 4 C-11.33860885 -0.90672753 -6.45860536 -1.87589123 0 0 Z " fill="#3C3738" transform="translate(998,903)"/>
<path d="M0 0 C3.57527636 2.96671868 5.78247769 5.08580364 6.3125 9.75 C5.91753151 13.85767229 4.5942368 15.82926614 2 19 C-0.96585996 21.33031854 -4.23622643 21.47119441 -7.96484375 21.39453125 C-11.61727597 20.68647817 -13.43783808 18.62465368 -16 16 C-17.60430264 12.79139471 -17.48105318 9.4809543 -17 6 C-15.22210886 2.97100027 -13.73009767 1.4461708 -10.75 -0.375 C-6.95272078 -1.238018 -3.72550901 -1.18915237 0 0 Z " fill="#3C3738" transform="translate(674,903)"/>
<path d="M0 0 C2.76101146 1.82109266 4.52100548 3.04201097 6 6 C6.68128376 12.81283762 6.68128376 12.81283762 4.953125 15.82421875 C3.17156722 17.98828747 1.52390368 19.73804816 -1 21 C-5.73177192 21.39431433 -8.09400722 21.45299639 -12.375 19.3125 C-15.19441002 16.82873403 -16.23579089 15.65122129 -17 12 C-16.92056797 7.55180624 -16.48125269 5.58256905 -13.625 2.125 C-9.21352191 -1.44619655 -5.3374933 -1.37339009 0 0 Z " fill="#3C3738" transform="translate(623,903)"/>
</svg>
