<?xml version="1.0" encoding="UTF-8" standalone="no"?>
<!DOCTYPE svg PUBLIC "-//W3C//DTD SVG 1.1//EN" "http://www.w3.org/Graphics/SVG/1.1/DTD/svg11.dtd">
<svg width="100%" height="100%" viewBox="0 0 20 20" version="1.1" xmlns="http://www.w3.org/2000/svg" style="fill-rule:evenodd;clip-rule:evenodd;stroke-linejoin:round;stroke-miterlimit:1.41421;">
    <g transform="matrix(1,0,0,1,-0.997995,0.00015)">
        <path d="M10.998,14.166C11.234,14.166 11.432,14.086 11.592,13.927C11.752,13.767 11.832,13.569 11.832,13.333L11.832,9.979C11.832,9.743 11.752,9.548 11.592,9.396C11.432,9.243 11.234,9.166 10.998,9.166C10.762,9.166 10.564,9.246 10.405,9.406C10.245,9.566 10.165,9.764 10.165,10L10.165,13.354C10.165,13.59 10.245,13.785 10.405,13.937C10.564,14.09 10.762,14.166 10.998,14.166ZM10.998,7.5C11.234,7.5 11.432,7.42 11.592,7.26C11.752,7.1 11.832,6.903 11.832,6.667C11.832,6.43 11.752,6.232 11.592,6.072C11.432,5.913 11.234,5.833 10.998,5.833C10.762,5.833 10.564,5.913 10.405,6.072C10.245,6.232 10.165,6.43 10.165,6.667C10.165,6.903 10.245,7.1 10.405,7.26C10.564,7.42 10.762,7.5 10.998,7.5ZM10.998,18.333C9.845,18.333 8.761,18.114 7.747,17.677C6.733,17.239 5.851,16.646 5.101,15.896C4.351,15.146 3.757,14.264 3.32,13.25C2.882,12.236 2.663,11.153 2.663,10C2.663,8.847 2.882,7.764 3.32,6.75C3.757,5.736 4.351,4.854 5.101,4.104C5.851,3.354 6.733,2.76 7.747,2.322C8.761,1.885 9.845,1.667 10.998,1.667C12.151,1.667 13.235,1.885 14.249,2.322C15.263,2.76 16.145,3.354 16.895,4.104C17.645,4.854 18.239,5.736 18.676,6.75C19.114,7.764 19.333,8.847 19.333,10C19.333,11.153 19.114,12.236 18.676,13.25C18.239,14.264 17.645,15.146 16.895,15.896C16.145,16.646 15.263,17.239 14.249,17.677C13.235,18.114 12.151,18.333 10.998,18.333ZM10.998,16.667C12.846,16.667 14.419,16.017 15.718,14.719C17.017,13.42 17.666,11.847 17.666,10C17.666,8.153 17.017,6.58 15.718,5.281C14.419,3.982 12.846,3.333 10.998,3.333C9.15,3.333 7.577,3.982 6.279,5.281C4.98,6.58 4.33,8.153 4.33,10C4.33,11.847 4.98,13.42 6.279,14.719C7.577,16.017 9.15,16.667 10.998,16.667Z" style="fill:rgb(116,116,116);fill-rule:nonzero;"/>
    </g>
</svg>
