<svg xmlns="http://www.w3.org/2000/svg" version="1.1" xmlns:xlink="http://www.w3.org/1999/xlink" xmlns:svgjs="http://svgjs.dev/svgjs" width="1500" height="1500" viewBox="0 0 1500 1500"><g transform="matrix(1,0,0,1,0,0.0012006057070266252)"><svg viewBox="0 0 280 280" data-background-color="#ffffff" preserveAspectRatio="xMidYMid meet" height="1500" width="1500" xmlns="http://www.w3.org/2000/svg" xmlns:xlink="http://www.w3.org/1999/xlink"><g id="tight-bounds" transform="matrix(1,0,0,1,0,-0.00022411306531466835)"><svg viewBox="0 0 280 280" height="280" width="280"><g><svg viewBox="0 0 280 280" height="280" width="280"><g><svg viewBox="0 0 280 280" height="280" width="280"><g id="textblocktransform"><svg viewBox="0 0 280 280" height="280" width="280" id="textblock"><g><svg viewBox="0 0 280 280" height="280" width="280"><g transform="matrix(1,0,0,1,57.50420886156945,57.50420886156945)"><svg viewBox="0 0 164.9915822768611 164.9915822768611" height="164.9915822768611" width="164.9915822768611"><g id="icon-0"><circle r="82" cx="82.49579113843055" cy="82.49579113843055" fill="#ffffff" data-fill-palette-color="accent"></circle><svg xmlns="http://www.w3.org/2000/svg" xml:space="preserve" viewBox="-0.0015000000000096048 0.0010000000000016662 100.00150000000001 99.999" x="24.748737341529164" y="24.74873734152917" height="115.49410759380275" width="115.49410759380275" class="icon-jxe-0" data-fill-palette-color="quaternary" id="jxe-0"><path d="M40.943 58.62c-4.442 0-8.394-1.69-11.75-5.02-6.725-6.671-9.787-19.044-9.787-27.715 0-1.913 0.271-3.835 0.808-5.714a1.674 1.674 0 0 1 2.08-1.157 1.683 1.683 0 0 1 1.157 2.082 17.5 17.5 0 0 0-0.679 4.789c0 8.25 3.02 19.598 8.792 25.323 2.731 2.712 5.913 4.055 9.49 4.043C54.75 55.143 59.36 35.04 59.36 25.885c0-1.66-0.242-3.254-0.717-4.737a1.683 1.683 0 0 1 1.087-2.118 1.69 1.69 0 0 1 2.118 1.09c0.584 1.815 0.879 3.755 0.879 5.765 0 10.624-5.292 32.605-21.646 32.733z" fill="#02704b" data-fill-palette-color="quaternary"></path><path d="M21.83 22.318a1.684 1.684 0 0 1-0.216-3.354c12.254-1.596 22.426-4.437 31.098-8.69a1.684 1.684 0 1 1 1.483 3.025c-9.008 4.415-19.522 7.361-32.144 9.004q-0.112 0.015-0.22 0.015" fill="#02704b" data-fill-palette-color="quaternary"></path><path d="M21.832 22.318a1.68 1.68 0 0 1-1.535-0.996c-2.675-5.971-1.233-10.316 0.446-12.91C24.157 3.147 31.753 0.002 41.067 0.002a1.683 1.683 0 0 1 0 3.368c-8.046 0-14.75 2.634-17.496 6.874-1.784 2.753-1.853 6.017-0.203 9.702a1.682 1.682 0 0 1-1.536 2.373" fill="#02704b" data-fill-palette-color="quaternary"></path><path d="M60.243 22.318a1.683 1.683 0 0 1-1.532-2.378c1.668-3.684 1.613-6.947-0.163-9.699-2.733-4.24-9.432-6.872-17.48-6.872a1.683 1.683 0 0 1 0-3.368c9.32 0 16.912 3.146 20.312 8.416 1.673 2.595 3.1 6.942 0.399 12.91-0.281 0.623-0.895 0.99-1.536 0.99" fill="#02704b" data-fill-palette-color="quaternary"></path><path d="M60.247 22.318q-0.045 0-0.092-0.003c-6.692-0.361-12.12-2.304-16.136-5.773a1.684 1.684 0 0 1 2.202-2.548c3.484 3.012 8.103 4.634 14.115 4.958a1.683 1.683 0 0 1-0.089 3.366M1.683 100C0.753 100 0 99.245 0 98.315c0-11.51 2.997-22.035 8.223-28.876 2.922-3.838 7.284-4.422 11.13-4.937 3.203-0.429 6.23-0.834 8.392-2.904 1.55-1.51 1.475-4.496 1.198-8.546a1.68 1.68 0 0 1 1.565-1.794c0.877-0.098 1.728 0.636 1.793 1.566 0.285 4.164 0.58 8.47-2.218 11.194-2.965 2.841-6.852 3.363-10.282 3.823-3.661 0.49-6.823 0.912-8.901 3.641C6.11 77.75 3.366 87.53 3.366 98.316c0 0.93-0.753 1.683-1.683 1.683M80.45 100c-0.93 0-1.684-0.754-1.684-1.684 0-10.803-2.764-20.58-7.582-26.825-2.084-2.737-5.232-3.16-8.878-3.65-3.418-0.46-7.29-0.98-10.245-3.812-2.753-2.678-2.527-6.865-2.287-11.295 0.051-0.932 0.858-1.657 1.772-1.59 0.928 0.049 1.642 0.843 1.59 1.771-0.196 3.646-0.383 7.089 1.263 8.693 2.153 2.061 5.166 2.466 8.355 2.895 3.833 0.515 8.178 1.099 11.102 4.94 5.258 6.813 8.277 17.34 8.277 28.873 0 0.93-0.753 1.683-1.684 1.683" fill="#02704b" data-fill-palette-color="quaternary"></path><path d="M80.45 100H1.682a1.683 1.683 0 1 1 0-3.367H80.45a1.683 1.683 0 1 1 0 3.366M41.067 72.488c-5.747 0-11.057-2.912-14.2-7.792a1.686 1.686 0 0 1 0.503-2.329 1.687 1.687 0 0 1 2.328 0.504c2.52 3.913 6.772 6.25 11.37 6.25 4.528 0 8.885-2.394 11.369-6.25a1.685 1.685 0 0 1 2.831 1.825c-3.097 4.807-8.54 7.792-14.2 7.792" fill="#02704b" data-fill-palette-color="quaternary"></path><path d="M23.032 100q-0.074 0-0.148-0.006a1.684 1.684 0 0 1-1.531-1.823c0.765-8.808 3.024-16.602 6.717-23.17a1.68 1.68 0 0 1 2.15-0.712c6.87 3.056 14.776 3.058 21.696-0.002a1.683 1.683 0 1 1 1.36 3.08c-7.309 3.23-15.597 3.429-22.98 0.597-3.038 5.868-4.916 12.756-5.589 20.498a1.684 1.684 0 0 1-1.675 1.537" fill="#02704b" data-fill-palette-color="quaternary"></path><path d="M59.044 100c-0.87 0-1.607-0.67-1.678-1.55-0.66-8.282-2.76-15.615-6.237-21.797A1.683 1.683 0 1 1 54.063 75c3.718 6.61 5.96 14.41 6.662 23.182a1.686 1.686 0 0 1-1.681 1.816M29.537 77.512c-0.71 0-1.37-0.452-1.601-1.164-1.376-4.228-2.454-8.06-2.96-10.512a1.686 1.686 0 0 1 1.31-1.99c0.924-0.195 1.801 0.4 1.99 1.31 0.226 1.105 0.962 4.306 2.861 10.15a1.68 1.68 0 0 1-1.08 2.122 1.7 1.7 0 0 1-0.52 0.084" fill="#02704b" data-fill-palette-color="quaternary"></path><path d="M52.596 77.512q-0.251 0-0.505-0.078a1.684 1.684 0 0 1-1.101-2.112c1.537-4.895 2.481-8.3 2.804-10.12a1.69 1.69 0 0 1 1.95-1.364 1.68 1.68 0 0 1 1.365 1.95c-0.352 1.99-1.304 5.44-2.906 10.544a1.69 1.69 0 0 1-1.607 1.18M48.771 90.124h-15.98a1.683 1.683 0 1 1 0-3.366h15.98a1.683 1.683 0 1 1 0 3.366M76.454 23.402c-0.486 0-0.97-0.21-1.302-0.616-0.785-0.957-1.09-2.067-0.885-3.21 0.708-3.954 7.333-7.831 21.846-16.328l1.351-0.79a1.685 1.685 0 0 1 1.703 2.906l-1.353 0.79c-11.06 6.475-19.797 11.59-20.232 14.015-0.017 0.099-0.04 0.22 0.174 0.481a1.684 1.684 0 0 1-1.302 2.752" fill="#02704b" data-fill-palette-color="quaternary"></path><path d="M78.243 24.3c-1.396 0-2.39-0.702-3.063-1.48a1.684 1.684 0 0 1 2.548-2.203c0.24 0.28 0.604 0.699 2.36-0.471a1.684 1.684 0 0 1 1.868 2.802c-1.471 0.981-2.698 1.352-3.713 1.352m6.088-3.694a1.682 1.682 0 0 1-1.148-2.915c3.08-2.875 7.183-7.445 12.376-13.23l1.504-1.676a1.684 1.684 0 0 1 2.505 2.251l-1.504 1.675c-5.248 5.847-9.395 10.466-12.585 13.442a1.68 1.68 0 0 1-1.148 0.453" fill="#02704b" data-fill-palette-color="quaternary"></path><path d="M62.585 61.074q-0.234 0.001-0.468-0.07a1.68 1.68 0 0 1-1.148-2.084c0.692-2.39 0.076-4.483-0.635-6.904-0.295-1.008-0.596-2.039-0.824-3.128-1.544-7.658 5.254-9.065 13.863-10.845 1.103-0.23 2.26-0.468 3.464-0.732 2.242-0.486 3.772-1.718 4.55-3.664 1.337-3.34 0.333-8.396-2.503-12.583a1.683 1.683 0 1 1 2.788-1.888c3.489 5.15 4.604 11.322 2.842 15.723-1.204 3.004-3.61 4.976-6.961 5.703-1.213 0.265-2.383 0.507-3.498 0.738-9.673 2-12.04 2.937-11.248 6.872 0.207 0.985 0.486 1.93 0.76 2.855 0.786 2.682 1.602 5.456 0.634 8.79a1.68 1.68 0 0 1-1.616 1.217" fill="#02704b" data-fill-palette-color="quaternary"></path><path d="M83.818 55.764c-4.85 0-16.124-0.458-16.124-4.707 0-4.251 11.275-4.71 16.124-4.71 4.865 0 16.18 0.459 16.18 4.71 0 4.25-11.315 4.707-16.18 4.707m-11.755-4.707c1.903 0.633 5.897 1.341 11.755 1.341 5.773 0 9.818-0.712 11.766-1.341-1.948-0.631-5.991-1.343-11.766-1.343-5.86 0-9.852 0.708-11.755 1.343M83.818 83.447h-1.37a1.683 1.683 0 1 1 0-3.367h1.37c5.8 0 9.855-0.717 11.792-1.35-0.562-0.193-1.367-0.412-2.507-0.62a1.68 1.68 0 0 1-1.353-1.957A1.677 1.677 0 0 1 93.71 74.8c4.292 0.78 6.29 2.033 6.29 3.938 0 4.252-11.316 4.71-16.181 4.71" fill="#02704b" data-fill-palette-color="quaternary"></path><path d="M92.835 78.31c-0.93 0-1.683-0.753-1.683-1.683V53.568a1.683 1.683 0 1 1 3.367 0v23.06c0 0.93-0.753 1.683-1.684 1.683M74.857 68.15c-0.93 0-1.683-0.753-1.683-1.683V53.568a1.683 1.683 0 1 1 3.366 0v12.9c0 0.93-0.753 1.682-1.683 1.682" fill="#02704b" data-fill-palette-color="quaternary"></path><path d="M74.855 61.587c-0.792 0-1.498-0.56-1.652-1.369a1.68 1.68 0 0 1 1.34-1.968l17.978-3.426a1.685 1.685 0 0 1 1.968 1.34 1.68 1.68 0 0 1-1.339 1.968l-17.978 3.425q-0.16 0.03-0.317 0.03M74.855 67.122c-0.792 0-1.498-0.56-1.652-1.369a1.68 1.68 0 0 1 1.34-1.968l17.978-3.423a1.68 1.68 0 0 1 1.968 1.339 1.68 1.68 0 0 1-1.339 1.968l-17.978 3.424q-0.16 0.03-0.317 0.029M77.537 72.146c-0.792 0-1.498-0.56-1.651-1.369a1.68 1.68 0 0 1 1.339-1.968l15.296-2.912a1.687 1.687 0 0 1 1.968 1.34 1.68 1.68 0 0 1-1.339 1.967l-15.296 2.913q-0.16 0.03-0.317 0.03M80.39 77.111a1.684 1.684 0 0 1-0.308-3.339l12.443-2.34a1.695 1.695 0 0 1 1.966 1.345 1.686 1.686 0 0 1-1.345 1.967l-12.443 2.34q-0.156 0.029-0.313 0.027" fill="#02704b" data-fill-palette-color="quaternary"></path></svg></g></svg></g><g id="text-0"><path d="M18.589 85.324v0l-1.137 3.171c-3.463-1.163-5.969 0.417-7.518 4.74v0c-0.632 1.763-0.743 3.327-0.333 4.691 0.41 1.365 1.268 2.281 2.573 2.749v0c0.979 0.351 1.873 0.306 2.681-0.133 0.811-0.446 1.709-1.391 2.695-2.836v0l3.861-5.679c2.477-3.594 5.397-4.788 8.761-3.582v0c2.428 0.87 4.058 2.545 4.89 5.023v0c0.708 2.194 0.486 4.896-0.665 8.109v0c-1.462 4.078-3.748 6.597-6.861 7.556v0c-1.675 0.504-3.638 0.381-5.889-0.369v0l1.133-3.162 0.076 0.027c1.914 0.686 3.626 0.56 5.137-0.379 1.514-0.944 2.692-2.593 3.536-4.945v0c0.773-2.158 0.995-3.892 0.663-5.2v0c-0.41-1.563-1.387-2.621-2.93-3.174v0c-1.964-0.704-3.927 0.409-5.89 3.337v0l-4.041 5.943c-2.115 3.115-4.756 4.105-7.925 2.97v0c-2.497-0.895-4.094-2.533-4.791-4.914v0c-0.616-2.076-0.44-4.462 0.527-7.16v0c1.372-3.827 3.469-6.163 6.291-7.006v0c1.643-0.495 3.226-0.469 4.751 0.078v0c0.069 0.025 0.204 0.073 0.405 0.145z" fill="#094849" data-fill-palette-color="primary"></path><path d="M25.597 72.04l2.086-3.54 2.222 1.309-2.086 3.54 11.516 6.786c0.408 0.24 0.835 0.303 1.282 0.187 0.447-0.116 0.803-0.397 1.067-0.845v0c0.254-0.431 0.534-1.143 0.842-2.138v0l2.607 1.13c-0.572 1.535-1.069 2.662-1.493 3.379v0c-1.313 2.228-2.879 2.806-4.699 1.733v0l-12.731-7.501-1.385 2.351-2.222-1.309 1.385-2.352-3.54-2.086 0.369-3.461z" fill="#094849" data-fill-palette-color="primary"></path><path d="M49.427 65.725l-8.568-14.224 2.177-2.662 13.153 22.324c1.483 2.556 1.457 4.773-0.078 6.651v0c-0.726 0.887-1.562 1.5-2.509 1.836v0l-1.753-2.247c0.615-0.341 1.118-0.752 1.511-1.232v0c0.793-0.97 0.843-2.057 0.148-3.261v0l-1.712-2.976-19.897-7.473 2.176-2.663z" fill="#094849" data-fill-palette-color="primary"></path><path d="M43.803 36.991l2.33-2.207 19.249 20.323-2.33 2.207z" fill="#094849" data-fill-palette-color="primary"></path><path d="M80.342 33.137l0.067 0.099-12.232 8.359c0.992 1.405 2.063 2.328 3.212 2.769v0c1.859 0.724 3.658 0.492 5.396-0.696v0c2.152-1.47 2.905-3.486 2.26-6.049v0l2.65-1.811c0.845 1.981 0.977 3.881 0.395 5.7-0.587 1.822-1.828 3.38-3.72 4.673v0c-2.52 1.722-5.035 2.177-7.544 1.365v0c-2.213-0.699-4.164-2.284-5.852-4.756v0c-1.955-2.862-2.705-5.618-2.249-8.271v0c0.414-2.301 1.699-4.188 3.856-5.662v0c1.568-1.072 3.207-1.638 4.916-1.7 1.709-0.062 3.27 0.385 4.682 1.341v0c1.218 0.814 2.606 2.361 4.163 4.639zM66.798 39.364l9.294-6.35c-0.985-1.442-2.209-2.317-3.671-2.626-1.46-0.318-2.856-0.022-4.188 0.888v0c-1.359 0.929-2.164 2.12-2.413 3.574-0.259 1.452 0.067 2.957 0.978 4.514z" fill="#094849" data-fill-palette-color="primary"></path><path d="M116.321 5.295l-1.149 24.708-3.615 1.028-14.075-20.383 6.41 22.561-3.241 0.92-7.651-26.926 4.741-1.347 14.667 21.15 1.162-25.648 4.78-1.358 7.651 26.927-3.27 0.929z" fill="#094849" data-fill-palette-color="primary"></path><path d="M149.648 17.13l0.003 0.12-14.812 0.353c0.068 1.718 0.463 3.076 1.187 4.071v0c1.165 1.619 2.801 2.403 4.906 2.354v0c2.605-0.062 4.335-1.343 5.189-3.844v0l3.208-0.077c-0.369 2.122-1.293 3.788-2.771 4.996-1.485 1.209-3.373 1.84-5.665 1.896v0c-3.052 0.073-5.409-0.914-7.071-2.962v0c-1.476-1.792-2.25-4.183-2.321-7.175v0c-0.083-3.465 0.789-6.186 2.616-8.162v0c1.599-1.705 3.705-2.588 6.317-2.651v0c1.899-0.045 3.582 0.371 5.049 1.25 1.468 0.878 2.534 2.103 3.198 3.674v0c0.579 1.346 0.901 3.399 0.967 6.157zM134.896 14.981l11.254-0.268c-0.042-1.746-0.592-3.146-1.65-4.201-1.052-1.062-2.384-1.573-3.997-1.534v0c-1.646 0.039-2.969 0.601-3.969 1.684-1.008 1.077-1.553 2.517-1.638 4.319z" fill="#094849" data-fill-palette-color="primary"></path><path d="M156.248 27.257l3.374-19.809 2.927 0.498-0.571 3.351c2.019-2.246 4.418-3.132 7.197-2.658v0c1.925 0.328 3.37 1.071 4.336 2.229 0.967 1.152 1.312 2.539 1.035 4.162v0l-2.539 14.911-3.115-0.53 2.324-13.64c0.201-1.183-0.006-2.185-0.624-3.007-0.612-0.814-1.548-1.329-2.81-1.543v0c-1.643-0.28-3.056 0.098-4.24 1.134-1.178 1.043-1.938 2.567-2.279 4.57v0l-1.851 10.871z" fill="#094849" data-fill-palette-color="primary"></path><path d="M197.499 24.012v0l-3.278-1.279c0.636-1.905-0.25-3.328-2.66-4.268v0c-1.236-0.482-2.302-0.627-3.2-0.434-0.907 0.197-1.516 0.696-1.829 1.497v0c-0.472 1.211 0.342 2.534 2.443 3.969v0l2.62 1.785c1.699 1.164 2.805 2.307 3.319 3.43 0.513 1.123 0.5 2.377-0.041 3.762v0c-0.693 1.776-1.933 2.909-3.72 3.399-1.787 0.49-3.857 0.276-6.21-0.642v0c-2.577-1.006-4.295-2.377-5.155-4.115v0c-0.73-1.43-0.81-2.985-0.239-4.665v0l3.39 1.323c-0.139 0.926-0.115 1.651 0.074 2.175v0c0.355 1.033 1.43 1.9 3.224 2.6v0c1.335 0.521 2.494 0.687 3.476 0.498 0.985-0.195 1.637-0.703 1.957-1.523v0c0.485-1.242-0.143-2.467-1.882-3.674v0l-2.545-1.756c-1.937-1.343-3.194-2.531-3.771-3.564v0c-0.656-1.179-0.69-2.523-0.101-4.031v0c0.661-1.695 1.836-2.789 3.524-3.283 1.685-0.487 3.621-0.304 5.806 0.549v0c2.285 0.892 3.835 2.155 4.649 3.789v0c0.705 1.42 0.755 2.906 0.149 4.458z" fill="#094849" data-fill-palette-color="primary"></path><path d="M240.779 37.518l-22.179 18.484-3.161-2.298 8.292-22.388-18.602 14.892-3.161-2.299 10.672-26.85 3.226 2.346-9.088 21.475 18.387-14.714 3.097 2.251-8.207 22.117 17.538-15.332z" fill="#094849" data-fill-palette-color="primary"></path><path d="M245.143 71.038l-0.093 0.076-9.413-11.441c-1.311 1.113-2.135 2.262-2.473 3.446v0c-0.556 1.916-0.164 3.687 1.174 5.313v0c1.656 2.012 3.731 2.583 6.225 1.714v0l2.039 2.478c-1.898 1.018-3.779 1.318-5.641 0.9-1.867-0.423-3.529-1.52-4.986-3.29v0c-1.939-2.357-2.616-4.821-2.03-7.392v0c0.5-2.267 1.905-4.351 4.216-6.253v0c2.676-2.202 5.356-3.194 8.038-2.975v0c2.328 0.207 4.323 1.32 5.983 3.337v0c1.207 1.467 1.917 3.049 2.131 4.746 0.214 1.697-0.093 3.291-0.92 4.783v0c-0.703 1.286-2.119 2.805-4.25 4.558zM237.736 58.102l7.152 8.693c1.348-1.109 2.111-2.406 2.289-3.89 0.187-1.483-0.232-2.847-1.257-4.093v0c-1.046-1.271-2.304-1.966-3.775-2.086-1.47-0.129-2.939 0.33-4.409 1.376z" fill="#094849" data-fill-palette-color="primary"></path><path d="M251.847 96.91v0l-2.283 1.201c-0.69-0.639-1.15-1.176-1.379-1.613v0c-0.971-1.846-0.658-3.291 0.939-4.334v0c-2.395-0.359-4.322-1.925-5.781-4.697v0c-1.005-1.911-1.256-3.677-0.753-5.297v0c0.433-1.41 1.378-2.498 2.835-3.265v0c1.657-0.872 3.248-0.955 4.771-0.251v0c0.858 0.4 2.087 1.534 3.688 3.403v0l4.376 5.12 1.505-0.747c1.775-0.934 1.959-2.74 0.55-5.418v0c-1.347-2.56-3.106-3.385-5.279-2.476v0l-1.513-2.875c1.606-0.755 3.013-0.994 4.221-0.718v0c2.049 0.488 3.795 2.104 5.238 4.847v0c2.343 4.453 1.901 7.529-1.326 9.226v0l-9.936 5.227c-0.873 0.459-1.109 1.069-0.709 1.83v0c0.047 0.088 0.242 0.295 0.585 0.619v0c0.119 0.111 0.202 0.184 0.251 0.218zM252.846 90.07l3.106-1.634-3.57-3.951c-1.281-1.419-2.302-2.321-3.061-2.705-0.756-0.378-1.526-0.361-2.311 0.052v0c-1.823 0.959-2.115 2.615-0.877 4.969v0c0.872 1.657 2.152 2.78 3.84 3.368v0c1.06 0.384 2.018 0.35 2.873-0.099z" fill="#094849" data-fill-palette-color="primary"></path><path d="M251.3 103.697l19.075-6.32 0.934 2.819-3.492 1.157c2.994 0.244 4.889 1.564 5.683 3.962v0c0.099 0.297 0.18 0.671 0.245 1.12v0l-3.113 1.031c-0.681-1.972-1.417-3.238-2.206-3.798v0c-1.444-1.031-3.514-1.1-6.209-0.207v0l-9.908 3.282z" fill="#094849" data-fill-palette-color="primary"></path><path d="M12.801 142.947c0-1.799 1.458-3.257 3.257-3.257 1.799 0 3.257 1.458 3.258 3.257 0 1.799-1.458 3.257-3.258 3.257-1.799 0-3.257-1.458-3.257-3.257z" fill="#094849" data-fill-palette-color="primary"></path><path d="M264.738 142.947c0-1.799 1.458-3.257 3.257-3.257 1.799 0 3.257 1.458 3.257 3.257 0 1.799-1.458 3.257-3.257 3.257-1.799 0-3.257-1.458-3.257-3.257z" fill="#094849" data-fill-palette-color="primary"></path></g><g id="text-1"><path d="M37.493 194.153v0l-1.158-3.217c3.46-1.33 4.402-4.184 2.827-8.561v0c-0.645-1.794-1.57-3.093-2.774-3.9-1.204-0.806-2.467-0.971-3.791-0.495v0c-0.991 0.357-1.661 0.973-2.012 1.85-0.346 0.868-0.441 2.188-0.285 3.96v0l0.648 6.938c0.379 4.418-1.137 7.241-4.549 8.469v0c-2.465 0.887-4.822 0.624-7.074-0.79v0c-1.976-1.258-3.55-3.518-4.724-6.779v0c-1.487-4.133-1.322-7.581 0.495-10.346v0c0.992-1.476 2.61-2.647 4.856-3.511v0l1.155 3.207-0.076 0.027c-1.944 0.7-3.202 1.907-3.775 3.622-0.581 1.711-0.442 3.761 0.418 6.15v0c0.79 2.195 1.737 3.696 2.842 4.503v0c1.33 0.959 2.779 1.157 4.346 0.592v0c1.994-0.718 2.815-2.855 2.464-6.411v0l-0.672-7.27c-0.358-3.809 1.068-6.292 4.279-7.448v0c2.54-0.914 4.851-0.662 6.933 0.756v0c1.823 1.228 3.228 3.212 4.215 5.952v0c1.397 3.882 1.261 7.065-0.409 9.551v0c-0.967 1.446-2.222 2.447-3.765 3.002v0c-0.075 0.027-0.213 0.077-0.414 0.149z" fill="#094849" data-fill-palette-color="primary"></path><path d="M43.125 203.702l2.12 3.589-2.255 1.333-2.121-3.59-11.688 6.906c-0.413 0.244-0.676 0.593-0.788 1.046-0.121 0.451-0.046 0.906 0.226 1.364v0c0.254 0.43 0.747 1.029 1.479 1.797v0l-2.278 1.764c-1.086-1.262-1.845-2.258-2.276-2.987v0c-1.332-2.255-1.075-3.929 0.773-5.02v0l12.92-7.633-1.414-2.392 2.256-1.333 1.413 2.393 3.589-2.12 2.898 2.015z" fill="#094849" data-fill-palette-color="primary"></path><path d="M40.75 227.334l15.883-5.659 2.209 2.701-24.866 8.603c-2.843 0.957-5.043 0.483-6.6-1.42v0c-0.739-0.903-1.178-1.861-1.318-2.874v0l2.587-1.29c0.211 0.679 0.518 1.264 0.919 1.754v0c0.806 0.985 1.878 1.253 3.216 0.805v0l3.301-1.112 11.448-18.293 2.216 2.708z" fill="#094849" data-fill-palette-color="primary"></path><path d="M68.622 222.599l2.365 2.243-19.561 20.62-2.365-2.243z" fill="#094849" data-fill-palette-color="primary"></path><path d="M79.387 254.115l-0.067 0.099-12.411-8.506c-0.965 1.455-1.443 2.813-1.433 4.071v0c-0.007 2.015 0.874 3.629 2.644 4.843v0c2.183 1.496 4.366 1.469 6.551-0.08v0l2.688 1.843c-1.561 1.524-3.312 2.344-5.25 2.461-1.944 0.114-3.876-0.487-5.795-1.802v0c-2.556-1.752-3.912-3.966-4.066-6.641v0c-0.151-2.35 0.635-4.781 2.357-7.293v0c1.99-2.903 4.322-4.621 6.999-5.154v0c2.335-0.46 4.594 0.058 6.776 1.554v0c1.594 1.093 2.734 2.436 3.42 4.029 0.691 1.597 0.84 3.242 0.447 4.936v0c-0.32 1.445-1.273 3.325-2.86 5.64zM68.511 243.582l9.434 6.466c1.002-1.462 1.383-2.943 1.142-4.442-0.241-1.499-1.038-2.711-2.391-3.638v0c-1.374-0.942-2.796-1.266-4.266-0.973-1.47 0.294-2.776 1.156-3.919 2.587z" fill="#094849" data-fill-palette-color="primary"></path><path d="M123.603 254.595l-14.239 20.687-3.671-1.053-1.212-25.124-6.571 22.889-3.277-0.941 7.843-27.318 4.804 1.379 1.305 26.107 14.762-21.495 4.843 1.391-7.843 27.319-3.315-0.952z" fill="#094849" data-fill-palette-color="primary"></path><path d="M149.527 270.426l-0.004 0.12-15.04-0.387c-0.018 1.746 0.319 3.145 1.012 4.196v0c1.09 1.695 2.707 2.57 4.852 2.625v0c2.645 0.068 4.463-1.142 5.454-3.629v0l3.258 0.084c-0.481 2.128-1.504 3.768-3.067 4.921-1.57 1.153-3.517 1.7-5.842 1.64v0c-3.098-0.08-5.439-1.2-7.024-3.362v0c-1.405-1.89-2.068-4.357-1.99-7.401v0c0.091-3.518 1.114-6.228 3.07-8.132v0c1.709-1.656 3.887-2.45 6.531-2.382v0c1.932 0.05 3.619 0.557 5.062 1.521 1.449 0.964 2.469 2.264 3.059 3.899v0c0.518 1.387 0.74 3.483 0.669 6.287zM134.671 267.504l11.433 0.294c0.046-1.772-0.44-3.222-1.458-4.348-1.018-1.126-2.346-1.711-3.985-1.752v0c-1.666-0.043-3.035 0.459-4.109 1.504-1.074 1.046-1.701 2.48-1.881 4.302z" fill="#094849" data-fill-palette-color="primary"></path><path d="M159.287 278.641l-3.385-20.122 2.977-0.501 0.574 3.411c1.186-2.835 3.188-4.49 6.008-4.964v0c1.959-0.329 3.592-0.101 4.901 0.686 1.315 0.786 2.111 2 2.387 3.643v0l2.549 15.153-3.175 0.534-2.332-13.861c-0.201-1.196-0.732-2.083-1.593-2.662-0.862-0.585-1.934-0.77-3.216-0.554v0c-1.669 0.281-2.897 1.119-3.682 2.515-0.779 1.395-0.998 3.108-0.657 5.139v0l1.858 11.042z" fill="#094849" data-fill-palette-color="primary"></path><path d="M194.072 253.415v0l-3.327 1.291c-0.837-1.863-2.476-2.321-4.919-1.373v0c-1.261 0.489-2.162 1.117-2.7 1.883-0.541 0.76-0.654 1.548-0.339 2.362v0c0.48 1.237 1.996 1.671 4.548 1.303v0l3.183-0.473c2.075-0.29 3.69-0.191 4.845 0.297 1.155 0.489 2.004 1.435 2.549 2.84v0c0.699 1.802 0.547 3.502-0.457 5.099-0.997 1.595-2.692 2.856-5.084 3.784v0c-2.616 1.015-4.841 1.166-6.675 0.455v0c-1.53-0.572-2.658-1.682-3.383-3.331v0l3.439-1.334c0.534 0.787 1.052 1.311 1.554 1.574v0c0.971 0.531 2.37 0.443 4.197-0.266v0c1.355-0.525 2.335-1.195 2.942-2.009 0.604-0.82 0.743-1.65 0.417-2.489v0c-0.487-1.255-1.794-1.742-3.922-1.46v0l-3.109 0.445c-2.377 0.322-4.136 0.293-5.277-0.087v0c-1.298-0.433-2.243-1.414-2.836-2.943v0c-0.67-1.727-0.543-3.353 0.382-4.877 0.931-1.526 2.505-2.72 4.724-3.58v0c2.318-0.899 4.345-1.017 6.082-0.354v0c1.499 0.584 2.554 1.665 3.166 3.243z" fill="#094849" data-fill-palette-color="primary"></path><path d="M219.628 219.021l10.876 27.222-3.221 2.336-19.006-15.052 8.534 22.647-3.213 2.33-22.57-18.741 3.277-2.377 17.879 15.525-8.426-22.38 3.148-2.284 18.777 14.873-9.3-21.746z" fill="#094849" data-fill-palette-color="primary"></path><path d="M246.485 215.82l0.092 0.076-9.564 11.615c1.365 1.089 2.675 1.685 3.93 1.786v0c2.006 0.185 3.692-0.552 5.056-2.208v0c1.682-2.043 1.848-4.22 0.497-6.533v0l2.071-2.516c1.38 1.689 2.044 3.505 1.991 5.447-0.058 1.947-0.826 3.818-2.305 5.614v0c-1.97 2.392-4.294 3.548-6.973 3.466v0c-2.354-0.056-4.706-1.052-7.057-2.989v0c-2.717-2.237-4.223-4.712-4.519-7.425v0c-0.253-2.367 0.462-4.571 2.144-6.613v0c1.229-1.492 2.667-2.51 4.314-3.053 1.651-0.548 3.304-0.552 4.956-0.011v0c1.412 0.446 3.2 1.56 5.366 3.344zM235.036 225.728l7.27-8.829c-1.369-1.127-2.81-1.636-4.324-1.527-1.514 0.109-2.792 0.796-3.834 2.061v0c-1.059 1.286-1.507 2.674-1.344 4.165 0.163 1.49 0.907 2.867 2.232 4.13z" fill="#094849" data-fill-palette-color="primary"></path><path d="M265.006 195.767v0l2.318 1.221c-0.136 0.945-0.322 1.642-0.558 2.09v0c-0.984 1.869-2.375 2.436-4.173 1.701v0c1.077 2.217 0.877 4.729-0.601 7.536v0c-1.025 1.946-2.359 3.172-4.004 3.676v0c-1.431 0.444-2.884 0.278-4.358-0.498v0c-1.687-0.888-2.673-2.168-2.96-3.841v0c-0.156-0.948 0.09-2.631 0.736-5.047v0l1.771-6.603-1.494-0.832c-1.805-0.95-3.423-0.066-4.854 2.652v0c-1.369 2.601-1.047 4.548 0.969 5.843v0l-1.538 2.919c-1.555-0.909-2.563-1.949-3.024-3.118v0c-0.778-1.999-0.434-4.39 1.032-7.173v0c2.379-4.517 5.207-5.913 8.486-4.186v0l10.084 5.31c0.89 0.469 1.539 0.317 1.946-0.456v0c0.05-0.094 0.109-0.379 0.179-0.855v0c0.027-0.166 0.042-0.279 0.043-0.339zM258.707 198.868l-3.158-1.663-1.246 5.264c-0.457 1.883-0.624 3.253-0.503 4.108 0.113 0.858 0.568 1.497 1.364 1.916v0c1.852 0.975 3.406 0.268 4.664-2.12v0c0.888-1.687 1.09-3.407 0.605-5.161v0c-0.284-1.106-0.859-1.887-1.726-2.344z" fill="#094849" data-fill-palette-color="primary"></path><path d="M270.465 188.721l-19.363-6.435 0.952-2.866 3.539 1.177c-2.288-2.011-3.027-4.237-2.215-6.679v0c0.099-0.297 0.258-0.648 0.476-1.053v0l3.169 1.053c-0.643 2.02-0.815 3.497-0.515 4.433v0c0.547 1.713 2.19 3.025 4.929 3.935v0l10.056 3.343z" fill="#094849" data-fill-palette-color="primary"></path></g></svg></g></svg></g></svg></g></svg></g><defs></defs></svg><rect width="280" height="280" fill="none" stroke="none" visibility="hidden"></rect></g></svg></g></svg>