<svg width="100%" height="100%" viewBox="0 0 24 24" version="1.1" xmlns="http://www.w3.org/2000/svg" style="fill-rule:evenodd;clip-rule:evenodd;stroke-linejoin:round;stroke-miterlimit:1.41421;">
    <path d="M12,13C11.717,13 11.479,12.904 11.288,12.712C11.096,12.521 11,12.283 11,12L11,4C11,3.717 11.096,3.479 11.288,3.287C11.479,3.096 11.717,3 12,3C12.283,3 12.521,3.096 12.713,3.287C12.904,3.479 13,3.717 13,4L13,12C13,12.283 12.904,12.521 12.713,12.712C12.521,12.904 12.283,13 12,13ZM12,21C10.75,21 9.579,20.763 8.488,20.288C7.396,19.813 6.446,19.171 5.638,18.362C4.829,17.554 4.187,16.604 3.712,15.512C3.237,14.421 3,13.25 3,12C3,10.85 3.208,9.75 3.625,8.7C4.042,7.65 4.642,6.7 5.425,5.85C5.608,5.65 5.842,5.55 6.125,5.55C6.408,5.55 6.65,5.65 6.85,5.85C7.033,6.033 7.117,6.262 7.1,6.537C7.083,6.812 6.983,7.058 6.8,7.275C6.217,7.925 5.771,8.654 5.463,9.462C5.154,10.271 5,11.117 5,12C5,13.95 5.679,15.604 7.038,16.962C8.396,18.321 10.05,19 12,19C13.95,19 15.604,18.321 16.962,16.962C18.321,15.604 19,13.95 19,12C19,11.117 18.842,10.263 18.525,9.438C18.208,8.613 17.758,7.875 17.175,7.225C16.992,7.025 16.896,6.792 16.888,6.525C16.879,6.258 16.967,6.033 17.15,5.85C17.35,5.65 17.592,5.55 17.875,5.55C18.158,5.55 18.392,5.65 18.575,5.85C19.358,6.7 19.958,7.65 20.375,8.7C20.792,9.75 21,10.85 21,12C21,13.25 20.763,14.421 20.288,15.512C19.813,16.604 19.171,17.554 18.363,18.362C17.554,19.171 16.604,19.813 15.513,20.288C14.421,20.763 13.25,21 12,21Z" style="fill:rgb(78,78,78);fill-rule:nonzero;"/>
</svg>
