<svg xmlns="http://www.w3.org/2000/svg" version="1.1" xmlns:xlink="http://www.w3.org/1999/xlink" xmlns:svgjs="http://svgjs.dev/svgjs" width="1500" height="272" viewBox="0 0 1500 272">
	<g transform="matrix(1,0,0,1,-0.9090909090909918,-0.1038702340336215)">
		<svg viewBox="0 0 396 72" data-background-color="#ffffff" preserveAspectRatio="xMidYMid meet" height="272" width="1500" xmlns="http://www.w3.org/2000/svg" xmlns:xlink="http://www.w3.org/1999/xlink">
			<g id="tight-bounds" transform="matrix(1,0,0,1,0.2400000000000091,0.027495061950077115)">
				<svg viewBox="0 0 395.52 71.94500987609983" height="71.94500987609983" width="395.52">
					<g>
					<svg viewBox="0 0 395.52 71.94500987609983" height="71.94500987609983" width="395.52">
						<g>
						<svg viewBox="0 0 395.52 71.94500987609983" height="71.94500987609983" width="395.52">
							<g id="textblocktransform">
								<svg viewBox="0 0 395.52 71.94500987609983" height="71.94500987609983" width="395.52" id="textblock">
									<g>
									<svg viewBox="0 0 395.52 71.94500987609983" height="71.94500987609983" width="395.52">
										<g transform="matrix(1,0,0,1,0,0)">
											<svg width="395.52" viewBox="0.65 -36.2 278.42 50.650000000000006" height="71.94500987609983" data-palette-color="#e1f1f4">
												<path d="M17.4-27.7L17.4-27.7 17.6-29.25Q17.6-31.55 15.8-32.2L15.8-32.2Q14.4-32.65 13.65-32.65L13.65-32.65 13.6-32.65Q12.1-32.65 11-32.18 9.9-31.7 9.4-31L9.4-31Q8.35-29.55 8.2-27.95L8.2-27.95Q8.2-26.05 9.9-24.68 11.6-23.3 14.03-22.28 16.45-21.25 18.88-20.05 21.3-18.85 23-16.6 24.7-14.35 24.7-11.2L24.7-11.2Q24.7-5.05 20.83-2 16.95 1.05 12.03 1.05 7.1 1.05 3.88-1.18 0.65-3.4 0.65-7.15L0.65-7.15 0.65-7.2Q0.65-9.05 1.23-10.43 1.8-11.8 2.6-12.45L2.6-12.45Q4.25-13.8 5.6-13.9L5.6-13.9 6.2-13.95Q7.6-13.95 8.75-13.28 9.9-12.6 9.9-11.4L9.9-11.4Q9.9-10.8 9.25-10.4 8.6-10 8.13-9.2 7.65-8.4 7.6-7.85L7.6-7.85 7.5-7.3Q7.5-4.25 10.3-3.25L10.3-3.25Q11.3-2.9 11.9-2.9L11.9-2.9Q14.65-2.9 16.32-4.55 18-6.2 18-8.75L18-8.75Q18-11.8 15.4-13.7L15.4-13.7Q13.45-15.1 11.18-16.05 8.9-17 8.1-17.4 7.3-17.8 6.4-18.35 5.5-18.9 4.4-19.9L4.4-19.9Q2-22 2-25.58 2-29.15 3.95-31.6L3.95-31.6Q7.45-36.05 14.45-36.05L14.45-36.05Q18.15-36.05 20.7-34.63 23.25-33.2 23.25-30.7L23.25-30.7Q23.25-28.9 22.23-27.7 21.2-26.5 19.6-26.5L19.6-26.5Q18.85-26.5 18.13-26.8 17.4-27.1 17.4-27.7ZM26.25-19.5L26.25-19.5 26.4-21.5Q26.45-21.95 27.1-21.95L27.1-21.95 28.85-21.95 28.65-25.95 28.65-26.15Q28.65-27.3 30.4-28.35 32.15-29.4 33.6-29.4L33.6-29.4Q34.05-29.4 34.05-29L34.05-29 34.05-28.95Q33.85-27.6 33.65-22L33.65-22Q35.85-22 36.45-22.1 37.05-22.2 37.1-22.2L37.1-22.2Q37.45-22.2 37.45-21.6 37.45-21 36.9-20.08 36.35-19.15 35.7-19.1L35.7-19.1 33.6-19.1Q33.55-17.4 33.55-13.38 33.55-9.35 33.62-6.75 33.7-4.15 33.8-2.83 33.9-1.5 34.02-0.7 34.15 0.1 34.22 0.45 34.3 0.8 34.3 0.9L34.3 0.9Q34.3 1.4 33.65 1.45L33.65 1.45Q31.7 1.45 29.77 0.9 27.85 0.35 27.85-1L27.85-1Q28.9-9.4 28.9-19.05L28.9-19.05Q27.55-19.05 26.85-18.95L26.85-18.95 26.8-18.95Q26.35-18.95 26.25-19.5ZM47.55 13.85L47.55 13.85Q47.55 14.45 46.95 14.45L46.95 14.45 46.9 14.45Q45.25 14.45 43.17 13.3 41.09 12.15 41.09 10.65 41.09 9.15 43 5.43 44.9 1.7 44.9 0.45L44.9 0.45Q44.9-0.9 43.59-4.4L43.59-4.4Q41.95-8.95 40.97-11.8 39.99-14.65 38.87-16.82 37.74-19 37.24-19.4L37.24-19.4 36.74-19.75Q36.2-20.05 36.2-20.4L36.2-20.4Q36.2-21.1 38.37-21.83 40.55-22.55 42.2-22.55L42.2-22.55Q42.95-22.55 43.45-21.35L43.45-21.35Q44.34-19 45.4-14.85L45.4-14.85Q47.95-6.35 48.59-6.35L48.59-6.35Q49.05-6.35 50.42-9.85 51.8-13.35 51.8-15.5L51.8-15.5Q51.8-19.25 49.59-19.9L49.59-19.9Q49.09-20 49.09-20.4L49.09-20.4Q49.09-21.3 51.45-22.13 53.8-22.95 55.7-22.95L55.7-22.95Q57.34-22.95 57.34-20.8L57.34-20.8Q57.34-19.15 56.65-16.95 55.95-14.75 55.34-13.48 54.75-12.2 52.37-7.58 50-2.95 48.45 0.55L48.45 0.55Q46.75 4.75 46.75 9.1L46.75 9.1Q46.75 11.4 47.15 12.55 47.55 13.7 47.55 13.85ZM64.89-28.6L64.89-28.6 64.59-10.25Q64.59-1.65 65.14 0.05L65.14 0.05Q65.29 0.35 65.29 0.65L65.29 0.65Q65.29 1.25 63.84 1.25 62.39 1.25 60.62 0.53 58.84-0.2 58.84-1.35L58.84-1.35Q59.84-8.35 59.84-20.05L59.84-20.05 59.64-27.7Q59.54-29.1 59.07-30.1 58.59-31.1 58.14-31.4L58.14-31.4 57.74-31.65Q57.39-31.85 57.39-32.1L57.39-32.1Q57.39-32.8 59.57-33.83 61.74-34.85 63.79-34.85L63.79-34.85Q64.59-34.85 64.69-34.3L64.69-34.3Q64.89-33 64.89-28.6ZM73.04-12.7L73.04-12.7 73.09-11.45Q73.09-11.15 73.49-11.15L73.49-11.15Q75.09-11.3 76.29-11.98 77.49-12.65 78.09-13.5L78.09-13.5Q79.29-15.35 79.39-16.7L79.39-16.7 79.44-17.3Q79.44-20 77.29-20L77.29-20Q75.69-20 74.69-18.6L74.69-18.6Q73.04-16.4 73.04-12.7ZM83.94-6.05L83.94-6.05Q83.94-4.15 83.17-2.73 82.39-1.3 81.42-0.63 80.44 0.05 79.14 0.45L79.14 0.45Q77.49 0.95 75.99 0.95L75.99 0.95Q71.79 0.95 69.79-2.2 67.79-5.35 67.79-10.23 67.79-15.1 70.27-18.9 72.74-22.7 77.69-22.7L77.69-22.7Q82.19-22.7 83.79-19.55L83.79-19.55Q84.44-18.35 84.44-17.28 84.44-16.2 84.34-15.58 84.24-14.95 83.64-13.7 83.04-12.45 82.04-11.45 81.04-10.45 78.89-9.55 76.74-8.65 73.84-8.35L73.84-8.35Q73.44-8.35 73.44-8L73.44-8Q73.44-7.55 73.77-6.68 74.09-5.8 74.49-5.2L74.49-5.2Q75.59-3.8 77.74-3.8L77.74-3.8Q79.89-3.8 81.39-5.2L81.39-5.2Q82.19-5.95 82.69-7.05L82.69-7.05Q82.89-7.45 83.22-7.45 83.54-7.45 83.74-6.9 83.94-6.35 83.94-6.05ZM96.89-19.45L96.89-19.45 96.64-28.9Q96.64-31.15 96.14-32.45 95.64-33.75 95.64-33.85L95.64-33.85Q95.64-34.95 99.01-35.55 102.39-36.15 104.16-36.15 105.94-36.15 106.09-35.3L106.09-35.3Q109.24-21.25 111.39-15.8L111.39-15.8Q111.64-15.2 111.91-15.2 112.19-15.2 112.39-15.65L112.39-15.65Q115.74-25.1 118.29-34.35L118.29-34.35Q118.49-34.95 119.29-35.27 120.09-35.6 122.06-35.9 124.04-36.2 125.99-36.2 127.94-36.2 127.94-35.4L127.94-35.4Q127.94-35.35 127.79-34.63 127.64-33.9 127.49-32.85 127.34-31.8 127.14-30.3L127.14-30.3Q126.69-26.85 126.56-22.38 126.44-17.9 126.44-13.4L126.44-13.4 126.54-8.15Q126.54-4.55 127.01-3.03 127.49-1.5 127.49-1.28 127.49-1.05 127.14-0.75L127.14-0.75Q125.59 0.5 122.44 0.5L122.44 0.5Q120.44 0.5 120.19-0.85L120.19-0.85Q120.04-1.55 120.04-3.08 120.04-4.6 120.34-12.45 120.64-20.3 120.64-23.88 120.64-27.45 120.24-27.45L120.24-27.45Q120.19-27.45 120.19-27.43 120.19-27.4 120.04-27.35 119.89-27.3 119.26-25.8 118.64-24.3 116.79-18.4 114.94-12.5 113.44-7.38 111.94-2.25 111.79-1.85L111.79-1.85Q111.24-0.5 109.69-0.5L109.69-0.5Q108.94-0.5 108.49-1.05L108.49-1.05Q106.89-8.45 102.79-22.2L102.79-22.2 101.39-26.75Q101.29-27 101.19-27L101.19-27Q100.94-27 100.84-26.65L100.84-26.65Q100.64-23.4 100.64-13.88 100.64-4.35 101.34-1.85L101.34-1.85Q101.39-1.75 101.39-1.55L101.39-1.55Q101.39-0.5 99.74-0.03 98.09 0.45 96.76 0.45 95.44 0.45 95.44-0.15L95.44-0.15Q95.44-0.2 95.69-0.95L95.69-0.95Q96.44-3.5 96.66-8.35 96.89-13.2 96.89-19.45ZM135.18-12.7L135.18-12.7 135.23-11.45Q135.23-11.15 135.63-11.15L135.63-11.15Q137.23-11.3 138.43-11.98 139.63-12.65 140.23-13.5L140.23-13.5Q141.43-15.35 141.53-16.7L141.53-16.7 141.58-17.3Q141.58-20 139.43-20L139.43-20Q137.83-20 136.83-18.6L136.83-18.6Q135.18-16.4 135.18-12.7ZM146.08-6.05L146.08-6.05Q146.08-4.15 145.31-2.73 144.53-1.3 143.56-0.63 142.58 0.05 141.28 0.45L141.28 0.45Q139.63 0.95 138.13 0.95L138.13 0.95Q133.93 0.95 131.93-2.2 129.93-5.35 129.93-10.23 129.93-15.1 132.41-18.9 134.88-22.7 139.83-22.7L139.83-22.7Q144.33-22.7 145.93-19.55L145.93-19.55Q146.58-18.35 146.58-17.28 146.58-16.2 146.48-15.58 146.38-14.95 145.78-13.7 145.18-12.45 144.18-11.45 143.18-10.45 141.03-9.55 138.88-8.65 135.98-8.35L135.98-8.35Q135.58-8.35 135.58-8L135.58-8Q135.58-7.55 135.91-6.68 136.23-5.8 136.63-5.2L136.63-5.2Q137.73-3.8 139.88-3.8L139.88-3.8Q142.03-3.8 143.53-5.2L143.53-5.2Q144.33-5.95 144.83-7.05L144.83-7.05Q145.03-7.45 145.36-7.45 145.68-7.45 145.88-6.9 146.08-6.35 146.08-6.05ZM148.83 0.35L148.83 0.35Q149.73-5.05 149.73-12.6 149.73-20.15 149.28-22.4L149.28-22.4Q149.28-23.05 150.78-23.05L150.78-23.05Q153.08-23.05 153.83-21.3L153.83-21.3Q153.88-21.15 154.08-21.15 154.28-21.15 154.38-21.25L154.38-21.25Q155.93-22.85 159.18-22.85 162.43-22.85 164.33-21.2 166.23-19.55 166.23-16.4L166.23-16.4Q166.23-14.5 165.91-11 165.58-7.5 165.58-5.8L165.58-5.8Q165.58-1.75 166.93 0.05L166.93 0.05Q167.13 0.3 167.13 0.55L167.13 0.55Q167.13 1.2 165.73 1.2L165.73 1.2Q159.53 1.2 159.53-4.3L159.53-4.3Q159.53-6.4 160.48-10.15 161.43-13.9 161.43-15.85L161.43-15.85Q161.43-19.85 158.13-19.85L158.13-19.85Q156.53-19.85 155.71-18.9 154.88-17.95 154.78-16.73 154.68-15.5 154.68-12.1L154.68-12.1Q154.68-6.9 155.03-3.05L155.03-3.05 155.13-1.95Q155.13-0.55 153.31 0.23 151.48 1 150.16 1 148.83 1 148.83 0.35ZM183.98-6.85L183.98-6.85Q183.98-4.7 183.15-3.1 182.33-1.5 181.28-0.75 180.23 0 178.78 0.45L178.78 0.45Q176.88 1.05 175.33 1.05L175.33 1.05Q172.08 1.05 169.93-0.23 167.78-1.5 167.78-4.3L167.78-4.3Q167.78-5.95 168.68-7L168.68-7Q170.08-8.55 172.03-8.55L172.03-8.55Q172.63-8.55 172.63-8L172.63-8Q172.63-7.95 172.4-7.23 172.18-6.5 172.18-5.4 172.18-4.3 173.05-3.45 173.93-2.6 175.18-2.6 176.43-2.6 177.18-3.03 177.93-3.45 178.23-4.1L178.23-4.1Q178.68-5 178.68-5.8L178.68-5.8Q178.68-7.25 177.23-8.3 175.78-9.35 174.03-9.95 172.28-10.55 170.83-11.95 169.38-13.35 169.38-15.45L169.38-15.45Q169.38-19.05 171.65-20.85 173.93-22.65 177.83-22.65L177.83-22.65Q179.53-22.65 181.4-22.18 183.28-21.7 183.28-20.58 183.28-19.45 182.9-18.5 182.53-17.55 181.98-17.55L181.98-17.55Q181.68-17.55 181.58-17.78 181.48-18 181.23-18.3 180.98-18.6 180.03-19.07 179.08-19.55 178.4-19.55 177.73-19.55 177.5-19.53 177.28-19.5 176.73-19.38 176.18-19.25 175.73-19L175.73-19Q174.58-18.35 174.58-17.1L174.58-17.1Q174.58-16.3 174.93-15.93 175.28-15.55 175.48-15.35 175.68-15.15 176.18-14.88 176.68-14.6 176.88-14.5 177.08-14.4 177.78-14.08 178.48-13.75 178.68-13.65L178.68-13.65Q183.98-11.15 183.98-6.85ZM203.05-17.75Q203.53-19 203.85-20.33 204.18-21.65 204.18-22.78 204.18-23.9 203.38-26.95L203.38-26.95Q201.98-32.05 200.98-33L200.98-33 200.68-33.35Q200.18-33.65 200.18-34.05L200.18-34.05Q200.18-34.9 202.43-35.5 204.68-36.1 206.1-36.1 207.53-36.1 207.78-35.25L207.78-35.25Q208.38-33.4 209.1-29.9 209.83-26.4 210.35-23.88 210.88-21.35 211.18-20 211.48-18.65 211.98-16.5L211.98-16.5Q212.93-12.5 213.88-9.95L213.88-9.95Q214.18-9.25 214.6-9.25 215.03-9.25 215.5-10.13 215.98-11 216.8-12.63 217.63-14.25 219-18.4 220.38-22.55 220.38-25.6L220.38-25.6Q220.38-30.3 217.28-32.25L217.28-32.25Q217.03-32.55 217.03-32.9 217.03-33.25 217.38-33.6L217.38-33.6Q217.73-33.85 218.38-34.27 219.03-34.7 220.98-35.38 222.93-36.05 224.48-36.05 226.03-36.05 226.33-35.63 226.63-35.2 226.63-34.1L226.63-34.1Q226.63-29.25 223.75-21.23 220.88-13.2 217.65-7.08 214.43-0.95 212.83 0.6L212.83 0.6Q211.98 1.35 211.83 1.35L211.83 1.35Q211.38 1.35 210.98 0.65L210.98 0.65Q209.28-2.2 207.28-10.5L207.28-10.5Q206.38-14.4 206.23-14.9 206.08-15.4 205.98-15.4L205.98-15.4Q205.73-15.4 205.53-14.9L205.53-14.9Q203.78-10.85 201.63-6.98 199.48-3.1 198.18-1.25L198.18-1.25 196.93 0.6Q196.43 1.3 195.93 1.3 195.43 1.3 195.03 0.65L195.03 0.65Q193.68-1.9 191.73-9.2L191.73-9.2 191.08-11.7Q190.88-12.4 190.18-15.5L190.18-15.5Q187.53-27.35 186.13-30.3L186.13-30.3Q185.33-31.95 184.75-32.45 184.18-32.95 183.83-33.05L183.83-33.05Q183.28-33.3 183.28-33.68 183.28-34.05 183.68-34.4L183.68-34.4Q184.28-34.85 186.33-35.48 188.38-36.1 189.78-36.1 191.18-36.1 191.43-35.25L191.43-35.25Q192.43-33.4 193.78-26.95L193.78-26.95Q196.63-13.45 197.98-9.95L197.98-9.95Q198.23-9.25 198.68-9.25 199.13-9.25 199.48-10L199.48-10Q199.93-10.45 201.25-13.48 202.58-16.5 203.05-17.75ZM230.87-12.7L230.87-12.7 230.92-11.45Q230.92-11.15 231.32-11.15L231.32-11.15Q232.92-11.3 234.12-11.98 235.32-12.65 235.92-13.5L235.92-13.5Q237.12-15.35 237.22-16.7L237.22-16.7 237.27-17.3Q237.27-20 235.12-20L235.12-20Q233.52-20 232.52-18.6L232.52-18.6Q230.87-16.4 230.87-12.7ZM241.77-6.05L241.77-6.05Q241.77-4.15 241-2.73 240.22-1.3 239.25-0.63 238.27 0.05 236.97 0.45L236.97 0.45Q235.32 0.95 233.82 0.95L233.82 0.95Q229.62 0.95 227.62-2.2 225.62-5.35 225.62-10.23 225.62-15.1 228.1-18.9 230.57-22.7 235.52-22.7L235.52-22.7Q240.02-22.7 241.62-19.55L241.62-19.55Q242.27-18.35 242.27-17.28 242.27-16.2 242.17-15.58 242.07-14.95 241.47-13.7 240.87-12.45 239.87-11.45 238.87-10.45 236.72-9.55 234.57-8.65 231.67-8.35L231.67-8.35Q231.27-8.35 231.27-8L231.27-8Q231.27-7.55 231.6-6.68 231.92-5.8 232.32-5.2L232.32-5.2Q233.42-3.8 235.57-3.8L235.57-3.8Q237.72-3.8 239.22-5.2L239.22-5.2Q240.02-5.95 240.52-7.05L240.52-7.05Q240.72-7.45 241.05-7.45 241.37-7.45 241.57-6.9 241.77-6.35 241.77-6.05ZM260.52-15L260.52-15 260.42-8.6Q260.42-1.95 261.87-0.6L261.87-0.6Q262.07-0.4 262.07-0.15L262.07-0.15Q262.07 0.6 258.85 0.6 255.62 0.6 255.42-1.3L255.42-1.3Q255.37-1.75 255.37-3.15L255.37-3.15 255.57``-11.15Q255.57-11.5 255.17-11.5L255.17-11.5Q252.77-11.5 250.67-10.15 248.57-8.8 248.57-6.7L248.57-6.7Q248.57-5.6 249.17-4.85 249.77-4.1 250.65-4.1 251.52-4.1 252.1-4.45 252.67-4.8 252.77-4.85L252.77-4.85Q253.62-4.75 253.62-3.08 253.62-1.4 252.07-0.38 250.52 0.65 248.82 0.65 247.12 0.65 245.9 0.05 244.67-0.55 244.12-1.3 243.57-2.05 243.22-3L243.22-3Q242.87-4.15 242.87-5L242.87-5Q242.87-8.5 245.07-10.6 247.27-12.7 250.72-13.6L250.72-13.6Q255.27-14.5 255.47-15.25L255.47-15.25Q255.62-15.8 255.62-17.1L255.62-17.1Q255.62-19.75 252.92-19.75L252.92-19.75Q251.77-19.75 250.87-19.03 249.97-18.3 249.97-17.2L249.97-17.2 250.27-16Q250.17-15.15 248.47-15L248.47-15 247.92-14.95Q246.42-14.95 245.55-15.7 244.67-16.45 244.67-17.7L244.67-17.7Q244.67-18.5 245.2-19.48 245.72-20.45 246.52-21.05 247.32-21.65 249-22.13 250.67-22.6 252.22-22.6 253.77-22.6 254.62-22.5 255.47-22.4 256.95-22.03 258.42-21.65 259.4-20.6 260.37-19.55 260.45-18.38 260.52-17.2 260.52-15ZM279.07-17.2L278.82-13.4 279.02-11.65Q279.02-10.7 277.22-10.7L277.22-10.7Q273.57-10.7 273.57-13.45L273.57-13.45Q273.57-14.1 273.92-15.25 274.27-16.4 274.27-17.25 274.27-18.1 273.77-18.73 273.27-19.35 272.32-19.35 271.37-19.35 270.69-18.68 270.02-18 269.87-17.3L269.87-17.3 269.67-16.6Q269.37-15.05 269.37-11.43 269.37-7.8 269.47-5.73 269.57-3.65 269.67-2.88 269.77-2.1 269.77-1.95L269.77-1.95Q269.77-0.7 268.22 0.08 266.67 0.85 265.12 0.85 263.57 0.85 263.57 0.2L263.57 0.2 263.82-1.35Q264.52-5.7 264.52-12.7 264.52-19.7 264.02-22.2L264.02-22.2Q264.02-22.8 265.07-22.8L265.07-22.8Q267.77-22.8 268.67-20.95L268.67-20.95Q268.72-20.75 268.84-20.75 268.97-20.75 269.52-21.2L269.52-21.2Q271.17-22.55 273.42-22.55L273.42-22.55Q274.82-22.55 276.22-22L276.22-22Q279.07-20.85 279.07-17.2L279.07-17.2Z" opacity="1" transform="matrix(1,0,0,1,0,0)" fill="#e1f1f4" class="wordmark-text-0" data-fill-palette-color="primary" id="text-0">
												</path>
											</svg>
										</g>
									</svg>
								</g>
							</svg>
						</g>
					</svg>
				</g>
				<g>
			</g>
		</svg>
	</g>
	<defs>
	</defs>
</svg>
<rect width="395.52" height="71.94500987609983" fill="none" stroke="none" visibility="hidden">
</rect>
</g>
</svg>
</g>
</svg>