<svg width="100%" height="100%" viewBox="0 0 24 24" version="1.1" xmlns="http://www.w3.org/2000/svg" style="fill-rule:evenodd;clip-rule:evenodd;stroke-linecap:round;stroke-linejoin:round;stroke-miterlimit:1.5;">
    <g>
        <g transform="matrix(1,0,0,1,-0.0886681,0)">
            <path d="M19.736,8.341L16.046,12.031L19.714,15.661" style="fill:none;stroke:rgb(78,78,78);stroke-width:1.8px;"/>
        </g>
        <path d="M4,18C3.717,18 3.479,17.904 3.288,17.712C3.096,17.521 3,17.283 3,17C3,16.717 3.096,16.479 3.288,16.288C3.479,16.096 3.717,16 4,16L15,16C15.283,16 15.521,16.096 15.713,16.288C15.904,16.479 16,16.717 16,17C16,17.283 15.904,17.521 15.713,17.712C15.521,17.904 15.283,18 15,18L4,18ZM4,13C3.717,13 3.479,12.904 3.288,12.712C3.096,12.521 3,12.283 3,12C3,11.717 3.096,11.479 3.288,11.287C3.479,11.096 3.717,11 4,11L12,11C12.283,11 12.521,11.096 12.713,11.287C12.904,11.479 13,11.717 13,12C13,12.283 12.904,12.521 12.713,12.712C12.521,12.904 12.283,13 12,13L4,13ZM4,8C3.717,8 3.479,7.904 3.288,7.713C3.096,7.521 3,7.283 3,7C3,6.717 3.096,6.479 3.288,6.287C3.479,6.096 3.717,6 4,6L15,6C15.283,6 15.521,6.096 15.713,6.287C15.904,6.479 16,6.717 16,7C16,7.283 15.904,7.521 15.713,7.713C15.521,7.904 15.283,8 15,8L4,8Z" style="fill:rgb(78,78,78);fill-rule:nonzero;"/>
    </g>
</svg>
