<?xml version="1.0" encoding="UTF-8" standalone="no"?>
<!DOCTYPE svg PUBLIC "-//W3C//DTD SVG 1.1//EN" "http://www.w3.org/Graphics/SVG/1.1/DTD/svg11.dtd">
<svg width="100%" height="100%" viewBox="0 0 144 144" version="1.1" xmlns="http://www.w3.org/2000/svg"   style="fill-rule:evenodd;clip-rule:evenodd;stroke-linejoin:round;stroke-miterlimit:1.41421;">
    <g transform="matrix(1.42,0,0,1.42,1.00071,1)">
        <g>
            <path d="M17.998,82L17.998,15.997L13.998,15.997L13.998,84C13.998,88.42 17.578,92 21.998,92L78.001,92L78.001,88L23.998,88C20.686,88 17.998,85.312 17.998,82Z" style="fill:rgb(107,146,147);fill-rule:nonzero;"/>
            <path d="M87.053,23.997L71.984,23.997C70.884,23.997 69.988,23.105 69.984,22.005L69.908,6.845L87.053,23.997Z" style="fill:rgb(107,146,147);fill-rule:nonzero;"/>
            <path d="M31.999,75.999C30.895,75.999 29.999,75.103 29.999,73.999L29.999,1.996L23.998,1.996C22.894,1.996 21.998,2.893 21.998,3.997L21.998,82C21.998,83.104 22.894,84 23.998,84L90.001,84C91.105,84 92.001,83.104 92.001,82L92.001,75.999L31.999,75.999Z" style="fill:rgb(107,146,147);fill-rule:nonzero;"/>
            <path d="M90.001,82C90.001,83.104 89.105,84 88.001,84L23.998,84C22.894,84 21.998,83.104 21.998,82L21.998,5.997C21.998,4.893 22.894,3.997 23.998,3.997L65.9,3.997L65.984,22.021C65.996,25.317 68.688,27.998 71.984,27.998L90.001,27.998L90.001,82ZM78.001,94C78.001,95.104 77.105,96 76.001,96L11.998,96C10.894,96 9.998,95.104 9.998,94L9.998,17.997C9.998,16.893 10.894,15.997 11.998,15.997L17.998,15.997L17.998,82C17.998,85.316 20.686,88 23.998,88L78.001,88L78.001,94ZM87.053,23.997L71.984,23.997C70.884,23.997 69.988,23.105 69.984,22.005L69.908,6.845L87.053,23.997ZM92.245,23.533L70.48,1.756C69.356,0.632 67.828,0 66.236,0L23.998,0C20.686,0 17.998,2.685 17.998,6.001L17.998,11.997L11.998,11.997C8.69,11.997 5.998,14.689 5.998,17.997L5.998,94C5.998,97.308 8.69,100 11.998,100L76.001,100C79.309,100 82.001,97.308 82.001,94L82.001,88L88.001,88C91.313,88 94.001,85.316 94.001,82L94.001,27.777C94.001,26.185 93.369,24.657 92.245,23.533Z" style="fill:rgb(11,72,73);fill-rule:nonzero;"/>
            <path d="M69.416,36.582C68.636,35.802 67.368,35.802 66.588,36.582L56.004,47.166L45.419,36.582C45.023,36.194 44.511,35.998 43.999,35.998C43.487,35.998 42.975,36.194 42.583,36.582C41.803,37.362 41.803,38.63 42.583,39.41L53.168,49.994L42.583,60.579C41.803,61.359 41.803,62.627 42.583,63.407C42.975,63.799 43.487,63.991 43.999,63.991C44.511,63.991 45.023,63.795 45.415,63.407L56,52.823L66.584,63.407C67.364,64.187 68.632,64.187 69.412,63.407C70.192,62.627 70.192,61.359 69.412,60.579L58.828,49.994L69.412,39.41C70.196,38.63 70.196,37.366 69.416,36.582Z" style="fill:rgb(11,72,73);fill-rule:nonzero;"/>
        </g>
    </g>
</svg>
