<svg width="100%" height="100%" viewBox="0 0 24 24" version="1.1" xmlns="http://www.w3.org/2000/svg" style="fill-rule:evenodd;clip-rule:evenodd;stroke-linejoin:round;stroke-miterlimit:1.41421;">
    <g transform="matrix(0.00429899,1.09777e-34,-1.09777e-34,-0.00429899,0.996457,23.0028)">
        <path d="M4260,4470C4246,4464 4113,4337 3963,4188L3692,3917L3563,3967C3355,4050 3157,4102 2925,4137C2741,4164 2354,4161 2161,4131C1652,4053 1202,3850 776,3507C641,3399 385,3141 276,3005C158,2856 12,2637 4,2595C-7,2535 8,2495 90,2372C330,2009 674,1663 1020,1435C1078,1397 1127,1365 1129,1363C1132,1361 1025,1250 893,1117C686,910 651,870 645,837C634,777 648,730 689,689C730,648 777,634 837,645C871,651 1064,841 2668,2443C3985,3760 4463,4244 4471,4269C4493,4336 4469,4408 4408,4453C4377,4476 4297,4485 4260,4470ZM2900,3815C3072,3789 3263,3739 3414,3680L3444,3669L3280,3505L3116,3341L3089,3360C3037,3398 2874,3470 2795,3492C2689,3520 2451,3523 2346,3497C2163,3451 2018,3369 1884,3236C1751,3102 1669,2956 1623,2774C1596,2666 1599,2440 1628,2330C1651,2247 1717,2096 1759,2035L1779,2004L1576,1801L1373,1598L1278,1657C946,1866 609,2184 400,2486L349,2560L399,2633C576,2889 884,3197 1145,3381C1497,3629 1913,3786 2326,3829C2450,3842 2774,3834 2900,3815ZM2702,3181C2764,3165 2880,3117 2880,3107C2880,3106 2685,2910 2446,2671L2012,2237L1985,2289C1949,2362 1920,2480 1920,2559C1921,2968 2314,3280 2702,3181Z" style="fill:rgb(148,148,148);fill-rule:nonzero;"/>
        <path d="M4137,3462C4078,3403 4030,3350 4031,3345C4031,3339 4070,3305 4118,3268C4323,3111 4593,2823 4739,2608L4771,2560L4730,2500C4558,2246 4259,1943 3995,1754C3543,1430 3015,1265 2490,1284C2326,1289 2275,1295 2107,1326L2018,1343L1889,1214C1796,1121 1764,1084 1774,1078C1802,1062 2039,1009 2175,988C2362,959 2743,957 2925,983C3570,1078 4108,1356 4600,1849C4776,2026 4891,2165 5020,2358C5149,2550 5149,2567 5032,2746C4920,2916 4767,3103 4605,3266C4468,3404 4277,3570 4256,3570C4250,3570 4196,3522 4137,3462Z" style="fill:rgb(148,148,148);fill-rule:nonzero;"/>
        <path d="M3336,2661L3198,2523L3185,2444C3169,2352 3112,2230 3051,2157C2957,2044 2813,1959 2676,1935L2597,1922L2456,1781C2379,1704 2319,1638 2322,1635C2334,1623 2487,1601 2561,1600C2814,1599 3047,1698 3235,1885C3428,2078 3513,2281 3514,2550C3515,2675 3498,2800 3482,2800C3478,2800 3413,2738 3336,2661Z" style="fill:rgb(148,148,148);fill-rule:nonzero;"/>
    </g>
</svg>
