<svg width="100%" height="100%" viewBox="0 0 24 24" version="1.1" xmlns="http://www.w3.org/2000/svg" style="fill-rule:evenodd;clip-rule:evenodd;stroke-linejoin:round;stroke-miterlimit:1.41421;">
    <g transform="matrix(0.00430044,0,0,-0.00430044,0.992474,23.0144)">
        <path d="M2350,4154C1758,4098 1253,3891 776,3507C641,3399 385,3141 276,3005C158,2856 12,2637 4,2595C1,2576 1,2544 4,2525C12,2483 158,2264 276,2115C385,1979 641,1721 776,1613C1210,1264 1668,1061 2195,983C2363,959 2757,959 2925,983C3273,1034 3585,1137 3875,1297C4321,1542 4726,1918 5020,2358C5150,2553 5150,2567 5020,2762C4892,2954 4777,3094 4600,3271C4120,3754 3580,4036 2960,4131C2829,4151 2464,4164 2350,4154ZM2812,3825C3274,3776 3726,3584 4119,3271C4326,3105 4580,2836 4719,2636L4771,2560L4730,2500C4558,2246 4259,1943 3995,1754C3504,1402 2914,1236 2344,1290C1767,1345 1241,1600 776,2050C649,2173 485,2363 401,2485L349,2560L399,2633C497,2774 586,2877 754,3046C996,3287 1216,3448 1496,3588C1904,3792 2357,3874 2812,3825Z" style="fill:rgb(148,148,148);fill-rule:nonzero;"/>
        <path d="M2393,3505C2192,3469 2028,3381 1880,3231C1751,3101 1668,2953 1623,2774C1599,2679 1599,2441 1623,2346C1668,2167 1751,2019 1880,1889C2057,1709 2265,1616 2515,1603C2792,1589 3034,1684 3235,1885C3372,2022 3451,2161 3497,2346C3521,2441 3521,2679 3497,2774C3472,2873 3425,2984 3372,3070C3310,3172 3166,3313 3061,3378C2865,3498 2616,3546 2393,3505ZM2695,3185C2911,3140 3104,2962 3173,2745C3204,2646 3204,2474 3173,2375C3110,2176 2944,2010 2745,1947C2688,1929 2652,1925 2555,1925C2451,1926 2425,1930 2362,1952C2257,1990 2186,2035 2105,2115C1858,2361 1860,2760 2110,3010C2265,3166 2480,3230 2695,3185Z" style="fill:rgb(148,148,148);fill-rule:nonzero;"/>
    </g>
</svg>
