<?xml version="1.0" encoding="UTF-8" standalone="no"?>
<!DOCTYPE svg PUBLIC "-//W3C//DTD SVG 1.1//EN" "http://www.w3.org/Graphics/SVG/1.1/DTD/svg11.dtd">
<svg width="100%" height="100%" viewBox="0 0 20 20" version="1.1" xmlns="http://www.w3.org/2000/svg" style="fill-rule:evenodd;clip-rule:evenodd;stroke-linejoin:round;stroke-miterlimit:1.41421;">
    <path d="M15.75,16.917L11.083,12.25C10.667,12.583 10.188,12.847 9.646,13.042C9.104,13.236 8.528,13.333 7.917,13.333C6.403,13.333 5.122,12.809 4.073,11.761C3.024,10.712 2.5,9.431 2.5,7.917C2.5,6.403 3.024,5.121 4.073,4.072C5.122,3.024 6.403,2.5 7.917,2.5C9.431,2.5 10.712,3.024 11.761,4.072C12.809,5.121 13.333,6.403 13.333,7.917C13.333,8.528 13.236,9.104 13.042,9.646C12.847,10.188 12.583,10.667 12.25,11.083L16.938,15.771C17.09,15.924 17.167,16.111 17.167,16.333C17.167,16.556 17.083,16.75 16.917,16.917C16.764,17.069 16.569,17.146 16.333,17.146C16.097,17.146 15.903,17.069 15.75,16.917ZM7.917,11.667C8.958,11.667 9.844,11.302 10.573,10.573C11.302,9.844 11.667,8.958 11.667,7.917C11.667,6.875 11.302,5.989 10.573,5.26C9.844,4.531 8.958,4.167 7.917,4.167C6.875,4.167 5.989,4.531 5.26,5.26C4.531,5.989 4.167,6.875 4.167,7.917C4.167,8.958 4.531,9.844 5.26,10.573C5.989,11.302 6.875,11.667 7.917,11.667Z" style="fill:rgb(116,116,116);fill-rule:nonzero;"/>
</svg>
