<svg width="100%" height="100%" viewBox="0 0 24 24" version="1.1" xmlns="http://www.w3.org/2000/svg" style="fill-rule:evenodd;clip-rule:evenodd;stroke-linejoin:round;stroke-miterlimit:1.41421;">
    <g transform="matrix(1,0,0,1,-0.0062642,-0.05)">
        <path d="M8.225,8.325C8.042,8.142 7.95,7.9 7.95,7.6C7.95,7.3 8.042,7.058 8.225,6.875L11.3,3.8C11.4,3.7 11.508,3.629 11.625,3.587C11.742,3.546 11.867,3.525 12,3.525C12.133,3.525 12.263,3.546 12.388,3.587C12.513,3.629 12.617,3.7 12.7,3.8L15.8,6.9C15.983,7.083 16.071,7.321 16.062,7.612C16.054,7.904 15.958,8.142 15.775,8.325C15.592,8.508 15.35,8.6 15.05,8.6C14.75,8.6 14.508,8.508 14.325,8.325L12,6L9.65,8.35C9.467,8.533 9.229,8.621 8.938,8.613C8.646,8.604 8.408,8.508 8.225,8.325ZM12,20.575C11.867,20.575 11.742,20.55 11.625,20.5C11.508,20.45 11.4,20.383 11.3,20.3L8.225,17.225C8.042,17.042 7.95,16.8 7.95,16.5C7.95,16.2 8.042,15.958 8.225,15.775C8.408,15.592 8.65,15.5 8.95,15.5C9.25,15.5 9.492,15.592 9.675,15.775L12,18.1L14.35,15.75C14.533,15.567 14.771,15.479 15.062,15.488C15.354,15.496 15.592,15.592 15.775,15.775C15.958,15.958 16.05,16.2 16.05,16.5C16.05,16.8 15.958,17.042 15.775,17.225L12.7,20.3C12.617,20.383 12.513,20.45 12.388,20.5C12.263,20.55 12.133,20.575 12,20.575Z" style="fill:white;fill-opacity:0.56;fill-rule:nonzero;"/>
    </g>
</svg>
