<svg xmlns="http://www.w3.org/2000/svg" width="577" height="433" viewBox="0 0 577 433" version="1.1"><path d="M 85 194.500 C 86.292 195.875, 87.516 197, 87.721 197 C 88.552 197, 84.431 192.060, 83.576 192.031 C 83.067 192.014, 83.708 193.125, 85 194.500 M 80 193.930 C 80 194.442, 78.987 195.056, 77.750 195.294 C 75.821 195.666, 75.892 195.747, 78.250 195.864 C 80.088 195.955, 81 195.503, 81 194.500 C 81 193.675, 80.775 193, 80.500 193 C 80.225 193, 80 193.419, 80 193.930 M 103.500 198.657 C 99.220 202.579, 99.090 202.795, 102.596 200.157 C 106.298 197.372, 109.818 193.941, 108.872 194.038 C 108.668 194.060, 106.250 196.138, 103.500 198.657 M 107.417 198.595 C 104.011 201.721, 103.956 201.831, 107 199.440 L 110.500 196.691 111.082 202.596 L 111.664 208.500 111.832 201.750 C 111.924 198.037, 111.850 195, 111.667 195 C 111.483 195, 109.571 196.618, 107.417 198.595 M 84 196.356 C 84 196.617, 86.258 198.628, 89.018 200.825 C 92.089 203.270, 93.544 205.019, 92.768 205.332 C 91.873 205.692, 91.851 205.865, 92.691 205.921 C 95.623 206.115, 94.468 204.058, 89.441 200.132 C 86.448 197.795, 84 196.096, 84 196.356 M 78.250 197.689 C 79.702 198.069, 80 199.315, 80 205.014 C 80 208.792, 80.338 212.092, 80.750 212.349 C 81.162 212.606, 81.353 209.257, 81.174 204.908 C 80.869 197.513, 80.707 197.008, 78.674 197.116 C 76.983 197.206, 76.888 197.334, 78.250 197.689 M 140 197.387 C 140 197.599, 141.326 197.968, 142.947 198.206 C 144.568 198.443, 145.667 198.270, 145.388 197.819 C 144.893 197.017, 140 196.625, 140 197.387 M 154.390 198.427 C 154.088 199.212, 154.041 200.900, 154.285 202.177 C 154.622 203.946, 154.760 203.724, 154.864 201.250 L 155 198 165 198 L 175 198 175 200.930 C 175 203.052, 174.444 203.986, 172.985 204.314 C 171.308 204.690, 171.350 204.744, 173.235 204.633 C 175.101 204.523, 175.555 203.840, 175.810 200.750 L 176.121 197 165.529 197 C 157.276 197, 154.816 197.315, 154.390 198.427 M 178.199 204.690 L 178.397 212.500 178.743 205.250 L 179.088 198 181.996 198 C 184.856 198, 184.911 198.104, 185.287 204.250 L 185.669 210.500 185.584 204 L 185.500 197.500 181.750 197.190 L 178 196.879 178.199 204.690 M 192.714 197.619 C 192.321 198.012, 192 201.097, 192 204.476 C 192 208.251, 191.446 211.366, 190.562 212.559 C 189.141 214.477, 189.105 214.476, 187.507 212.500 C 185.925 210.544, 185.914 210.549, 186.980 212.750 C 189.503 217.957, 193 213.036, 193 204.277 L 193 198 196.450 198 L 199.900 198 200.282 203.505 L 200.664 209.010 200.582 203.255 L 200.500 197.500 196.964 197.202 C 195.020 197.039, 193.107 197.226, 192.714 197.619 M 202.445 198.284 C 202.174 198.990, 202.086 207.652, 202.251 217.534 L 202.549 235.500 202.775 216.810 L 203 198.121 206.750 197.728 L 210.500 197.336 206.719 197.168 C 204.429 197.066, 202.743 197.506, 202.445 198.284 M 229.921 198.750 C 228.794 200.239, 228.806 200.313, 229.998 199.250 C 230.805 198.531, 234.074 198, 237.700 198 C 243.753 198, 244 198.098, 244 200.500 C 244 202.825, 243.659 203, 239.122 203 C 233.386 203, 231.730 204.476, 232.182 209.185 C 232.494 212.438, 232.593 212.502, 237.500 212.602 L 242.500 212.704 237.693 212.295 L 232.886 211.886 233.193 208.193 L 233.500 204.500 239.250 204.200 L 245 203.900 245 200.450 L 245 197 238.122 197 C 232.744 197, 230.956 197.381, 229.921 198.750 M 304.250 199.584 C 302.462 200.992, 301.029 202.900, 301.063 203.822 C 301.112 205.117, 301.318 205.028, 301.965 203.430 C 303.427 199.816, 307.441 198, 313.965 198 C 319.736 198, 320 198.109, 320 200.500 C 320 202.819, 319.653 203, 315.200 203 C 309.406 203, 308 204.211, 308 209.200 L 308 213 313.250 212.820 L 318.500 212.640 313.693 212.263 L 308.886 211.886 309.193 208.193 L 309.500 204.500 315.250 204.200 L 321 203.900 321 200.450 L 321 197 314.250 197.011 C 308.529 197.020, 307.004 197.413, 304.250 199.584 M 325.602 199.329 C 323.113 201.321, 322.873 201.920, 323.900 203.574 C 325.040 205.410, 325.069 205.401, 324.522 203.382 C 324.102 201.830, 324.647 200.806, 326.559 199.553 C 328.957 197.982, 329.313 197.974, 330.941 199.447 C 332.571 200.922, 332.825 200.908, 334.107 199.275 C 335.349 197.692, 335.325 197.637, 333.883 198.762 C 332.562 199.793, 332.035 199.748, 331.010 198.512 C 329.370 196.536, 329.028 196.588, 325.602 199.329 M 337.753 197.706 C 338.992 197.945, 341.580 199.624, 343.503 201.438 C 345.426 203.252, 347 204.378, 347 203.941 C 347 202.381, 339.508 197.002, 337.522 197.136 C 335.738 197.256, 335.765 197.323, 337.753 197.706 M 362.744 197.975 C 364.528 198.398, 366.574 199.140, 367.291 199.622 C 368.008 200.105, 367.736 199.713, 366.686 198.750 C 365.637 197.787, 363.591 197.046, 362.139 197.102 C 359.719 197.196, 359.770 197.269, 362.744 197.975 M 393.221 197.689 L 396.941 198.117 397.269 210.809 L 397.597 223.500 397.549 210.500 L 397.500 197.500 393.500 197.381 L 389.500 197.262 393.221 197.689 M 403.435 198.308 C 403.159 199.028, 403.076 204.990, 403.252 211.558 L 403.570 223.500 403.785 210.810 L 404 198.121 407.750 197.728 L 411.500 197.336 407.719 197.168 C 405.394 197.065, 403.744 197.504, 403.435 198.308 M 441.750 197.740 C 447.621 198.074, 448 198.244, 448 200.548 C 448 202.816, 447.633 203, 443.122 203 C 437.386 203, 435.730 204.476, 436.182 209.185 C 436.489 212.386, 436.655 212.503, 441 212.582 L 445.500 212.663 441.193 212.275 C 436.899 211.887, 436.887 211.875, 437.193 208.193 L 437.500 204.500 443.250 204.200 L 449 203.900 449 200.450 L 449 197 442.250 197.193 L 435.500 197.385 441.750 197.740 M 121.429 220.500 C 121.429 233.150, 121.573 238.187, 121.747 231.694 C 121.922 225.200, 121.921 214.850, 121.746 208.694 C 121.571 202.537, 121.428 207.850, 121.429 220.500 M 134.239 201.420 C 132.186 203.301, 130.730 204.989, 131.003 205.170 C 131.277 205.352, 133.216 203.813, 135.314 201.750 C 140.085 197.059, 139.271 196.809, 134.239 201.420 M 292.063 201.577 C 293.953 203.819, 295.702 205.492, 295.950 205.294 C 296.197 205.095, 294.651 203.261, 292.513 201.217 L 288.626 197.500 292.063 201.577 M 470.556 202.063 C 472.725 204.573, 474.703 206.470, 474.951 206.279 C 475.199 206.088, 473.424 204.034, 471.007 201.716 L 466.611 197.500 470.556 202.063 M 75.229 219.750 L 75 241 85.750 240.789 L 96.500 240.578 86.270 240.254 L 76.040 239.930 75.749 219.215 L 75.457 198.500 75.229 219.750 M 119 219.500 L 119 240 109.025 240 L 99.050 240 98.748 223.750 L 98.447 207.500 98.223 224.250 L 98 241 109 241 L 120 241 120 220 C 120 208.450, 119.775 199, 119.500 199 C 119.225 199, 119 208.225, 119 219.500 M 456.437 202.250 L 453.500 205.500 456.750 202.563 C 459.779 199.825, 460.460 199, 459.687 199 C 459.515 199, 458.052 200.463, 456.437 202.250 M 226.097 201.383 C 225.308 202.334, 225.044 207.877, 225.251 219.133 L 225.553 235.500 225.777 218.950 C 225.929 207.681, 226.383 202.017, 227.200 201.200 C 227.860 200.540, 228.140 200, 227.822 200 C 227.505 200, 226.728 200.622, 226.097 201.383 M 430.097 201.383 C 429.308 202.334, 429.044 207.877, 429.251 219.133 L 429.553 235.500 429.777 218.950 C 429.929 207.681, 430.383 202.017, 431.200 201.200 C 431.860 200.540, 432.140 200, 431.822 200 C 431.505 200, 430.728 200.622, 430.097 201.383 M 139.200 205.200 C 136.790 207.610, 137.863 210.555, 142 212.880 C 146.917 215.643, 147.351 214.994, 142.500 212.133 C 140.297 210.832, 139 209.302, 139 208.002 C 139 205.103, 141.665 204.411, 144.287 206.629 L 146.500 208.500 144.595 206.250 C 142.457 203.725, 140.966 203.434, 139.200 205.200 M 161.405 219.500 C 161.406 228.300, 161.559 231.766, 161.745 227.203 C 161.930 222.639, 161.929 215.439, 161.742 211.203 C 161.555 206.966, 161.404 210.700, 161.405 219.500 M 271.064 205.422 C 270.381 206.246, 270.043 208.875, 270.262 211.672 L 270.640 216.500 270.820 211.300 C 270.950 207.535, 271.483 205.818, 272.750 205.080 C 273.712 204.519, 273.993 204.047, 273.372 204.030 C 272.752 204.014, 271.714 204.640, 271.064 205.422 M 283.440 205.296 C 283.166 206.009, 283.081 213.096, 283.251 221.046 L 283.559 235.500 283.780 220.177 C 283.981 206.188, 284.152 204.883, 285.750 205.188 C 287.294 205.484, 287.564 207.284, 288.041 220.512 L 288.582 235.500 288.791 220.950 C 289.001 206.297, 288.524 204, 285.269 204 C 284.536 204, 283.713 204.583, 283.440 205.296 M 334.200 205.200 C 333.356 206.044, 333.062 210.719, 333.209 220.950 L 333.418 235.500 333.959 220.500 C 334.469 206.347, 334.613 205.500, 336.500 205.500 C 338.387 205.500, 338.531 206.347, 339.041 220.500 L 339.582 235.500 339.791 220.950 C 339.998 206.550, 339.503 204, 336.500 204 C 335.895 204, 334.860 204.540, 334.200 205.200 M 364.565 207.500 C 366.380 209.425, 368.132 211, 368.457 211 C 368.782 211, 367.615 209.425, 365.864 207.500 C 364.112 205.575, 362.360 204, 361.971 204 C 361.582 204, 362.749 205.575, 364.565 207.500 M 488.398 205.405 C 487.490 207.772, 488.424 213.331, 489.775 213.598 C 490.476 213.737, 490.589 213.621, 490.025 213.342 C 489.461 213.062, 489 211.018, 489 208.800 C 489 205.050, 489.174 204.800, 491.470 205.239 C 492.828 205.499, 493.702 205.326, 493.411 204.856 C 492.561 203.480, 488.986 203.872, 488.398 205.405 M 461.035 206.934 C 460.466 207.998, 460 211.598, 460 214.934 L 460 221 464 221 L 468 221 467.807 214.250 L 467.615 207.500 467.260 213.750 C 466.909 219.925, 466.869 220, 463.952 220 C 461.036 220, 461 219.932, 461 214.434 C 461 211.373, 461.466 207.998, 462.035 206.934 C 462.605 205.870, 462.845 205, 462.570 205 C 462.295 205, 461.605 205.870, 461.035 206.934 M 501.921 208.249 C 501.623 210.399, 501.776 211.624, 502.279 211.121 C 502.762 210.638, 502.995 208.951, 502.798 207.372 C 502.468 204.728, 502.399 204.798, 501.921 208.249 M 301.395 219.500 C 301.396 227.200, 301.553 230.218, 301.743 226.206 C 301.934 222.195, 301.932 215.895, 301.741 212.206 C 301.549 208.518, 301.393 211.800, 301.395 219.500 M 347.400 220.500 C 347.401 228.750, 347.556 231.992, 347.744 227.704 C 347.932 223.417, 347.931 216.667, 347.742 212.704 C 347.552 208.742, 347.399 212.250, 347.400 220.500 M 453.370 216 C 453.370 221.775, 453.535 224.137, 453.737 221.250 C 453.939 218.363, 453.939 213.637, 453.737 210.750 C 453.535 207.863, 453.370 210.225, 453.370 216 M 417.343 214.500 C 417.346 218.900, 417.522 220.576, 417.733 218.224 C 417.945 215.872, 417.942 212.272, 417.727 210.224 C 417.512 208.176, 417.339 210.100, 417.343 214.500 M 481.397 221 C 481.397 228.975, 481.553 232.238, 481.743 228.250 C 481.932 224.262, 481.932 217.738, 481.743 213.750 C 481.553 209.762, 481.397 213.025, 481.397 221 M 149.458 209.068 C 149.095 209.656, 148.168 209.895, 147.399 209.600 C 146.629 209.304, 146 209.499, 146 210.031 C 146 211.524, 148.607 211.178, 150 209.500 C 150.685 208.675, 150.991 208, 150.681 208 C 150.372 208, 149.821 208.481, 149.458 209.068 M 263.392 222 C 263.392 229.425, 263.549 232.463, 263.742 228.750 C 263.934 225.037, 263.934 218.963, 263.742 215.250 C 263.549 211.537, 263.392 214.575, 263.392 222 M 475.389 222.500 C 475.390 229.650, 475.550 232.444, 475.742 228.708 C 475.935 224.973, 475.934 219.123, 475.739 215.708 C 475.545 212.294, 475.387 215.350, 475.389 222.500 M 199 211.799 C 199 212.421, 197.554 214.634, 195.787 216.715 C 192.907 220.108, 192.864 220.241, 195.379 218 C 198.543 215.180, 200.449 212.116, 199.581 211.248 C 199.261 210.928, 199 211.176, 199 211.799 M 131 212.654 C 131 213.779, 133.603 216.261, 136 217.422 C 136.825 217.821, 136.600 217.430, 135.500 216.553 C 134.400 215.675, 132.938 214.205, 132.250 213.287 C 131.563 212.369, 131 212.084, 131 212.654 M 180.057 214.500 C 180.798 215.600, 182.192 217.406, 183.154 218.513 C 184.394 219.940, 185.005 222.702, 185.253 228.013 L 185.603 235.500 185.764 228 C 185.921 220.697, 185.830 220.395, 182.317 216.500 C 180.332 214.300, 179.315 213.400, 180.057 214.500 M 366 214.704 C 367.375 215.692, 369.512 217.492, 370.750 218.705 C 371.988 219.917, 373 220.502, 373 220.005 C 373 219.085, 367.723 214.861, 365 213.601 C 364.175 213.220, 364.625 213.716, 366 214.704 M 499.110 214.367 C 498.244 215.412, 498.359 216.053, 499.600 217.083 C 500.493 217.824, 501.595 219.346, 502.048 220.465 C 502.643 221.931, 502.891 222.054, 502.937 220.905 C 502.971 220.028, 502.102 218.497, 501.004 217.503 C 499.480 216.125, 499.272 215.377, 500.126 214.348 C 500.741 213.607, 501.020 213, 500.745 213 C 500.470 213, 499.734 213.615, 499.110 214.367 M 232.667 218.667 C 232.300 219.033, 232 221.508, 232 224.167 L 232 229 238.437 229 C 244.693 229, 244.885 229.077, 245.280 231.750 C 245.663 234.345, 245.681 234.330, 245.593 231.500 C 245.501 228.530, 245.438 228.497, 239.250 228.202 L 233 227.905 233 223.507 L 233 219.110 237.750 218.735 L 242.500 218.360 237.917 218.180 C 235.396 218.081, 233.033 218.300, 232.667 218.667 M 308 223.500 L 308 229 314.750 228.807 L 321.500 228.615 315.250 228.260 L 309 227.905 309 223.507 L 309 219.110 313.750 218.735 L 318.500 218.360 313.250 218.180 L 308 218 308 223.500 M 436.667 218.667 C 436.300 219.033, 436 221.508, 436 224.167 L 436 229 442.437 229 L 448.873 229 449.277 232.250 C 449.674 235.450, 449.682 235.442, 449.840 231.750 L 450 228 443.500 228 L 437 228 437 223.555 L 437 219.110 441.750 218.735 L 446.500 218.360 441.917 218.180 C 439.396 218.081, 437.033 218.300, 436.667 218.667 M 107.250 219.716 C 108.763 219.945, 111.237 219.945, 112.750 219.716 C 114.263 219.487, 113.025 219.300, 110 219.300 C 106.975 219.300, 105.737 219.487, 107.250 219.716 M 488.201 227.187 L 488.402 235.500 488.743 227.750 C 489.069 220.355, 489.193 220, 491.459 220 C 492.765 220, 494.062 220.461, 494.342 221.025 C 494.621 221.589, 494.737 221.476, 494.598 220.775 C 494.459 220.074, 492.918 219.359, 491.173 219.187 L 488 218.873 488.201 227.187 M 364.500 224.500 C 364.500 226.320, 364.837 227.600, 365.250 227.345 C 365.663 227.091, 366 225.810, 366 224.500 C 366 223.190, 365.663 221.909, 365.250 221.655 C 364.837 221.400, 364.500 222.680, 364.500 224.500 M 131.671 224.450 C 129.500 226.095, 130.304 228.152, 134.621 232 C 137.063 234.176, 137.002 234.001, 134.152 230.646 C 131.031 226.972, 130.959 226.703, 132.594 224.896 C 134.604 222.675, 134.243 222.500, 131.671 224.450 M 495.252 227.500 C 495.263 229.700, 495.468 230.482, 495.707 229.238 C 495.946 227.994, 495.937 226.194, 495.687 225.238 C 495.437 224.282, 495.241 225.300, 495.252 227.500 M 139.739 226.998 C 141.606 229.020, 142.187 229.197, 143.239 228.064 C 144.258 226.968, 144.248 226.850, 143.187 227.451 C 142.434 227.878, 140.941 227.424, 139.687 226.385 C 137.549 224.614, 137.550 224.628, 139.739 226.998 M 503.272 229 C 503.272 231.475, 503.467 232.488, 503.706 231.250 C 503.944 230.012, 503.944 227.988, 503.706 226.750 C 503.467 225.512, 503.272 226.525, 503.272 229 M 460.272 231 C 460.272 233.475, 460.467 234.488, 460.706 233.250 C 460.944 232.012, 460.944 229.988, 460.706 228.750 C 460.467 227.512, 460.272 228.525, 460.272 231 M 467.272 231 C 467.272 233.475, 467.467 234.488, 467.706 233.250 C 467.944 232.012, 467.944 229.988, 467.706 228.750 C 467.467 227.512, 467.272 228.525, 467.272 231 M 215.690 228.712 C 221.535 229.071, 221.903 229.243, 222.283 231.796 C 222.651 234.260, 222.678 234.234, 222.593 231.500 L 222.500 228.500 216 228.416 L 209.500 228.331 215.690 228.712 M 367.213 232.245 C 363.281 235.149, 362.661 235.314, 359.713 234.235 C 356.803 233.171, 356.683 233.199, 358.441 234.530 C 359.509 235.339, 361.108 236, 361.994 236 C 363.465 236, 372 230.382, 372 229.413 C 372 228.751, 371.722 228.915, 367.213 232.245 M 404.211 232.251 C 401.249 235.213, 400.806 235.361, 398.744 234.076 C 396.691 232.797, 396.617 232.820, 397.872 234.339 C 399.825 236.702, 401.226 236.417, 404.507 232.992 L 407.389 229.985 410.492 232.992 C 412.199 234.647, 414.048 236, 414.601 236 C 415.155 236, 417.158 234.313, 419.054 232.250 L 422.500 228.500 418.952 231.750 C 417.001 233.537, 414.998 235, 414.500 235 C 414.002 235, 412.209 233.656, 410.514 232.014 L 407.434 229.028 404.211 232.251" stroke="none" fill="#636363" fill-rule="evenodd"/><path d="M 82.200 191.200 C 81.540 191.860, 81 193.210, 81 194.200 C 81 195.529, 80.224 196, 78.035 196 C 76.108 196, 74.701 196.690, 74.015 197.972 C 73.344 199.226, 73.058 207.685, 73.230 221.222 L 73.500 242.500 97.268 242.636 L 121.036 242.772 120.768 219.636 L 120.500 196.500 117.250 196.187 C 115.323 196.001, 114 195.317, 114 194.508 C 114 193.757, 113.293 192.436, 112.429 191.571 C 111.153 190.295, 108.276 190, 97.129 190 C 87.784 190, 83.017 190.383, 82.200 191.200 M 83 192.457 C 83 192.709, 86.185 195.456, 90.078 198.562 L 97.155 204.209 100.434 201.855 C 104.630 198.842, 111 193.220, 111 192.531 C 111 192.239, 104.700 192, 97 192 C 89.300 192, 83 192.206, 83 192.457 M 106 199.494 C 102.975 201.979, 100.500 204.287, 100.500 204.623 C 100.500 205.784, 109.658 208.829, 110.879 208.075 C 111.689 207.574, 112.001 205.226, 111.802 201.147 L 111.500 194.976 106 199.494 M 83 201.941 C 83 205.209, 83.416 208.139, 83.925 208.454 C 85.193 209.237, 94.209 205.602, 93.890 204.437 C 93.608 203.407, 84.580 196, 83.607 196 C 83.273 196, 83 198.673, 83 201.941 M 76.200 198.200 C 75.344 199.056, 75 205.356, 75 220.200 L 75 241 85.500 241 L 96 241 96 224.500 C 96 215.425, 95.662 208.003, 95.250 208.008 C 94.838 208.012, 91.575 208.908, 88 210 C 84.425 211.092, 81.388 211.988, 81.250 211.992 C 81.112 211.997, 81 208.625, 81 204.500 C 81 197.944, 80.773 197, 79.200 197 C 78.210 197, 76.860 197.540, 76.200 198.200 M 114 204.500 C 114 208.625, 113.888 211.997, 113.750 211.992 C 113.612 211.988, 110.575 211.092, 107 210 C 103.425 208.908, 99.938 208.012, 99.250 208.008 C 98.300 208.002, 98 211.963, 98 224.500 L 98 241 109 241 L 120 241 120 220.200 C 120 198.664, 119.699 197, 115.800 197 C 114.227 197, 114 197.944, 114 204.500 M 135.042 201.845 C 128.387 208.176, 129.497 212.832, 138.991 218.407 C 146.126 222.596, 147.136 224.321, 144.164 227.236 L 141.856 229.500 139.105 226.250 C 135.904 222.468, 134.956 222.286, 132.518 224.980 C 130.776 226.905, 130.840 227.075, 134.745 230.980 C 137.256 233.492, 139.687 235, 141.221 235 C 144.622 235, 150.710 230.137, 151.994 226.394 C 153.701 221.421, 151.949 218.596, 144.501 214.313 C 138.946 211.118, 137.959 210.146, 138.207 208.113 C 138.368 206.787, 139.322 205.206, 140.327 204.601 C 141.851 203.682, 142.620 204.052, 144.974 206.840 C 147.746 210.121, 147.841 210.150, 150.378 208.488 C 153.408 206.503, 152.867 204.748, 147.946 200.608 C 143.485 196.854, 139.930 197.195, 135.042 201.845 M 155 201 C 155 203.762, 155.278 204, 158.500 204 L 162 204 162 219.563 L 162 235.127 165.250 234.813 L 168.500 234.500 168.776 219.250 L 169.052 204 172.026 204 C 174.664 204, 175 203.661, 175 201 L 175 198 165 198 L 155 198 155 201 M 179 205.147 C 179 211.835, 179.225 212.568, 182.500 216.565 C 185.775 220.562, 186 221.296, 186 227.982 L 186 235.127 189.250 234.813 L 192.500 234.500 192.637 227.173 C 192.755 220.852, 193.116 219.479, 195.265 217.173 C 199.129 213.027, 200 210.615, 200 204.066 L 200 198 196.500 198 L 193 198 193 204.277 C 193 210.315, 191.239 215, 188.969 215 C 187.103 215, 185 208.933, 185 203.550 C 185 198.050, 184.973 198, 182 198 L 179 198 179 205.147 M 203 216.500 L 203 235 212.500 235 L 222 235 222 232 L 222 229 216 229 L 210 229 210 213.500 L 210 198 206.500 198 L 203 198 203 216.500 M 228.750 200.115 L 226 202.167 226 218.583 L 226 235 235.500 235 L 245 235 245 232 L 245 229 238.448 229 L 231.895 229 232.198 223.750 L 232.500 218.500 237.250 218.195 C 241.507 217.922, 242 217.642, 242 215.500 C 242 213.358, 241.507 213.078, 237.250 212.805 C 232.675 212.511, 232.488 212.378, 232.182 209.185 C 231.730 204.476, 233.386 203, 239.122 203 C 243.659 203, 244 202.825, 244 200.500 C 244 198.097, 243.758 198.001, 237.750 198.032 C 233.043 198.056, 230.821 198.570, 228.750 200.115 M 263.274 199.772 C 261.157 201.416, 261.119 201.695, 262.480 205.500 C 263.429 208.149, 263.927 213.827, 263.956 222.313 L 264 235.127 267.250 234.813 L 270.500 234.500 270.500 220.307 C 270.500 205.793, 271.099 203.333, 274.333 204.574 C 275.786 205.132, 276 207.127, 276 220.107 L 276 235 279.500 235 L 283 235 283 219.969 C 283 207.474, 283.255 204.839, 284.513 204.357 C 285.345 204.037, 286.695 204.332, 287.513 205.011 C 288.703 205.999, 289 209.124, 289 220.686 L 289 235.127 292.250 234.813 L 295.500 234.500 295.777 220.283 L 296.055 206.066 292.411 202.033 C 288.476 197.677, 285.742 197.018, 282.770 199.708 C 281.243 201.090, 280.560 201.184, 279.191 200.202 C 275.996 197.908, 274.699 197.675, 271.605 198.843 C 269.588 199.604, 268.387 199.661, 268.169 199.007 C 267.674 197.522, 265.794 197.816, 263.274 199.772 M 304.700 200.255 L 301.901 202.500 301.885 218.500 L 301.869 234.500 311.434 234.786 L 321 235.072 321 232.036 L 321 229 314.500 229 L 308 229 308 223.500 L 308 218 313 218 C 317.667 218, 318 217.833, 318 215.500 C 318 213.167, 317.667 213, 313 213 L 308 213 308 209.200 C 308 204.211, 309.406 203, 315.200 203 C 319.653 203, 320 202.819, 320 200.500 C 320 198.099, 319.751 198, 313.750 198.005 C 308.775 198.009, 306.929 198.468, 304.700 200.255 M 326.106 199.885 C 324.434 201.171, 323.982 202.144, 324.606 203.113 C 325.098 203.876, 325.725 211.250, 326 219.500 L 326.500 234.500 329.723 234.811 L 332.946 235.123 333.223 220.419 C 333.457 207.979, 333.757 205.553, 335.166 204.665 C 336.374 203.905, 337.268 203.977, 338.416 204.930 C 339.727 206.018, 340 208.724, 340 220.622 L 340 235 343.500 235 L 347 235 347 219.868 L 347 204.736 343.429 201.368 C 339.602 197.759, 336.024 197.061, 333.979 199.525 C 332.845 200.892, 332.538 200.892, 331.028 199.525 C 328.951 197.645, 329.026 197.640, 326.106 199.885 M 355.614 201.318 C 352.273 204.144, 351.727 205.178, 351.727 208.678 C 351.727 210.917, 352.033 213.245, 352.408 213.850 C 352.782 214.456, 355.993 216.576, 359.544 218.562 C 364.664 221.425, 366 222.664, 366 224.551 C 366 227.542, 362.894 229.424, 360.784 227.711 C 359.964 227.045, 358.640 225.513, 357.842 224.307 L 356.391 222.113 353.476 224.437 L 350.561 226.761 354.122 230.322 C 359.303 235.503, 362.212 235.925, 367.322 232.238 C 375.701 226.192, 375.003 220.902, 364.971 214.413 C 357.784 209.763, 356.872 208.271, 359.571 205.571 C 361.750 203.392, 362.458 203.567, 365.347 207 C 368.310 210.522, 369.094 210.659, 371.445 208.061 C 373.042 206.296, 373.061 205.925, 371.655 203.917 C 369.457 200.780, 364.924 198.012, 362 198.021 C 360.625 198.026, 357.751 199.509, 355.614 201.318 M 390.006 209.250 C 390.009 215.438, 390.450 222.079, 390.986 224.009 C 391.995 227.640, 398.317 235, 400.427 235 C 401.086 235, 402.923 233.647, 404.507 231.992 L 407.389 228.985 410.492 231.992 C 412.199 233.647, 414.084 235, 414.681 235 C 416.404 235, 422.871 227.330, 423.724 224.275 C 424.991 219.732, 424.597 204.792, 423.116 201.250 C 421.574 197.562, 420.474 197.295, 417.201 199.813 C 415.018 201.494, 414.980 201.731, 416.445 204.541 C 418.424 208.337, 418.485 219.903, 416.551 224.532 C 413.273 232.377, 411 226.611, 411 210.453 L 411 198 407.577 198 L 404.155 198 403.827 211.467 C 403.562 222.380, 403.185 225.249, 401.840 226.591 C 400.294 228.135, 400.071 228.037, 398.590 225.174 C 397.395 222.863, 397 219.108, 397 210.050 L 397 198 393.500 198 L 390 198 390.006 209.250 M 432.750 200.115 L 430 202.167 430 218.583 L 430 235 439.500 235 L 449 235 449 232 L 449 229 442.448 229 L 435.895 229 436.198 223.750 L 436.500 218.500 441.250 218.195 C 445.507 217.922, 446 217.642, 446 215.500 C 446 213.358, 445.507 213.078, 441.250 212.805 C 436.675 212.511, 436.488 212.378, 436.182 209.185 C 435.730 204.476, 437.386 203, 443.122 203 C 447.659 203, 448 202.825, 448 200.500 C 448 198.097, 447.758 198.001, 441.750 198.032 C 437.043 198.056, 434.821 198.570, 432.750 200.115 M 457.994 201.750 L 454.066 205.500 453.946 217.500 C 453.758 236.196, 453.550 235, 457 235 C 459.833 235, 460 234.778, 460 231 L 460 227 464 227 L 468 227 468 231 C 468 234.905, 468.083 235, 471.500 235 L 475 235 475 220.978 L 475 206.955 470.873 202.478 C 465.712 196.879, 463.243 196.740, 457.994 201.750 M 481.140 199.859 C 478.864 201.610, 478.837 201.784, 480.390 204.788 C 481.638 207.200, 482 210.951, 482 221.450 L 482 235 485 235 L 488 235 488 226.937 L 488 218.873 491.211 219.187 C 494.919 219.549, 495.742 221.403, 495.900 229.750 L 496 235 499.333 235 C 501.167 235, 502.873 234.793, 503.126 234.541 C 503.378 234.288, 503.293 230.899, 502.937 227.009 C 502.466 221.869, 501.723 219.329, 500.219 217.718 C 498.173 215.524, 498.171 215.475, 500.075 213.139 C 503.206 209.300, 502.594 204.729, 498.465 201.104 C 494.655 197.758, 492.188 197.282, 488.856 199.250 C 487.162 200.250, 486.648 200.250, 486.286 199.250 C 485.658 197.517, 483.919 197.723, 481.140 199.859 M 488.667 204.667 C 487.630 205.703, 487.882 212.809, 488.979 213.487 C 490.430 214.384, 493.773 212.291, 494.488 210.039 C 495.698 206.225, 491.231 202.103, 488.667 204.667 M 461.035 206.934 C 460.466 207.998, 460 211.598, 460 214.934 L 460 221 464 221 L 468 221 468 214.934 C 468 208.019, 466.784 205, 464 205 C 462.939 205, 461.605 205.870, 461.035 206.934 M 105 221 C 105 221.550, 106.998 222, 109.441 222 C 111.884 222, 114.160 221.550, 114.500 221 C 114.881 220.384, 113.177 220, 110.059 220 C 107.277 220, 105 220.450, 105 221" stroke="none" fill="#080808" fill-rule="evenodd"/></svg>