<svg xmlns="http://www.w3.org/2000/svg" width="1500" height="185" viewBox="0 0 1500 185" version="1.1"><path d="M 41.395 0.923 C 34.415 2.643, 30 8.447, 30 15.901 L 30 20 21.750 20.073 C 12.018 20.159, 8.603 21.714, 5.266 27.575 L 3.033 31.500 3.016 108.256 L 3 185.011 87.250 184.756 L 171.500 184.500 171.772 109 C 172.077 24.404, 172.299 27.314, 165.175 22.473 C 162.029 20.335, 160.415 20, 153.268 20 L 145 20 145 15.886 C 145 10.757, 141.827 4.934, 137.656 2.410 C 134.686 0.612, 131.854 0.490, 89.500 0.329 C 64.750 0.234, 43.103 0.502, 41.395 0.923 M 41 10.033 C 39.393 11.107, 40.034 11.844, 48.086 18.192 C 52.066 21.330, 62.220 29.475, 77 41.387 L 87.500 49.850 90.500 47.074 C 92.150 45.547, 99.575 39.400, 107 33.413 C 114.425 27.427, 121.625 21.487, 123 20.215 C 124.375 18.943, 127.633 16.260, 130.239 14.253 C 133.521 11.728, 134.598 10.363, 133.739 9.818 C 131.861 8.625, 42.797 8.832, 41 10.033 M 131.500 24.018 C 128.750 26.245, 125.600 28.859, 124.500 29.825 C 123.400 30.792, 120.255 33.364, 117.510 35.541 C 114.766 37.719, 111.616 40.331, 110.510 41.346 C 109.405 42.362, 105.863 45.279, 102.640 47.830 L 96.780 52.468 100.140 53.874 C 103.467 55.266, 114.105 59.185, 125.287 63.136 C 130.660 65.035, 131.250 65.066, 133.521 63.578 C 134.867 62.696, 136.216 60.968, 136.518 59.737 C 136.821 58.507, 136.940 49.055, 136.784 38.734 L 136.500 19.967 131.500 24.018 M 38 40.916 C 38 59.667, 38.133 61.133, 40 63 C 41.100 64.100, 42.924 65, 44.054 65 C 45.820 65, 62.516 59.014, 74.150 54.210 L 77.801 52.703 74.664 50.102 C 70.211 46.408, 69.761 46.047, 57 35.918 C 50.675 30.897, 43.813 25.449, 41.750 23.811 L 38 20.832 38 40.916 M 233.041 28.579 C 227.044 32.111, 218.565 38.763, 212.600 44.617 C 205.847 51.243, 203.685 56.519, 203.634 66.500 C 203.550 82.825, 208.361 88.777, 231.500 100.972 C 248.071 109.706, 251.965 112.067, 253.006 114.011 C 254.471 116.749, 254.215 123.685, 252.527 126.947 C 251.185 129.543, 244.043 134, 241.226 134 C 239.077 134, 228.960 122.507, 226.080 116.794 L 223.204 111.088 213.102 117.677 C 207.546 121.300, 203 124.908, 203 125.695 C 203 131.919, 214.434 146.008, 224.948 152.740 C 235.291 159.363, 242.108 160.515, 249.290 156.854 C 254.879 154.005, 271.385 140.673, 274.694 136.335 C 278.296 131.613, 279.987 124.310, 279.635 114.998 C 279.226 104.202, 275.729 99.310, 262.133 90.520 C 254.639 85.674, 238.029 76.016, 237.107 75.968 C 235.629 75.891, 230.884 70.826, 229.924 68.300 C 227.561 62.084, 231.757 54.225, 238.656 51.949 C 241.481 51.016, 242.398 51.148, 244.741 52.821 C 249.041 55.893, 252.761 60.496, 256.629 67.533 C 260.110 73.866, 261.282 74.971, 262.475 73.041 C 262.801 72.514, 266.876 69.548, 271.530 66.451 C 276.185 63.354, 280.212 60.467, 280.479 60.034 C 280.746 59.602, 279.603 56.523, 277.938 53.193 C 271.494 40.297, 254.527 27.217, 243.147 26.372 C 238.394 26.020, 236.794 26.369, 233.041 28.579 M 549.931 29.957 C 546.944 32.134, 543.150 34.848, 541.500 35.989 C 539.850 37.129, 536.587 39.401, 534.250 41.037 L 530 44.013 530 100.506 L 530 157 565 157 L 600 157 600 145.500 L 600 134 578 134 L 556 134 556 117.500 L 556 101 572.500 101 L 589 101 589 89.500 L 589 78 572.500 78 L 556 78 556.012 65.750 L 556.025 53.500 559.498 51.250 C 562.754 49.141, 564.038 49, 579.986 49 L 597 49 597 37.500 L 597 26 576.181 26 L 555.361 26 549.931 29.957 M 663.532 33.082 C 650.825 41.947, 651.206 41.515, 653.703 44.237 C 657.849 48.756, 661.078 56.916, 662.044 65.319 C 662.561 69.818, 662.988 92.287, 662.992 115.250 L 663 157 675.500 157 L 688 157 688.180 112.250 C 688.278 87.638, 688.391 65.108, 688.430 62.184 C 688.493 57.368, 688.829 56.595, 692 53.961 C 693.925 52.362, 696.234 51.042, 697.131 51.027 C 699.113 50.994, 704.851 56.618, 706.097 59.815 C 706.594 61.088, 707 83.476, 707 109.565 L 707 157 720.018 157 L 733.036 157 732.768 106.750 L 732.500 56.500 735.275 53.648 C 738.628 50.202, 740.973 50.527, 746 55.135 L 749.500 58.343 749.777 107.671 L 750.054 157 763.027 157 L 776 157 775.978 106.250 C 775.953 48.185, 776.407 51.371, 766.883 42.467 C 754.701 31.079, 747.338 26, 743.010 26 C 740.110 26, 734.253 29.204, 729.500 33.391 C 722.243 39.784, 721.765 39.844, 716.309 35.036 C 704.852 24.940, 699.920 24.040, 690.554 30.334 C 687.774 32.202, 684.959 34.030, 684.298 34.395 C 683.596 34.782, 681.357 33.173, 678.920 30.529 C 676.624 28.038, 674.465 26.029, 674.123 26.064 C 673.780 26.099, 669.015 29.257, 663.532 33.082 M 808.924 32.832 C 803.657 36.499, 798.145 40.465, 796.674 41.644 L 794 43.788 794 100.394 L 794 157 828.500 157 L 863 157 863 145.500 L 863 134 841.500 134 L 820 134 820 117.500 L 820 101 836 101 L 852 101 852 89.500 L 852 78 836 78 L 820 78 820 65.568 L 820 53.136 822.904 51.068 C 825.568 49.171, 827.224 49, 842.904 49 L 860 49 860 37.500 L 860 26 839.250 26.082 L 818.500 26.164 808.924 32.832 M 880.290 33.288 C 874.674 37.255, 870.062 41.040, 870.040 41.700 C 870.018 42.360, 871.313 44.845, 872.917 47.221 C 876.475 52.495, 878.870 58.332, 879.388 63 C 879.602 64.925, 879.827 86.862, 879.888 111.750 L 880 157 893 157 L 906 157 906 107.674 L 906 58.349 908.250 56.307 C 915.498 49.729, 919.015 49.706, 924.164 56.206 L 927.500 60.417 927.778 108.709 L 928.055 157 941.028 157 L 954 157 954 107.125 C 954 79.694, 953.714 55.731, 953.365 53.875 C 952.887 51.332, 950.392 48.220, 943.239 41.250 C 938.019 36.163, 933.387 32, 932.946 32 C 932.504 32, 931.526 31.383, 930.773 30.630 C 928.579 28.436, 923.300 26, 920.741 26 C 918.223 26, 908.711 31.328, 904.915 34.865 C 902.013 37.568, 901.585 37.541, 899.614 34.533 C 897.503 31.312, 892.284 25.989, 891.284 26.038 C 890.853 26.059, 885.905 29.322, 880.290 33.288 M 997.500 28.179 C 991.019 31.566, 977.204 42.800, 973.036 48.074 C 965.664 57.400, 964.933 74.162, 971.465 84.102 C 973.833 87.704, 986.481 96.766, 995 100.963 C 997.475 102.183, 1003.221 105.277, 1007.769 107.840 C 1014.920 111.870, 1016.169 112.979, 1017.002 116.042 C 1017.929 119.452, 1017.796 121.916, 1016.457 126.135 C 1015.652 128.671, 1008.325 134, 1005.644 134 C 1002.689 134, 993.029 123.486, 989.684 116.629 L 986.868 110.856 984.184 112.564 C 982.708 113.503, 978.215 116.573, 974.200 119.386 C 967.320 124.206, 966.927 124.684, 967.379 127.700 C 967.900 131.179, 974.239 140.924, 978.709 145.120 C 983.490 149.608, 994.806 156.852, 998.741 157.945 C 1006.946 160.224, 1011.136 158.938, 1022.214 150.741 C 1039.202 138.170, 1043.208 131.847, 1043.270 117.500 C 1043.323 105.364, 1042.088 103.041, 1031 94.418 C 1025.717 90.310, 1013.484 82.742, 1000.549 75.580 C 993.739 71.809, 991.453 65.639, 994.321 58.773 C 996.054 54.626, 1002.771 50.475, 1006.060 51.519 C 1009.275 52.539, 1017.379 61.628, 1020.539 67.758 C 1022.168 70.916, 1023.606 73.681, 1023.735 73.902 C 1023.864 74.122, 1026.513 72.547, 1029.622 70.402 C 1032.731 68.256, 1037.238 65.224, 1039.637 63.665 C 1042.037 62.106, 1044 60.126, 1044 59.265 C 1044 55.841, 1038.452 46.669, 1033.210 41.427 C 1019.642 27.860, 1007.050 23.188, 997.500 28.179 M 1197.520 33.073 C 1192.030 36.916, 1187.166 40.434, 1186.709 40.891 C 1186.253 41.347, 1187.269 43.780, 1188.968 46.298 C 1196.143 56.928, 1196.389 58.127, 1196.716 84 C 1196.972 104.238, 1196.761 108.402, 1195.201 114 C 1193.294 120.846, 1188.178 131.107, 1186.373 131.709 C 1184.927 132.191, 1180.836 125.796, 1177.922 118.500 C 1175.548 112.553, 1175.524 112.125, 1175.204 70.250 L 1174.882 28 1161.999 28 L 1149.116 28 1148.808 71.250 L 1148.500 114.500 1144.145 123.250 C 1141.749 128.063, 1139.456 132, 1139.050 132 C 1137.117 132, 1130.888 121.361, 1128.810 114.509 C 1128.308 112.854, 1127.936 92.713, 1127.984 69.750 L 1128.071 28 1115.035 28 L 1102 28 1102 69.438 C 1102 114.684, 1102.513 119.999, 1107.747 128.984 C 1110.819 134.258, 1110.325 133.595, 1117.853 142.569 C 1124.986 151.074, 1132.481 157.832, 1135.667 158.631 C 1136.950 158.953, 1139.207 158.914, 1140.682 158.544 C 1143.680 157.791, 1154.521 147.192, 1158.607 141.018 C 1160.069 138.808, 1161.580 137, 1161.963 137 C 1162.347 137, 1164.038 138.917, 1165.720 141.260 C 1167.403 143.603, 1171.565 148.314, 1174.970 151.730 C 1184.434 161.223, 1188.853 161.124, 1198.776 151.195 C 1211.214 138.751, 1218.010 128.760, 1220.724 118.931 C 1222.238 113.449, 1222.499 108.219, 1222.490 83.500 C 1222.480 52.656, 1222.059 49.169, 1216.950 37.620 C 1214.964 33.131, 1209.506 25.953, 1208.146 26.042 C 1207.791 26.066, 1203.009 29.230, 1197.520 33.073 M 1259.500 28.235 C 1257.850 29.442, 1256.275 30.687, 1256 31.002 C 1255.725 31.316, 1251.563 34.199, 1246.750 37.408 L 1238 43.243 1238 100.135 L 1238 157.026 1272.750 156.763 L 1307.500 156.500 1307.500 145.500 L 1307.500 134.500 1285.750 134.230 L 1264 133.961 1264 117.480 L 1264 101 1280 101 L 1296 101 1296 89.500 L 1296 78 1280 78 L 1264 78 1264 65.688 L 1264 53.376 1266.960 51.188 C 1269.740 49.133, 1270.984 49, 1287.492 49 L 1305.066 49 1304.783 37.750 L 1304.500 26.500 1283.500 26.270 C 1263.270 26.049, 1262.390 26.121, 1259.500 28.235 M 1350.500 28.853 C 1344.151 32.598, 1331.826 43.968, 1326.926 50.601 C 1320.765 58.940, 1320.693 59.623, 1320.592 110.500 L 1320.500 156.500 1333.803 156.779 L 1347.106 157.059 1346.803 143.028 L 1346.500 128.997 1358.750 128.998 L 1371 129 1371 143 L 1371 157 1384.053 157 L 1397.106 157 1396.803 108.750 L 1396.500 60.500 1394.130 55.729 C 1391.236 49.903, 1377.533 35.752, 1369.898 30.705 C 1362.003 25.486, 1357.016 25.010, 1350.500 28.853 M 1419.230 33.034 C 1413.645 36.903, 1408.779 40.548, 1408.417 41.134 C 1408.055 41.720, 1408.728 43.392, 1409.913 44.850 C 1411.098 46.307, 1413.289 49.975, 1414.783 53 L 1417.500 58.500 1417.794 107.750 L 1418.088 157 1431.044 157 L 1444 157 1444 130 L 1444 103 1451.845 103 C 1458.093 103, 1459.988 103.356, 1461.152 104.750 C 1463.347 107.379, 1465.046 111.839, 1465.593 116.411 C 1465.862 118.660, 1466.278 121.438, 1466.518 122.584 C 1466.758 123.731, 1467.251 130.031, 1467.612 136.584 C 1467.973 143.138, 1468.399 149.175, 1468.558 150 C 1468.717 150.825, 1468.881 152.738, 1468.923 154.250 L 1469 157 1483 157 L 1497 157 1497 153.200 C 1497 147.509, 1495.079 123.611, 1493.890 114.500 C 1492.587 104.517, 1491.380 101.963, 1484.503 94.636 C 1481.476 91.411, 1479.015 88.486, 1479.034 88.136 C 1479.053 87.786, 1481.303 85.025, 1484.035 82 C 1486.767 78.975, 1489.676 75.082, 1490.501 73.349 C 1492.397 69.362, 1492.491 56.109, 1490.653 51.718 C 1488.889 47.503, 1473.537 33.026, 1466.656 29.089 C 1463.686 27.390, 1460.080 26, 1458.643 26 C 1456.069 26, 1443.961 31.850, 1440.966 34.541 C 1439.633 35.739, 1438.875 35.271, 1435.161 30.959 C 1432.811 28.232, 1430.550 26, 1430.136 26 C 1429.723 26, 1424.815 29.165, 1419.230 33.034 M 14.889 28.662 C 11.129 29.668, 11 32.192, 11 105.047 L 11 176 47 176 L 83 176 83 120.095 L 83 64.189 74.250 66.630 C 69.438 67.972, 61.450 70.164, 56.500 71.501 C 51.550 72.838, 43.563 75.042, 38.750 76.399 L 30 78.866 30 53.433 L 30 28 23.250 28.116 C 19.538 28.180, 15.775 28.426, 14.889 28.662 M 145 52.833 C 145 66.492, 144.736 77.931, 144.413 78.253 C 144.091 78.576, 141.953 78.198, 139.663 77.414 C 137.374 76.630, 126.275 73.281, 115 69.972 C 103.725 66.662, 93.713 63.710, 92.750 63.410 C 91.097 62.896, 91 66.030, 91 119.683 L 90.999 176.500 127.525 176.226 L 164.051 175.952 163.776 103.887 L 163.500 31.823 161.139 29.911 C 159.326 28.443, 157.182 28, 151.889 28 L 145 28 145 52.833 M 286 39.500 L 286 51 298 51 L 310 51 310 104.030 L 310 157.060 322.750 156.780 L 335.500 156.500 335.759 103.750 L 336.018 51 348.009 51 L 360 51 360 39.500 L 360 28 323 28 L 286 28 286 39.500 M 368.172 52.250 L 368.500 76.500 373.328 83.751 C 375.983 87.740, 381.495 94.397, 385.578 98.546 L 393 106.090 393 131.545 L 393 157 406 157 L 419 157 419 131.195 L 419 105.390 426.250 97.915 C 443.326 80.310, 443.338 80.278, 443.810 51.219 L 444.188 27.939 431.344 28.219 L 418.500 28.500 418 50 C 417.633 65.791, 417.128 72.164, 416.101 74 C 413.137 79.296, 407.423 85.917, 405.782 85.957 C 403.725 86.008, 396.204 76.153, 394.874 71.665 C 394.358 69.924, 393.958 59.388, 393.986 48.250 L 394.035 28 380.939 28 L 367.844 28 368.172 52.250 M 453 92.470 L 453 157 486.533 157 L 520.066 157 519.783 145.750 L 519.500 134.500 499.259 134.229 L 479.018 133.959 478.759 81.229 L 478.500 28.500 465.750 28.220 L 453 27.940 453 92.470 M 1446.750 52.162 L 1444 53.167 1444 67.083 L 1444 81 1448.967 81 C 1453.314 81, 1454.372 80.561, 1457.449 77.484 C 1464.886 70.047, 1465.688 63.964, 1460.346 55.508 C 1457.724 51.358, 1457.185 51.010, 1453.500 51.081 C 1451.300 51.123, 1448.263 51.610, 1446.750 52.162 M 1353.766 55.470 C 1347.247 61.208, 1346.656 64.548, 1346.897 94.250 L 1347 107 1359.086 107 L 1371.172 107 1370.836 85.750 C 1370.517 65.562, 1370.384 64.313, 1368.179 60.766 C 1365.305 56.145, 1361.404 52.990, 1358.615 53.032 C 1357.452 53.049, 1355.270 54.146, 1353.766 55.470 M 114 108 L 114 112 131.500 112 L 149 112 149 108 L 149 104 131.500 104 L 114 104 114 108" stroke="none" fill="#0c444b" fill-rule="evenodd"/><path d="M 452.471 92.500 C 452.471 127.700, 452.597 141.955, 452.750 124.178 C 452.903 106.400, 452.903 77.600, 452.749 60.178 C 452.596 42.755, 452.471 57.300, 452.471 92.500 M 1101.451 64 C 1101.451 83.525, 1101.585 91.513, 1101.748 81.750 C 1101.912 71.988, 1101.912 56.013, 1101.748 46.250 C 1101.585 36.488, 1101.451 44.475, 1101.451 64 M 163.474 105.500 C 163.474 144.550, 163.598 160.671, 163.750 141.323 C 163.901 121.976, 163.901 90.026, 163.750 70.323 C 163.598 50.621, 163.474 66.450, 163.474 105.500 M 793.468 100 C 793.468 131.075, 793.594 143.788, 793.749 128.250 C 793.904 112.713, 793.904 87.288, 793.749 71.750 C 793.594 56.213, 793.468 68.925, 793.468 100 M 91.468 120 C 91.468 151.625, 91.595 164.562, 91.749 148.750 C 91.904 132.937, 91.904 107.062, 91.749 91.250 C 91.595 75.437, 91.468 88.375, 91.468 120 M 688.460 112.500 C 688.460 137.250, 688.590 147.232, 688.749 134.682 C 688.908 122.132, 688.908 101.882, 688.749 89.682 C 688.590 77.482, 688.460 87.750, 688.460 112.500 M 1296.374 89.500 C 1296.376 95.550, 1296.541 97.896, 1296.740 94.713 C 1296.939 91.531, 1296.937 86.581, 1296.736 83.713 C 1296.535 80.846, 1296.372 83.450, 1296.374 89.500 M 1447.750 103.732 C 1450.088 103.943, 1453.912 103.943, 1456.250 103.732 C 1458.588 103.522, 1456.675 103.349, 1452 103.349 C 1447.325 103.349, 1445.412 103.522, 1447.750 103.732 M 1352.292 129.742 C 1356.027 129.935, 1361.877 129.934, 1365.292 129.739 C 1368.706 129.545, 1365.650 129.387, 1358.500 129.389 C 1351.350 129.390, 1348.556 129.550, 1352.292 129.742" stroke="none" fill="#0c4c4c" fill-rule="evenodd"/></svg>